<ttFont>
<head>
    <!-- Most of this table will be recalculated by the compiler -->
    <tableVersion value="1.0"/>
    <fontRevision value="1.0"/>
    <checkSumAdjustment value="0x486a2d01"/>
    <magicNumber value="0x5f0f3cf5"/>
    <flags value="00100000 00001111"/>
    <unitsPerEm value="2048"/>
    <created value="Sat May 29 21:24:00 2010"/>
    <modified value="Wed Jun 29 13:12:32 2011"/>
    <xMin value="-309"/>
    <yMin value="-723"/>
    <xMax value="2385"/>
    <yMax value="2565"/>
    <macStyle value="00000000 00000000"/>
    <lowestRecPPEM value="8"/>
    <fontDirectionHint value="2"/>
    <indexToLocFormat value="0"/>
    <glyphDataFormat value="0"/>
  </head>
    <TTGlyph name=".notdef" xMin="144" yMin="0" xMax="688" yMax="1365">
      <contour>
        <pt x="144" y="0" on="1"/>
        <pt x="144" y="1365" on="1"/>
        <pt x="688" y="1365" on="1"/>
        <pt x="688" y="0" on="1"/>
      </contour>
      <contour>
        <pt x="212" y="68" on="1"/>
        <pt x="620" y="68" on="1"/>
        <pt x="620" y="1297" on="1"/>
        <pt x="212" y="1297" on="1"/>
      </contour>
    </TTGlyph>
    <TTGlyph name="A" xMin="16" yMin="0" xMax="1348" yMax="1579">
      <contour>
        <pt x="999" y="485" on="1"/>
        <pt x="682" y="1460" on="1"/>
        <pt x="365" y="485" on="1"/>
      </contour>
      <contour>
        <pt x="1032" y="383" on="1"/>
        <pt x="332" y="383" on="1"/>
        <pt x="209" y="0" on="1"/>
        <pt x="16" y="0" on="1"/>
        <pt x="532" y="1579" on="1"/>
        <pt x="832" y="1579" on="1"/>
        <pt x="1348" y="0" on="1"/>
        <pt x="1155" y="0" on="1"/>
      </contour>
    </TTGlyph>
    <TTGlyph name="AE" xMin="8" yMin="0" xMax="1800" yMax="1579">
      <contour>
        <pt x="1800" y="0" on="1"/>
        <pt x="961" y="0" on="1"/>
        <pt x="961" y="371" on="1"/>
        <pt x="409" y="371" on="1"/>
        <pt x="217" y="0" on="1"/>
        <pt x="8" y="0" on="1"/>
        <pt x="834" y="1579" on="1"/>
        <pt x="1772" y="1579" on="1"/>
        <pt x="1772" y="1436" on="1"/>
        <pt x="1124" y="1436" on="1"/>
        <pt x="1124" y="891" on="1"/>
        <pt x="1729" y="891" on="1"/>
        <pt x="1729" y="764" on="1"/>
        <pt x="1126" y="764" on="1"/>
        <pt x="1126" y="143" on="1"/>
        <pt x="1800" y="143" on="1"/>
      </contour>
      <contour>
        <pt x="959" y="1459" on="1"/>
        <pt x="469" y="493" on="1"/>
        <pt x="959" y="493" on="1"/>
      </contour>
    </TTGlyph>
    <TTGlyph name="Aacute" xMin="16" yMin="0" xMax="1348" yMax="2558">
      <component glyphName="A" x="0" y="0" flags="0x4"/>
      <component glyphName="acute" x="195" y="449" flags="0x4"/>
    </TTGlyph>
    <TTGlyph name="Acircumflex" xMin="16" yMin="0" xMax="1348" yMax="2500">
      <component glyphName="A" x="0" y="0" flags="0x4"/>
      <component glyphName="circumflex" x="327" y="449" flags="0x4"/>
    </TTGlyph>
    <TTGlyph name="Adieresis" xMin="16" yMin="0" xMax="1348" yMax="2037">
      <component glyphName="A" x="0" y="0" flags="0x4"/>
      <component glyphName="dieresis" x="271" y="449" flags="0x4"/>
    </TTGlyph>
    <TTGlyph name="Agrave" xMin="16" yMin="0" xMax="1348" yMax="2565">
      <component glyphName="A" x="0" y="0" flags="0x4"/>
      <component glyphName="grave" x="394" y="449" flags="0x4"/>
    </TTGlyph>
    <TTGlyph name="Aring" xMin="16" yMin="0" xMax="1348" yMax="2184">
      <component glyphName="A" x="0" y="0" flags="0x4"/>
      <component glyphName="ring" x="476" y="449" flags="0x4"/>
    </TTGlyph>
    <TTGlyph name="Atilde" xMin="16" yMin="0" xMax="1348" yMax="2025">
      <component glyphName="A" x="0" y="0" flags="0x4"/>
      <component glyphName="tilde" x="325" y="449" flags="0x4"/>
    </TTGlyph>
    <TTGlyph name="B" xMin="201" yMin="0" xMax="1321" yMax="1579">
      <contour>
        <pt x="1074" y="1188" on="1"/>
        <pt x="1074" y="1251" on="0"/>
        <pt x="1033" y="1345" on="0"/>
        <pt x="921" y="1406" on="0"/>
        <pt x="723" y="1436" on="0"/>
        <pt x="566" y="1436" on="1"/>
        <pt x="395" y="1436" on="1"/>
        <pt x="395" y="915" on="1"/>
        <pt x="654" y="915" on="1"/>
        <pt x="783" y="915" on="0"/>
        <pt x="946" y="952" on="0"/>
        <pt x="1039" y="1022" on="0"/>
        <pt x="1074" y="1123" on="0"/>
      </contour>
      <contour>
        <pt x="621" y="143" on="1"/>
        <pt x="760" y="143" on="0"/>
        <pt x="956" y="173" on="0"/>
        <pt x="1081" y="246" on="0"/>
        <pt x="1139" y="371" on="0"/>
        <pt x="1139" y="466" on="1"/>
        <pt x="1139" y="554" on="0"/>
        <pt x="1084" y="676" on="0"/>
        <pt x="968" y="752" on="0"/>
        <pt x="785" y="786" on="0"/>
        <pt x="658" y="786" on="1"/>
        <pt x="395" y="786" on="1"/>
        <pt x="395" y="143" on="1"/>
      </contour>
      <contour>
        <pt x="914" y="862" on="1"/>
        <pt x="1321" y="815" on="0"/>
        <pt x="1321" y="434" on="1"/>
        <pt x="1321" y="304" on="0"/>
        <pt x="1211" y="136" on="0"/>
        <pt x="1021" y="38" on="0"/>
        <pt x="766" y="0" on="0"/>
        <pt x="621" y="0" on="1"/>
        <pt x="201" y="0" on="1"/>
        <pt x="201" y="1579" on="1"/>
        <pt x="562" y="1579" on="1"/>
        <pt x="710" y="1579" on="0"/>
        <pt x="925" y="1552" on="0"/>
        <pt x="1076" y="1503" on="0"/>
        <pt x="1169" y="1433" on="0"/>
        <pt x="1221" y="1346" on="0"/>
        <pt x="1239" y="1244" on="0"/>
        <pt x="1239" y="1188" on="1"/>
        <pt x="1239" y="1157" on="0"/>
        <pt x="1232" y="1090" on="0"/>
        <pt x="1208" y="1025" on="0"/>
        <pt x="1165" y="964" on="0"/>
        <pt x="1092" y="912" on="0"/>
        <pt x="987" y="873" on="0"/>
      </contour>
    </TTGlyph>
    <TTGlyph name="C" xMin="115" yMin="-20" xMax="1245" yMax="1610">
      <contour>
        <pt x="1172" y="1385" on="1"/>
        <pt x="1107" y="1412" on="0"/>
        <pt x="1001" y="1442" on="0"/>
        <pt x="915" y="1455" on="0"/>
        <pt x="845" y="1458" on="0"/>
        <pt x="815" y="1458" on="1"/>
        <pt x="675" y="1458" on="0"/>
        <pt x="485" y="1364" on="0"/>
        <pt x="367" y="1189" on="0"/>
        <pt x="316" y="939" on="0"/>
        <pt x="316" y="784" on="1"/>
        <pt x="316" y="596" on="0"/>
        <pt x="390" y="345" on="0"/>
        <pt x="522" y="195" on="0"/>
        <pt x="705" y="132" on="0"/>
        <pt x="815" y="132" on="1"/>
        <pt x="861" y="132" on="0"/>
        <pt x="959" y="152" on="0"/>
        <pt x="1057" y="183" on="0"/>
        <pt x="1149" y="221" on="0"/>
        <pt x="1189" y="239" on="1"/>
        <pt x="1245" y="100" on="1"/>
        <pt x="1175" y="67" on="0"/>
        <pt x="1054" y="22" on="0"/>
        <pt x="945" y="-7" on="0"/>
        <pt x="844" y="-20" on="0"/>
        <pt x="795" y="-20" on="1"/>
        <pt x="657" y="-20" on="0"/>
        <pt x="450" y="46" on="0"/>
        <pt x="299" y="161" on="0"/>
        <pt x="199" y="317" on="0"/>
        <pt x="139" y="496" on="0"/>
        <pt x="115" y="691" on="0"/>
        <pt x="115" y="788" on="1"/>
        <pt x="115" y="926" on="0"/>
        <pt x="154" y="1142" on="0"/>
        <pt x="222" y="1310" on="0"/>
        <pt x="315" y="1432" on="0"/>
        <pt x="422" y="1517" on="0"/>
        <pt x="538" y="1570" on="0"/>
        <pt x="655" y="1600" on="0"/>
        <pt x="767" y="1610" on="0"/>
        <pt x="815" y="1610" on="1"/>
        <pt x="867" y="1610" on="0"/>
        <pt x="959" y="1602" on="0"/>
        <pt x="1052" y="1584" on="0"/>
        <pt x="1154" y="1553" on="0"/>
        <pt x="1217" y="1530" on="1"/>
      </contour>
    </TTGlyph>
    <TTGlyph name="Ccedilla" xMin="115" yMin="-578" xMax="1245" yMax="1610">
      <component glyphName="C" x="0" y="0" flags="0x4"/>
      <component glyphName="cedilla" x="332" y="0" flags="0x4"/>
    </TTGlyph>
    <TTGlyph name="D" xMin="201" yMin="0" xMax="1435" yMax="1579">
      <contour>
        <pt x="776" y="1436" on="1"/>
        <pt x="395" y="1436" on="1"/>
        <pt x="395" y="143" on="1"/>
        <pt x="776" y="143" on="1"/>
        <pt x="914" y="143" on="0"/>
        <pt x="1092" y="241" on="0"/>
        <pt x="1194" y="414" on="0"/>
        <pt x="1234" y="651" on="0"/>
        <pt x="1234" y="789" on="1"/>
        <pt x="1234" y="932" on="0"/>
        <pt x="1191" y="1170" on="0"/>
        <pt x="1086" y="1341" on="0"/>
        <pt x="910" y="1436" on="0"/>
      </contour>
      <contour>
        <pt x="776" y="1579" on="1"/>
        <pt x="1435" y="1579" on="0"/>
        <pt x="1435" y="788" on="1"/>
        <pt x="1435" y="0" on="0"/>
        <pt x="776" y="0" on="1"/>
        <pt x="201" y="0" on="1"/>
        <pt x="201" y="1579" on="1"/>
      </contour>
    </TTGlyph>
    <TTGlyph name="Delta" xMin="6" yMin="540" xMax="1006" yMax="1653">
      <contour>
        <pt x="506" y="1409" on="1"/>
        <pt x="171" y="632" on="1"/>
        <pt x="841" y="632" on="1"/>
      </contour>
      <contour>
        <pt x="506" y="1653" on="1"/>
        <pt x="1006" y="540" on="1"/>
        <pt x="6" y="540" on="1"/>
      </contour>
    </TTGlyph>
    <TTGlyph name="E" xMin="201" yMin="0" xMax="1184" yMax="1579">
      <contour>
        <pt x="1184" y="0" on="1"/>
        <pt x="201" y="0" on="1"/>
        <pt x="201" y="1579" on="1"/>
        <pt x="1171" y="1579" on="1"/>
        <pt x="1171" y="1436" on="1"/>
        <pt x="395" y="1436" on="1"/>
        <pt x="395" y="891" on="1"/>
        <pt x="1073" y="891" on="1"/>
        <pt x="1073" y="776" on="1"/>
        <pt x="395" y="776" on="1"/>
        <pt x="395" y="143" on="1"/>
        <pt x="1184" y="143" on="1"/>
      </contour>
    </TTGlyph>
    <TTGlyph name="Eacute" xMin="201" yMin="0" xMax="1184" yMax="2558">
      <component glyphName="E" x="0" y="0" flags="0x4"/>
      <component glyphName="acute" x="34" y="449" flags="0x4"/>
    </TTGlyph>
    <TTGlyph name="Ecircumflex" xMin="201" yMin="0" xMax="1192" yMax="2500">
      <component glyphName="E" x="8" y="0" flags="0x4"/>
      <component glyphName="circumflex" x="173" y="449" flags="0x4"/>
    </TTGlyph>
    <TTGlyph name="Edieresis" xMin="201" yMin="0" xMax="1184" yMax="2037">
      <component glyphName="E" x="0" y="0" flags="0x4"/>
      <component glyphName="dieresis" x="109" y="449" flags="0x4"/>
    </TTGlyph>
    <TTGlyph name="Egrave" xMin="201" yMin="0" xMax="1184" yMax="2565">
      <component glyphName="E" x="0" y="0" flags="0x4"/>
      <component glyphName="grave" x="233" y="449" flags="0x4"/>
    </TTGlyph>
    <TTGlyph name="Eth" xMin="10" yMin="0" xMax="1384" yMax="1579">
      <contour>
        <pt x="725" y="1436" on="1"/>
        <pt x="366" y="1436" on="1"/>
        <pt x="366" y="143" on="1"/>
        <pt x="725" y="143" on="1"/>
        <pt x="863" y="143" on="0"/>
        <pt x="1041" y="241" on="0"/>
        <pt x="1143" y="414" on="0"/>
        <pt x="1183" y="651" on="0"/>
        <pt x="1183" y="789" on="1"/>
        <pt x="1183" y="932" on="0"/>
        <pt x="1140" y="1170" on="0"/>
        <pt x="1035" y="1341" on="0"/>
        <pt x="859" y="1436" on="0"/>
      </contour>
      <contour>
        <pt x="725" y="1579" on="1"/>
        <pt x="1062" y="1572" on="0"/>
        <pt x="1384" y="1173" on="0"/>
        <pt x="1384" y="788" on="1"/>
        <pt x="1384" y="0" on="0"/>
        <pt x="725" y="0" on="1"/>
        <pt x="172" y="0" on="1"/>
        <pt x="172" y="1579" on="1"/>
      </contour>
      <contour>
        <pt x="600" y="764" on="1"/>
        <pt x="10" y="764" on="1"/>
        <pt x="10" y="895" on="1"/>
        <pt x="600" y="895" on="1"/>
      </contour>
    </TTGlyph>
    <TTGlyph name="Euro" xMin="0" yMin="-31" xMax="900" yMax="1210">
      <contour>
        <pt x="588" y="641" on="1"/>
        <pt x="322" y="641" on="1"/>
        <pt x="321" y="629" on="0"/>
        <pt x="321" y="604" on="0"/>
        <pt x="321" y="592" on="1"/>
        <pt x="321" y="579" on="0"/>
        <pt x="321" y="555" on="0"/>
        <pt x="322" y="544" on="1"/>
        <pt x="588" y="544" on="1"/>
        <pt x="588" y="413" on="1"/>
        <pt x="339" y="413" on="1"/>
        <pt x="358" y="319" on="0"/>
        <pt x="432" y="201" on="0"/>
        <pt x="525" y="135" on="0"/>
        <pt x="627" y="111" on="0"/>
        <pt x="672" y="111" on="1"/>
        <pt x="749" y="111" on="0"/>
        <pt x="859" y="156" on="0"/>
        <pt x="900" y="195" on="1"/>
        <pt x="900" y="17" on="1"/>
        <pt x="851" y="-6" on="0"/>
        <pt x="737" y="-31" on="0"/>
        <pt x="672" y="-31" on="1"/>
        <pt x="547" y="-31" on="0"/>
        <pt x="368" y="48" on="0"/>
        <pt x="245" y="174" on="0"/>
        <pt x="172" y="333" on="0"/>
        <pt x="155" y="413" on="1"/>
        <pt x="0" y="413" on="1"/>
        <pt x="0" y="544" on="1"/>
        <pt x="136" y="544" on="1"/>
        <pt x="135" y="556" on="0"/>
        <pt x="135" y="579" on="0"/>
        <pt x="135" y="590" on="1"/>
        <pt x="135" y="603" on="0"/>
        <pt x="135" y="628" on="0"/>
        <pt x="136" y="641" on="1"/>
        <pt x="0" y="641" on="1"/>
        <pt x="0" y="772" on="1"/>
        <pt x="153" y="772" on="1"/>
        <pt x="173" y="869" on="0"/>
        <pt x="259" y="1030" on="0"/>
        <pt x="389" y="1146" on="0"/>
        <pt x="563" y="1210" on="0"/>
        <pt x="672" y="1210" on="1"/>
        <pt x="740" y="1210" on="0"/>
        <pt x="852" y="1185" on="0"/>
        <pt x="900" y="1162" on="1"/>
        <pt x="900" y="987" on="1"/>
        <pt x="859" y="1025" on="0"/>
        <pt x="749" y="1069" on="0"/>
        <pt x="672" y="1069" on="1"/>
        <pt x="595" y="1069" on="0"/>
        <pt x="481" y="1023" on="0"/>
        <pt x="401" y="942" on="0"/>
        <pt x="352" y="834" on="0"/>
        <pt x="339" y="772" on="1"/>
        <pt x="588" y="772" on="1"/>
      </contour>
    </TTGlyph>
    <TTGlyph name="F" xMin="201" yMin="0" xMax="1122" yMax="1579">
      <contour>
        <pt x="395" y="762" on="1"/>
        <pt x="395" y="0" on="1"/>
        <pt x="201" y="0" on="1"/>
        <pt x="201" y="1579" on="1"/>
        <pt x="1122" y="1579" on="1"/>
        <pt x="1122" y="1436" on="1"/>
        <pt x="395" y="1436" on="1"/>
        <pt x="395" y="879" on="1"/>
        <pt x="1061" y="879" on="1"/>
        <pt x="1061" y="762" on="1"/>
      </contour>
    </TTGlyph>
    <TTGlyph name="G" xMin="115" yMin="-20" xMax="1354" yMax="1610">
      <contour>
        <pt x="746" y="-20" on="1"/>
        <pt x="598" y="-20" on="0"/>
        <pt x="364" y="96" on="0"/>
        <pt x="201" y="308" on="0"/>
        <pt x="115" y="605" on="0"/>
        <pt x="115" y="786" on="1"/>
        <pt x="115" y="967" on="0"/>
        <pt x="181" y="1230" on="0"/>
        <pt x="291" y="1413" on="0"/>
        <pt x="435" y="1526" on="0"/>
        <pt x="589" y="1589" on="0"/>
        <pt x="743" y="1610" on="0"/>
        <pt x="809" y="1610" on="1"/>
        <pt x="896" y="1610" on="0"/>
        <pt x="1046" y="1577" on="0"/>
        <pt x="1160" y="1533" on="0"/>
        <pt x="1233" y="1490" on="0"/>
        <pt x="1245" y="1480" on="1"/>
        <pt x="1251" y="1476" on="1"/>
        <pt x="1185" y="1341" on="1"/>
        <pt x="1184" y="1341" on="0"/>
        <pt x="1133" y="1378" on="0"/>
        <pt x="1036" y="1422" on="0"/>
        <pt x="896" y="1458" on="0"/>
        <pt x="807" y="1458" on="1"/>
        <pt x="664" y="1458" on="0"/>
        <pt x="475" y="1359" on="0"/>
        <pt x="363" y="1181" on="0"/>
        <pt x="316" y="932" on="0"/>
        <pt x="316" y="782" on="1"/>
        <pt x="316" y="642" on="0"/>
        <pt x="358" y="406" on="0"/>
        <pt x="466" y="233" on="0"/>
        <pt x="650" y="134" on="0"/>
        <pt x="793" y="132" on="1"/>
        <pt x="878" y="132" on="0"/>
        <pt x="1017" y="166" on="0"/>
        <pt x="1116" y="233" on="0"/>
        <pt x="1169" y="333" on="0"/>
        <pt x="1169" y="399" on="1"/>
        <pt x="1169" y="684" on="1"/>
        <pt x="767" y="684" on="1"/>
        <pt x="767" y="811" on="1"/>
        <pt x="1354" y="811" on="1"/>
        <pt x="1354" y="0" on="1"/>
        <pt x="1266" y="0" on="1"/>
        <pt x="1213" y="213" on="1"/>
        <pt x="1196" y="149" on="0"/>
        <pt x="1107" y="60" on="0"/>
        <pt x="981" y="5" on="0"/>
        <pt x="827" y="-20" on="0"/>
      </contour>
    </TTGlyph>
    <TTGlyph name="Gbreve" xMin="115" yMin="-20" xMax="1354" yMax="2018">
      <component glyphName="G" x="0" y="0" flags="0x204"/>
      <component glyphName="breve" x="249" y="410" flags="0x4"/>
    </TTGlyph>
    <TTGlyph name="H" xMin="201" yMin="0" xMax="1421" yMax="1579">
      <contour>
        <pt x="1227" y="0" on="1"/>
        <pt x="1227" y="764" on="1"/>
        <pt x="395" y="764" on="1"/>
        <pt x="395" y="0" on="1"/>
        <pt x="201" y="0" on="1"/>
        <pt x="201" y="1579" on="1"/>
        <pt x="395" y="1579" on="1"/>
        <pt x="395" y="879" on="1"/>
        <pt x="1227" y="879" on="1"/>
        <pt x="1227" y="1579" on="1"/>
        <pt x="1421" y="1579" on="1"/>
        <pt x="1421" y="0" on="1"/>
      </contour>
    </TTGlyph>
    <TTGlyph name="I" xMin="201" yMin="0" xMax="794" yMax="1579">
      <contour>
        <pt x="201" y="112" on="1"/>
        <pt x="405" y="112" on="1"/>
        <pt x="405" y="1461" on="1"/>
        <pt x="201" y="1461" on="1"/>
        <pt x="201" y="1579" on="1"/>
        <pt x="794" y="1579" on="1"/>
        <pt x="794" y="1461" on="1"/>
        <pt x="599" y="1461" on="1"/>
        <pt x="599" y="112" on="1"/>
        <pt x="794" y="112" on="1"/>
        <pt x="794" y="0" on="1"/>
        <pt x="201" y="0" on="1"/>
      </contour>
    </TTGlyph>
    <TTGlyph name="IJ" xMin="201" yMin="-280" xMax="1409" yMax="1579">
      <component glyphName="I" x="0" y="0" flags="0x4"/>
      <component glyphName="J" x="995" y="0" flags="0x4"/>
    </TTGlyph>
    <TTGlyph name="Iacute" xMin="102" yMin="0" xMax="695" yMax="2558">
      <component glyphName="I" x="-99" y="0" flags="0x4"/>
      <component glyphName="acute" x="-168" y="449" flags="0x4"/>
    </TTGlyph>
    <TTGlyph name="Icircumflex" xMin="-8" yMin="0" xMax="695" yMax="2500">
      <component glyphName="I" x="-99" y="0" flags="0x4"/>
      <component glyphName="circumflex" x="-36" y="449" flags="0x4"/>
    </TTGlyph>
    <TTGlyph name="Idieresis" xMin="102" yMin="0" xMax="833" yMax="2037">
      <component glyphName="I" x="-99" y="0" flags="0x4"/>
      <component glyphName="dieresis" x="-92" y="449" flags="0x4"/>
    </TTGlyph>
    <TTGlyph name="Idotaccent" xMin="201" yMin="0" xMax="794" yMax="1987">
      <component glyphName="I" x="0" y="0" flags="0x204"/>
      <component glyphName="dotaccent" x="263" y="410" flags="0x4"/>
    </TTGlyph>
    <TTGlyph name="Igrave" xMin="102" yMin="0" xMax="695" yMax="2565">
      <component glyphName="I" x="-99" y="0" flags="0x4"/>
      <component glyphName="grave" x="30" y="449" flags="0x4"/>
    </TTGlyph>
    <TTGlyph name="Itilde" xMin="117" yMin="0" xMax="877" yMax="1986">
      <component glyphName="I" x="0" y="0" flags="0x204"/>
      <component glyphName="tilde" x="60" y="410" flags="0x4"/>
    </TTGlyph>
    <TTGlyph name="J" xMin="-106" yMin="-280" xMax="414" yMax="1579">
      <contour>
        <pt x="-55" y="-280" on="1"/>
        <pt x="-106" y="-155" on="1"/>
        <pt x="-27" y="-143" on="0"/>
        <pt x="81" y="-105" on="0"/>
        <pt x="151" y="-54" on="0"/>
        <pt x="190" y="8" on="0"/>
        <pt x="200" y="43" on="1"/>
        <pt x="220" y="112" on="0"/>
        <pt x="220" y="289" on="1"/>
        <pt x="220" y="1579" on="1"/>
        <pt x="414" y="1579" on="1"/>
        <pt x="414" y="324" on="1"/>
        <pt x="414" y="223" on="0"/>
        <pt x="402" y="72" on="0"/>
        <pt x="369" y="-45" on="0"/>
        <pt x="313" y="-138" on="0"/>
        <pt x="269" y="-180" on="1"/>
        <pt x="165" y="-280" on="0"/>
      </contour>
    </TTGlyph>
    <TTGlyph name="Jcircumflex" xMin="-106" yMin="-280" xMax="649" yMax="2461">
      <component glyphName="J" x="0" y="0" flags="0x204"/>
      <component glyphName="circumflex" x="-59" y="410" flags="0x4"/>
    </TTGlyph>
    <TTGlyph name="K" xMin="201" yMin="0" xMax="1368" yMax="1579">
      <contour>
        <pt x="395" y="733" on="1"/>
        <pt x="395" y="0" on="1"/>
        <pt x="201" y="0" on="1"/>
        <pt x="201" y="1579" on="1"/>
        <pt x="395" y="1579" on="1"/>
        <pt x="395" y="854" on="1"/>
        <pt x="628" y="854" on="1"/>
        <pt x="1098" y="1579" on="1"/>
        <pt x="1301" y="1579" on="1"/>
        <pt x="772" y="798" on="1"/>
        <pt x="1368" y="0" on="1"/>
        <pt x="1155" y="0" on="1"/>
        <pt x="620" y="733" on="1"/>
      </contour>
    </TTGlyph>
    <TTGlyph name="L" xMin="201" yMin="0" xMax="1141" yMax="1579">
      <contour>
        <pt x="1141" y="0" on="1"/>
        <pt x="201" y="0" on="1"/>
        <pt x="201" y="1579" on="1"/>
        <pt x="395" y="1579" on="1"/>
        <pt x="395" y="143" on="1"/>
        <pt x="1141" y="143" on="1"/>
      </contour>
    </TTGlyph>
    <TTGlyph name="Ldotaccent" xMin="201" yMin="0" xMax="1141" yMax="1579">
      <component glyphName="L" x="0" y="0" flags="0x204"/>
      <component glyphName="dotaccent" x="587" y="-624" flags="0x4"/>
    </TTGlyph>
    <TTGlyph name="Lslash" xMin="64" yMin="0" xMax="1141" yMax="1579">
      <component glyphName="L" x="0" y="0" flags="0x204"/>
      <component glyphName="endash" x="64" y="0" flags="0x4"/>
    </TTGlyph>
    <TTGlyph name="M" xMin="201" yMin="0" xMax="1768" yMax="1579">
      <contour>
        <pt x="886" y="100" on="1"/>
        <pt x="383" y="1459" on="1"/>
        <pt x="373" y="0" on="1"/>
        <pt x="201" y="0" on="1"/>
        <pt x="218" y="1579" on="1"/>
        <pt x="509" y="1579" on="1"/>
        <pt x="984" y="248" on="1"/>
        <pt x="1459" y="1579" on="1"/>
        <pt x="1750" y="1579" on="1"/>
        <pt x="1768" y="0" on="1"/>
        <pt x="1595" y="0" on="1"/>
        <pt x="1585" y="1459" on="1"/>
        <pt x="1082" y="100" on="1"/>
      </contour>
    </TTGlyph>
    <TTGlyph name="N" xMin="201" yMin="0" xMax="1454" yMax="1579">
      <contour>
        <pt x="1282" y="175" on="1"/>
        <pt x="1282" y="1579" on="1"/>
        <pt x="1454" y="1579" on="1"/>
        <pt x="1454" y="0" on="1"/>
        <pt x="1202" y="0" on="1"/>
        <pt x="373" y="1404" on="1"/>
        <pt x="373" y="0" on="1"/>
        <pt x="201" y="0" on="1"/>
        <pt x="201" y="1579" on="1"/>
        <pt x="453" y="1579" on="1"/>
      </contour>
    </TTGlyph>
    <TTGlyph name="Nacute" xMin="201" yMin="0" xMax="1454" yMax="2519">
      <component glyphName="N" x="0" y="0" flags="0x204"/>
      <component glyphName="acute" x="261" y="410" flags="0x4"/>
    </TTGlyph>
    <TTGlyph name="NameMe.209" xMin="88" yMin="-38" xMax="1098" yMax="1439">
      <contour>
        <pt x="793" y="1439" on="1"/>
        <pt x="847" y="1439" on="0"/>
        <pt x="941" y="1426" on="0"/>
        <pt x="1016" y="1409" on="0"/>
        <pt x="1070" y="1390" on="0"/>
        <pt x="1084" y="1383" on="1"/>
        <pt x="1098" y="1376" on="1"/>
        <pt x="1055" y="1254" on="1"/>
        <pt x="1017" y="1269" on="1"/>
        <pt x="1007" y="1273" on="0"/>
        <pt x="957" y="1286" on="0"/>
        <pt x="892" y="1299" on="0"/>
        <pt x="820" y="1308" on="0"/>
        <pt x="790" y="1308" on="1"/>
        <pt x="627" y="1308" on="0"/>
        <pt x="454" y="1115" on="0"/>
        <pt x="454" y="931" on="1"/>
        <pt x="848" y="931" on="1"/>
        <pt x="848" y="809" on="1"/>
        <pt x="443" y="809" on="1"/>
        <pt x="441" y="795" on="0"/>
        <pt x="439" y="739" on="0"/>
        <pt x="438" y="696" on="1"/>
        <pt x="791" y="696" on="1"/>
        <pt x="791" y="574" on="1"/>
        <pt x="437" y="574" on="1"/>
        <pt x="437" y="435" on="0"/>
        <pt x="496" y="253" on="0"/>
        <pt x="588" y="147" on="0"/>
        <pt x="701" y="103" on="0"/>
        <pt x="756" y="102" on="1"/>
        <pt x="815" y="102" on="0"/>
        <pt x="920" y="126" on="0"/>
        <pt x="997" y="154" on="0"/>
        <pt x="1042" y="178" on="0"/>
        <pt x="1041" y="178" on="1"/>
        <pt x="1093" y="55" on="1"/>
        <pt x="1092" y="54" on="0"/>
        <pt x="1045" y="25" on="0"/>
        <pt x="953" y="-10" on="0"/>
        <pt x="815" y="-38" on="0"/>
        <pt x="723" y="-38" on="1"/>
        <pt x="643" y="-38" on="0"/>
        <pt x="485" y="37" on="0"/>
        <pt x="357" y="190" on="0"/>
        <pt x="274" y="419" on="0"/>
        <pt x="268" y="574" on="1"/>
        <pt x="104" y="574" on="1"/>
        <pt x="104" y="696" on="1"/>
        <pt x="264" y="696" on="1"/>
        <pt x="265" y="739" on="0"/>
        <pt x="267" y="795" on="0"/>
        <pt x="268" y="809" on="1"/>
        <pt x="88" y="809" on="1"/>
        <pt x="88" y="931" on="1"/>
        <pt x="292" y="931" on="1"/>
        <pt x="299" y="1045" on="0"/>
        <pt x="366" y="1233" on="0"/>
        <pt x="490" y="1366" on="0"/>
        <pt x="672" y="1439" on="0"/>
      </contour>
    </TTGlyph>
    <TTGlyph name="Ntilde" xMin="201" yMin="0" xMax="1454" yMax="2025">
      <component glyphName="N" x="0" y="0" flags="0x4"/>
      <component glyphName="tilde" x="333" y="449" flags="0x4"/>
    </TTGlyph>
    <TTGlyph name="O" xMin="115" yMin="-20" xMax="1435" yMax="1610">
      <contour>
        <pt x="315" y="795" on="1"/>
        <pt x="315" y="661" on="0"/>
        <pt x="351" y="459" on="0"/>
        <pt x="415" y="311" on="0"/>
        <pt x="502" y="214" on="0"/>
        <pt x="605" y="156" on="0"/>
        <pt x="718" y="132" on="0"/>
        <pt x="775" y="132" on="1"/>
        <pt x="832" y="132" on="0"/>
        <pt x="945" y="156" on="0"/>
        <pt x="1048" y="214" on="0"/>
        <pt x="1135" y="311" on="0"/>
        <pt x="1199" y="459" on="0"/>
        <pt x="1235" y="661" on="0"/>
        <pt x="1235" y="795" on="1"/>
        <pt x="1235" y="930" on="0"/>
        <pt x="1199" y="1133" on="0"/>
        <pt x="1135" y="1280" on="0"/>
        <pt x="1048" y="1377" on="0"/>
        <pt x="945" y="1435" on="0"/>
        <pt x="833" y="1458" on="0"/>
        <pt x="775" y="1458" on="1"/>
        <pt x="717" y="1458" on="0"/>
        <pt x="605" y="1435" on="0"/>
        <pt x="502" y="1377" on="0"/>
        <pt x="415" y="1280" on="0"/>
        <pt x="351" y="1133" on="0"/>
        <pt x="315" y="930" on="0"/>
      </contour>
      <contour>
        <pt x="775" y="-20" on="1"/>
        <pt x="712" y="-20" on="0"/>
        <pt x="566" y="1" on="0"/>
        <pt x="419" y="63" on="0"/>
        <pt x="283" y="175" on="0"/>
        <pt x="178" y="356" on="0"/>
        <pt x="115" y="616" on="0"/>
        <pt x="115" y="795" on="1"/>
        <pt x="115" y="974" on="0"/>
        <pt x="178" y="1234" on="0"/>
        <pt x="283" y="1415" on="0"/>
        <pt x="419" y="1527" on="0"/>
        <pt x="566" y="1589" on="0"/>
        <pt x="712" y="1610" on="0"/>
        <pt x="775" y="1610" on="1"/>
        <pt x="838" y="1610" on="0"/>
        <pt x="984" y="1589" on="0"/>
        <pt x="1131" y="1527" on="0"/>
        <pt x="1267" y="1415" on="0"/>
        <pt x="1372" y="1234" on="0"/>
        <pt x="1435" y="974" on="0"/>
        <pt x="1435" y="795" on="1"/>
        <pt x="1435" y="616" on="0"/>
        <pt x="1372" y="356" on="0"/>
        <pt x="1267" y="175" on="0"/>
        <pt x="1131" y="63" on="0"/>
        <pt x="984" y="1" on="0"/>
        <pt x="838" y="-20" on="0"/>
      </contour>
    </TTGlyph>
    <TTGlyph name="OE" xMin="124" yMin="-41" xMax="2217" yMax="1610">
      <contour>
        <pt x="2217" y="0" on="1"/>
        <pt x="1234" y="0" on="1"/>
        <pt x="1234" y="128" on="1"/>
        <pt x="1156" y="47" on="0"/>
        <pt x="933" y="-41" on="0"/>
        <pt x="778" y="-41" on="1"/>
        <pt x="714" y="-41" on="0"/>
        <pt x="568" y="-20" on="0"/>
        <pt x="422" y="42" on="0"/>
        <pt x="288" y="155" on="0"/>
        <pt x="185" y="338" on="0"/>
        <pt x="124" y="602" on="0"/>
        <pt x="124" y="784" on="1"/>
        <pt x="124" y="963" on="0"/>
        <pt x="185" y="1225" on="0"/>
        <pt x="287" y="1408" on="0"/>
        <pt x="419" y="1523" on="0"/>
        <pt x="561" y="1587" on="0"/>
        <pt x="703" y="1610" on="0"/>
        <pt x="764" y="1610" on="1"/>
        <pt x="925" y="1610" on="0"/>
        <pt x="1155" y="1531" on="0"/>
        <pt x="1234" y="1459" on="1"/>
        <pt x="1234" y="1579" on="1"/>
        <pt x="2204" y="1579" on="1"/>
        <pt x="2204" y="1436" on="1"/>
        <pt x="1428" y="1436" on="1"/>
        <pt x="1428" y="891" on="1"/>
        <pt x="2106" y="891" on="1"/>
        <pt x="2106" y="776" on="1"/>
        <pt x="1428" y="776" on="1"/>
        <pt x="1428" y="143" on="1"/>
        <pt x="2217" y="143" on="1"/>
      </contour>
      <contour>
        <pt x="780" y="1458" on="1"/>
        <pt x="644" y="1458" on="0"/>
        <pt x="467" y="1352" on="0"/>
        <pt x="364" y="1169" on="0"/>
        <pt x="324" y="923" on="0"/>
        <pt x="324" y="784" on="1"/>
        <pt x="324" y="597" on="0"/>
        <pt x="389" y="340" on="0"/>
        <pt x="510" y="181" on="0"/>
        <pt x="682" y="111" on="0"/>
        <pt x="789" y="111" on="1"/>
        <pt x="904" y="111" on="0"/>
        <pt x="1072" y="162" on="0"/>
        <pt x="1127" y="194" on="1"/>
        <pt x="1191" y="230" on="0"/>
        <pt x="1234" y="277" on="1"/>
        <pt x="1234" y="1301" on="1"/>
        <pt x="1194" y="1345" on="0"/>
        <pt x="1131" y="1379" on="1"/>
        <pt x="1104" y="1394" on="0"/>
        <pt x="1034" y="1422" on="0"/>
        <pt x="947" y="1444" on="0"/>
        <pt x="842" y="1458" on="0"/>
      </contour>
    </TTGlyph>
    <TTGlyph name="Oacute" xMin="115" yMin="-20" xMax="1435" yMax="2558">
      <component glyphName="O" x="0" y="0" flags="0x4"/>
      <component glyphName="acute" x="212" y="449" flags="0x4"/>
    </TTGlyph>
    <TTGlyph name="Ocircumflex" xMin="115" yMin="-20" xMax="1435" yMax="2500">
      <component glyphName="O" x="0" y="0" flags="0x4"/>
      <component glyphName="circumflex" x="344" y="449" flags="0x4"/>
    </TTGlyph>
    <TTGlyph name="Odieresis" xMin="115" yMin="-20" xMax="1435" yMax="2037">
      <component glyphName="O" x="0" y="0" flags="0x4"/>
      <component glyphName="dieresis" x="288" y="449" flags="0x4"/>
    </TTGlyph>
    <TTGlyph name="Ograve" xMin="115" yMin="-20" xMax="1435" yMax="2565">
      <component glyphName="O" x="0" y="0" flags="0x4"/>
      <component glyphName="grave" x="411" y="449" flags="0x4"/>
    </TTGlyph>
    <TTGlyph name="Omega" xMin="78" yMin="0" xMax="1487" yMax="1511">
      <contour>
        <pt x="1487" y="178" on="1"/>
        <pt x="1487" y="0" on="1"/>
        <pt x="887" y="0" on="1"/>
        <pt x="887" y="178" on="1"/>
        <pt x="1064" y="275" on="0"/>
        <pt x="1262" y="607" on="0"/>
        <pt x="1262" y="809" on="1"/>
        <pt x="1262" y="1049" on="0"/>
        <pt x="998" y="1339" on="0"/>
        <pt x="782" y="1339" on="1"/>
        <pt x="566" y="1339" on="0"/>
        <pt x="301" y="1048" on="0"/>
        <pt x="301" y="809" on="1"/>
        <pt x="301" y="607" on="0"/>
        <pt x="500" y="275" on="0"/>
        <pt x="678" y="178" on="1"/>
        <pt x="678" y="0" on="1"/>
        <pt x="78" y="0" on="1"/>
        <pt x="78" y="178" on="1"/>
        <pt x="397" y="178" on="1"/>
        <pt x="239" y="317" on="0"/>
        <pt x="94" y="615" on="0"/>
        <pt x="94" y="799" on="1"/>
        <pt x="94" y="1117" on="0"/>
        <pt x="477" y="1511" on="0"/>
        <pt x="782" y="1511" on="1"/>
        <pt x="1085" y="1511" on="0"/>
        <pt x="1470" y="1118" on="0"/>
        <pt x="1470" y="809" on="1"/>
        <pt x="1470" y="615" on="0"/>
        <pt x="1328" y="319" on="0"/>
        <pt x="1167" y="178" on="1"/>
      </contour>
    </TTGlyph>
    <TTGlyph name="Oslash" xMin="102" yMin="-159" xMax="1413" yMax="1710">
      <contour>
        <pt x="328" y="-113" on="1"/>
        <pt x="1153" y="1710" on="1"/>
        <pt x="1254" y="1668" on="1"/>
        <pt x="429" y="-159" on="1"/>
      </contour>
      <contour>
        <pt x="1413" y="784" on="1"/>
        <pt x="1413" y="667" on="0"/>
        <pt x="1383" y="455" on="0"/>
        <pt x="1318" y="271" on="0"/>
        <pt x="1215" y="122" on="0"/>
        <pt x="1069" y="16" on="0"/>
        <pt x="878" y="-41" on="0"/>
        <pt x="757" y="-41" on="1"/>
        <pt x="695" y="-41" on="0"/>
        <pt x="550" y="-21" on="0"/>
        <pt x="405" y="40" on="0"/>
        <pt x="269" y="152" on="0"/>
        <pt x="165" y="335" on="0"/>
        <pt x="102" y="600" on="0"/>
        <pt x="102" y="784" on="1"/>
        <pt x="102" y="965" on="0"/>
        <pt x="165" y="1228" on="0"/>
        <pt x="268" y="1412" on="0"/>
        <pt x="402" y="1525" on="0"/>
        <pt x="544" y="1588" on="0"/>
        <pt x="685" y="1610" on="0"/>
        <pt x="743" y="1610" on="1"/>
        <pt x="867" y="1610" on="0"/>
        <pt x="1062" y="1554" on="0"/>
        <pt x="1211" y="1449" on="0"/>
        <pt x="1316" y="1301" on="0"/>
        <pt x="1382" y="1117" on="0"/>
        <pt x="1413" y="903" on="0"/>
      </contour>
      <contour>
        <pt x="1212" y="784" on="1"/>
        <pt x="1212" y="972" on="0"/>
        <pt x="1149" y="1230" on="0"/>
        <pt x="1031" y="1389" on="0"/>
        <pt x="863" y="1458" on="0"/>
        <pt x="758" y="1458" on="1"/>
        <pt x="668" y="1458" on="0"/>
        <pt x="530" y="1410" on="0"/>
        <pt x="429" y="1323" on="0"/>
        <pt x="361" y="1201" on="0"/>
        <pt x="320" y="1051" on="0"/>
        <pt x="303" y="878" on="0"/>
        <pt x="303" y="784" on="1"/>
        <pt x="303" y="600" on="0"/>
        <pt x="366" y="344" on="0"/>
        <pt x="485" y="183" on="0"/>
        <pt x="653" y="111" on="0"/>
        <pt x="758" y="111" on="1"/>
        <pt x="851" y="111" on="0"/>
        <pt x="991" y="162" on="0"/>
        <pt x="1091" y="254" on="0"/>
        <pt x="1158" y="380" on="0"/>
        <pt x="1196" y="529" on="0"/>
        <pt x="1212" y="697" on="0"/>
      </contour>
    </TTGlyph>
    <TTGlyph name="Otilde" xMin="115" yMin="-20" xMax="1435" yMax="2025">
      <component glyphName="O" x="0" y="0" flags="0x4"/>
      <component glyphName="tilde" x="342" y="449" flags="0x4"/>
    </TTGlyph>
    <TTGlyph name="P" xMin="201" yMin="0" xMax="1298" yMax="1579">
      <contour>
        <pt x="565" y="784" on="1"/>
        <pt x="736" y="784" on="0"/>
        <pt x="951" y="827" on="0"/>
        <pt x="1072" y="905" on="0"/>
        <pt x="1116" y="1016" on="0"/>
        <pt x="1116" y="1084" on="1"/>
        <pt x="1116" y="1137" on="0"/>
        <pt x="1107" y="1231" on="0"/>
        <pt x="1075" y="1309" on="0"/>
        <pt x="1010" y="1371" on="0"/>
        <pt x="897" y="1413" on="0"/>
        <pt x="729" y="1436" on="0"/>
        <pt x="610" y="1436" on="1"/>
        <pt x="395" y="1436" on="1"/>
        <pt x="395" y="784" on="1"/>
      </contour>
      <contour>
        <pt x="1298" y="1108" on="1"/>
        <pt x="1298" y="998" on="0"/>
        <pt x="1226" y="825" on="0"/>
        <pt x="1057" y="703" on="0"/>
        <pt x="775" y="639" on="0"/>
        <pt x="565" y="639" on="1"/>
        <pt x="395" y="639" on="1"/>
        <pt x="395" y="0" on="1"/>
        <pt x="201" y="0" on="1"/>
        <pt x="201" y="1579" on="1"/>
        <pt x="598" y="1579" on="1"/>
        <pt x="801" y="1579" on="0"/>
        <pt x="1071" y="1520" on="0"/>
        <pt x="1232" y="1402" on="0"/>
        <pt x="1298" y="1226" on="0"/>
      </contour>
    </TTGlyph>
    <TTGlyph name="Q" xMin="115" yMin="-443" xMax="1435" yMax="1610">
      <contour>
        <pt x="672" y="-64" on="1"/>
        <pt x="672" y="-52" on="0"/>
        <pt x="672" y="-31" on="0"/>
        <pt x="673" y="-21" on="1"/>
        <pt x="611" y="-14" on="0"/>
        <pt x="481" y="26" on="0"/>
        <pt x="357" y="102" on="0"/>
        <pt x="246" y="222" on="0"/>
        <pt x="164" y="398" on="0"/>
        <pt x="115" y="636" on="0"/>
        <pt x="115" y="792" on="1"/>
        <pt x="115" y="971" on="0"/>
        <pt x="178" y="1231" on="0"/>
        <pt x="283" y="1413" on="0"/>
        <pt x="419" y="1526" on="0"/>
        <pt x="566" y="1588" on="0"/>
        <pt x="712" y="1610" on="0"/>
        <pt x="775" y="1610" on="1"/>
        <pt x="838" y="1610" on="0"/>
        <pt x="984" y="1588" on="0"/>
        <pt x="1131" y="1526" on="0"/>
        <pt x="1267" y="1413" on="0"/>
        <pt x="1372" y="1231" on="0"/>
        <pt x="1435" y="971" on="0"/>
        <pt x="1435" y="792" on="1"/>
        <pt x="1435" y="634" on="0"/>
        <pt x="1386" y="395" on="0"/>
        <pt x="1301" y="219" on="0"/>
        <pt x="1189" y="99" on="0"/>
        <pt x="1063" y="24" on="0"/>
        <pt x="932" y="-14" on="0"/>
        <pt x="870" y="-21" on="1"/>
        <pt x="905" y="-48" on="1"/>
        <pt x="1284" y="-312" on="1"/>
        <pt x="1165" y="-443" on="1"/>
      </contour>
      <contour>
        <pt x="775" y="1458" on="1"/>
        <pt x="680" y="1458" on="0"/>
        <pt x="538" y="1411" on="0"/>
        <pt x="436" y="1325" on="0"/>
        <pt x="369" y="1204" on="0"/>
        <pt x="330" y="1056" on="0"/>
        <pt x="315" y="885" on="0"/>
        <pt x="315" y="792" on="1"/>
        <pt x="315" y="699" on="0"/>
        <pt x="330" y="528" on="0"/>
        <pt x="369" y="380" on="0"/>
        <pt x="436" y="258" on="0"/>
        <pt x="538" y="172" on="0"/>
        <pt x="680" y="125" on="0"/>
        <pt x="775" y="125" on="1"/>
        <pt x="917" y="125" on="0"/>
        <pt x="1097" y="229" on="0"/>
        <pt x="1198" y="409" on="0"/>
        <pt x="1235" y="652" on="0"/>
        <pt x="1235" y="792" on="1"/>
        <pt x="1235" y="885" on="0"/>
        <pt x="1220" y="1056" on="0"/>
        <pt x="1181" y="1204" on="0"/>
        <pt x="1114" y="1325" on="0"/>
        <pt x="1012" y="1411" on="0"/>
        <pt x="870" y="1458" on="0"/>
      </contour>
    </TTGlyph>
    <TTGlyph name="R" xMin="201" yMin="0" xMax="1294" yMax="1579">
      <contour>
        <pt x="881" y="797" on="1"/>
        <pt x="978" y="786" on="0"/>
        <pt x="1131" y="733" on="0"/>
        <pt x="1237" y="638" on="0"/>
        <pt x="1292" y="497" on="0"/>
        <pt x="1292" y="397" on="1"/>
        <pt x="1292" y="0" on="1"/>
        <pt x="1110" y="0" on="1"/>
        <pt x="1110" y="412" on="1"/>
        <pt x="1110" y="494" on="0"/>
        <pt x="1064" y="614" on="0"/>
        <pt x="944" y="694" on="0"/>
        <pt x="737" y="733" on="0"/>
        <pt x="575" y="733" on="1"/>
        <pt x="395" y="733" on="1"/>
        <pt x="395" y="0" on="1"/>
        <pt x="201" y="0" on="1"/>
        <pt x="201" y="1579" on="1"/>
        <pt x="647" y="1579" on="1"/>
        <pt x="725" y="1579" on="0"/>
        <pt x="882" y="1572" on="0"/>
        <pt x="1025" y="1545" on="0"/>
        <pt x="1150" y="1492" on="0"/>
        <pt x="1241" y="1399" on="0"/>
        <pt x="1294" y="1259" on="0"/>
        <pt x="1294" y="1160" on="1"/>
        <pt x="1294" y="1081" on="0"/>
        <pt x="1235" y="948" on="0"/>
        <pt x="1126" y="851" on="0"/>
        <pt x="974" y="797" on="0"/>
      </contour>
      <contour>
        <pt x="549" y="862" on="1"/>
        <pt x="636" y="862" on="1"/>
        <pt x="723" y="865" on="1"/>
        <pt x="813" y="870" on="0"/>
        <pt x="958" y="903" on="0"/>
        <pt x="1061" y="970" on="0"/>
        <pt x="1120" y="1079" on="0"/>
        <pt x="1124" y="1160" on="1"/>
        <pt x="1121" y="1249" on="0"/>
        <pt x="1072" y="1358" on="0"/>
        <pt x="963" y="1417" on="0"/>
        <pt x="782" y="1436" on="0"/>
        <pt x="647" y="1436" on="1"/>
        <pt x="395" y="1436" on="1"/>
        <pt x="395" y="862" on="1"/>
      </contour>
    </TTGlyph>
    <TTGlyph name="Racute" xMin="201" yMin="0" xMax="1294" yMax="2519">
      <component glyphName="R" x="0" y="0" flags="0x204"/>
      <component glyphName="acute" x="110" y="410" flags="0x4"/>
    </TTGlyph>
    <TTGlyph name="Rcaron" xMin="201" yMin="0" xMax="1294" yMax="2461">
      <component glyphName="R" x="0" y="0" flags="0x204"/>
      <component glyphName="caron" x="308" y="410" flags="0x4"/>
    </TTGlyph>
    <TTGlyph name="Rcommaaccent" xMin="201" yMin="0" xMax="1294" yMax="1579">
      <component glyphName="R" x="0" y="0" flags="0x204"/>
    </TTGlyph>
    <TTGlyph name="S" xMin="135" yMin="-20" xMax="1229" yMax="1610">
      <contour>
        <pt x="204" y="82" on="1"/>
        <pt x="224" y="242" on="1"/>
        <pt x="265" y="221" on="0"/>
        <pt x="349" y="181" on="0"/>
        <pt x="447" y="150" on="0"/>
        <pt x="567" y="132" on="0"/>
        <pt x="644" y="132" on="1"/>
        <pt x="736" y="132" on="0"/>
        <pt x="884" y="159" on="0"/>
        <pt x="989" y="225" on="0"/>
        <pt x="1045" y="334" on="0"/>
        <pt x="1045" y="416" on="1"/>
        <pt x="1045" y="477" on="0"/>
        <pt x="1009" y="566" on="0"/>
        <pt x="941" y="634" on="0"/>
        <pt x="844" y="684" on="0"/>
        <pt x="784" y="705" on="1"/>
        <pt x="493" y="807" on="1"/>
        <pt x="391" y="843" on="0"/>
        <pt x="253" y="932" on="0"/>
        <pt x="170" y="1036" on="0"/>
        <pt x="135" y="1153" on="0"/>
        <pt x="135" y="1217" on="1"/>
        <pt x="135" y="1297" on="0"/>
        <pt x="184" y="1417" on="0"/>
        <pt x="266" y="1505" on="0"/>
        <pt x="373" y="1562" on="0"/>
        <pt x="489" y="1596" on="0"/>
        <pt x="604" y="1610" on="0"/>
        <pt x="654" y="1610" on="1"/>
        <pt x="912" y="1610" on="0"/>
        <pt x="1127" y="1484" on="1"/>
        <pt x="1097" y="1337" on="1"/>
        <pt x="1064" y="1358" on="0"/>
        <pt x="973" y="1401" on="0"/>
        <pt x="867" y="1436" on="0"/>
        <pt x="752" y="1458" on="0"/>
        <pt x="696" y="1458" on="1"/>
        <pt x="584" y="1458" on="0"/>
        <pt x="438" y="1422" on="0"/>
        <pt x="352" y="1356" on="0"/>
        <pt x="318" y="1264" on="0"/>
        <pt x="318" y="1208" on="1"/>
        <pt x="318" y="1162" on="0"/>
        <pt x="344" y="1093" on="0"/>
        <pt x="401" y="1039" on="0"/>
        <pt x="493" y="995" on="0"/>
        <pt x="558" y="974" on="1"/>
        <pt x="841" y="882" on="1"/>
        <pt x="922" y="856" on="0"/>
        <pt x="1063" y="783" on="0"/>
        <pt x="1168" y="675" on="0"/>
        <pt x="1229" y="527" on="0"/>
        <pt x="1229" y="426" on="1"/>
        <pt x="1229" y="381" on="0"/>
        <pt x="1211" y="280" on="0"/>
        <pt x="1164" y="181" on="0"/>
        <pt x="1083" y="90" on="0"/>
        <pt x="958" y="21" on="0"/>
        <pt x="783" y="-20" on="0"/>
        <pt x="666" y="-20" on="1"/>
        <pt x="601" y="-20" on="0"/>
        <pt x="469" y="-4" on="0"/>
        <pt x="347" y="24" on="0"/>
        <pt x="241" y="61" on="0"/>
      </contour>
    </TTGlyph>
    <TTGlyph name="Scaron" xMin="135" yMin="-20" xMax="1229" yMax="2461">
      <component glyphName="S" x="0" y="0" flags="0x204"/>
      <component glyphName="caron" x="303" y="410" flags="0x4"/>
    </TTGlyph>
    <TTGlyph name="Scedilla" xMin="135" yMin="-578" xMax="1229" yMax="1610">
      <component glyphName="S" x="0" y="0" flags="0x204"/>
      <component glyphName="cedilla" x="332" y="0" flags="0x4"/>
    </TTGlyph>
    <TTGlyph name="T" xMin="-6" yMin="0" xMax="1102" yMax="1579">
      <contour>
        <pt x="1102" y="1436" on="1"/>
        <pt x="646" y="1436" on="1"/>
        <pt x="646" y="0" on="1"/>
        <pt x="452" y="0" on="1"/>
        <pt x="452" y="1436" on="1"/>
        <pt x="-6" y="1436" on="1"/>
        <pt x="-6" y="1579" on="1"/>
        <pt x="1102" y="1579" on="1"/>
      </contour>
    </TTGlyph>
    <TTGlyph name="Thorn" xMin="201" yMin="0" xMax="1290" yMax="1579">
      <contour>
        <pt x="1290" y="973" on="1"/>
        <pt x="1290" y="868" on="0"/>
        <pt x="1222" y="695" on="0"/>
        <pt x="1055" y="572" on="0"/>
        <pt x="772" y="504" on="0"/>
        <pt x="557" y="504" on="1"/>
        <pt x="395" y="504" on="1"/>
        <pt x="395" y="0" on="1"/>
        <pt x="201" y="0" on="1"/>
        <pt x="201" y="1579" on="1"/>
        <pt x="395" y="1579" on="1"/>
        <pt x="395" y="1444" on="1"/>
        <pt x="592" y="1444" on="1"/>
        <pt x="735" y="1444" on="0"/>
        <pt x="949" y="1415" on="0"/>
        <pt x="1104" y="1359" on="0"/>
        <pt x="1206" y="1277" on="0"/>
        <pt x="1266" y="1173" on="0"/>
        <pt x="1290" y="1046" on="0"/>
      </contour>
      <contour>
        <pt x="557" y="649" on="1"/>
        <pt x="678" y="649" on="0"/>
        <pt x="853" y="671" on="0"/>
        <pt x="976" y="711" on="0"/>
        <pt x="1052" y="767" on="0"/>
        <pt x="1093" y="836" on="0"/>
        <pt x="1108" y="915" on="0"/>
        <pt x="1108" y="959" on="1"/>
        <pt x="1108" y="1054" on="0"/>
        <pt x="1068" y="1183" on="0"/>
        <pt x="957" y="1262" on="0"/>
        <pt x="761" y="1298" on="0"/>
        <pt x="604" y="1300" on="1"/>
        <pt x="395" y="1300" on="1"/>
        <pt x="395" y="649" on="1"/>
      </contour>
    </TTGlyph>
    <TTGlyph name="U" xMin="178" yMin="-20" xMax="1430" yMax="1579">
      <contour>
        <pt x="804" y="-20" on="1"/>
        <pt x="636" y="-20" on="0"/>
        <pt x="398" y="79" on="0"/>
        <pt x="247" y="271" on="0"/>
        <pt x="178" y="553" on="0"/>
        <pt x="178" y="736" on="1"/>
        <pt x="178" y="1579" on="1"/>
        <pt x="372" y="1579" on="1"/>
        <pt x="372" y="732" on="1"/>
        <pt x="372" y="602" on="0"/>
        <pt x="403" y="412" on="0"/>
        <pt x="458" y="279" on="0"/>
        <pt x="537" y="195" on="0"/>
        <pt x="633" y="149" on="0"/>
        <pt x="744" y="132" on="0"/>
        <pt x="804" y="132" on="1"/>
        <pt x="864" y="132" on="0"/>
        <pt x="975" y="149" on="0"/>
        <pt x="1071" y="195" on="0"/>
        <pt x="1150" y="279" on="0"/>
        <pt x="1205" y="412" on="0"/>
        <pt x="1236" y="602" on="0"/>
        <pt x="1236" y="732" on="1"/>
        <pt x="1236" y="1579" on="1"/>
        <pt x="1430" y="1579" on="1"/>
        <pt x="1430" y="736" on="1"/>
        <pt x="1430" y="553" on="0"/>
        <pt x="1361" y="271" on="0"/>
        <pt x="1210" y="79" on="0"/>
        <pt x="972" y="-20" on="0"/>
      </contour>
    </TTGlyph>
    <TTGlyph name="Uacute" xMin="178" yMin="-20" xMax="1430" yMax="2558">
      <component glyphName="U" x="0" y="0" flags="0x4"/>
      <component glyphName="acute" x="196" y="449" flags="0x4"/>
    </TTGlyph>
    <TTGlyph name="Ucircumflex" xMin="178" yMin="-20" xMax="1430" yMax="2500">
      <component glyphName="U" x="0" y="0" flags="0x4"/>
      <component glyphName="circumflex" x="328" y="449" flags="0x4"/>
    </TTGlyph>
    <TTGlyph name="Udieresis" xMin="178" yMin="-20" xMax="1430" yMax="2037">
      <component glyphName="U" x="0" y="0" flags="0x4"/>
      <component glyphName="dieresis" x="272" y="449" flags="0x4"/>
    </TTGlyph>
    <TTGlyph name="Ugrave" xMin="178" yMin="-20" xMax="1430" yMax="2565">
      <component glyphName="U" x="0" y="0" flags="0x4"/>
      <component glyphName="grave" x="395" y="449" flags="0x4"/>
    </TTGlyph>
    <TTGlyph name="Utilde" xMin="123" yMin="-41" xMax="1379" yMax="1996">
      <contour>
        <pt x="749" y="-41" on="1"/>
        <pt x="581" y="-41" on="0"/>
        <pt x="343" y="58" on="0"/>
        <pt x="192" y="250" on="0"/>
        <pt x="123" y="532" on="0"/>
        <pt x="123" y="715" on="1"/>
        <pt x="123" y="1579" on="1"/>
        <pt x="315" y="1579" on="1"/>
        <pt x="315" y="711" on="1"/>
        <pt x="315" y="575" on="0"/>
        <pt x="346" y="378" on="0"/>
        <pt x="402" y="242" on="0"/>
        <pt x="481" y="160" on="0"/>
        <pt x="578" y="115" on="0"/>
        <pt x="689" y="100" on="0"/>
        <pt x="749" y="100" on="1"/>
        <pt x="817" y="100" on="0"/>
        <pt x="935" y="120" on="0"/>
        <pt x="1032" y="170" on="0"/>
        <pt x="1106" y="258" on="0"/>
        <pt x="1157" y="394" on="0"/>
        <pt x="1183" y="584" on="0"/>
        <pt x="1183" y="711" on="1"/>
        <pt x="1183" y="1579" on="1"/>
        <pt x="1379" y="1579" on="1"/>
        <pt x="1379" y="715" on="1"/>
        <pt x="1379" y="555" on="0"/>
        <pt x="1323" y="280" on="0"/>
        <pt x="1181" y="77" on="0"/>
        <pt x="937" y="-39" on="0"/>
      </contour>
      <contour>
        <pt x="904" y="1732" on="1"/>
        <pt x="848" y="1732" on="0"/>
        <pt x="744" y="1769" on="0"/>
        <pt x="654" y="1814" on="0"/>
        <pt x="578" y="1851" on="0"/>
        <pt x="551" y="1851" on="1"/>
        <pt x="522" y="1851" on="0"/>
        <pt x="492" y="1802" on="0"/>
        <pt x="492" y="1736" on="1"/>
        <pt x="336" y="1736" on="1"/>
        <pt x="336" y="1996" on="0"/>
        <pt x="537" y="1996" on="1"/>
        <pt x="593" y="1996" on="0"/>
        <pt x="686" y="1957" on="0"/>
        <pt x="769" y="1910" on="0"/>
        <pt x="843" y="1871" on="0"/>
        <pt x="881" y="1871" on="1"/>
        <pt x="940" y="1871" on="0"/>
        <pt x="940" y="1982" on="1"/>
        <pt x="1096" y="1982" on="1"/>
        <pt x="1096" y="1925" on="0"/>
        <pt x="1069" y="1833" on="0"/>
        <pt x="1019" y="1768" on="0"/>
        <pt x="948" y="1732" on="0"/>
      </contour>
    </TTGlyph>
    <TTGlyph name="V" xMin="16" yMin="0" xMax="1250" yMax="1579">
      <contour>
        <pt x="512" y="0" on="1"/>
        <pt x="16" y="1579" on="1"/>
        <pt x="200" y="1579" on="1"/>
        <pt x="634" y="180" on="1"/>
        <pt x="1068" y="1579" on="1"/>
        <pt x="1250" y="1579" on="1"/>
        <pt x="756" y="0" on="1"/>
      </contour>
    </TTGlyph>
    <TTGlyph name="W" xMin="68" yMin="0" xMax="1911" yMax="1579">
      <contour>
        <pt x="1126" y="1489" on="1"/>
        <pt x="1420" y="135" on="1"/>
        <pt x="1730" y="1579" on="1"/>
        <pt x="1911" y="1579" on="1"/>
        <pt x="1575" y="0" on="1"/>
        <pt x="1288" y="0" on="1"/>
        <pt x="1052" y="1067" on="1"/>
        <pt x="989" y="1373" on="1"/>
        <pt x="925" y="1067" on="1"/>
        <pt x="690" y="0" on="1"/>
        <pt x="404" y="0" on="1"/>
        <pt x="68" y="1579" on="1"/>
        <pt x="248" y="1579" on="1"/>
        <pt x="558" y="135" on="1"/>
        <pt x="852" y="1489" on="1"/>
      </contour>
    </TTGlyph>
    <TTGlyph name="X" xMin="61" yMin="0" xMax="1273" yMax="1579">
      <contour>
        <pt x="647" y="613" on="1"/>
        <pt x="279" y="0" on="1"/>
        <pt x="61" y="0" on="1"/>
        <pt x="558" y="809" on="1"/>
        <pt x="63" y="1579" on="1"/>
        <pt x="259" y="1579" on="1"/>
        <pt x="667" y="942" on="1"/>
        <pt x="1075" y="1579" on="1"/>
        <pt x="1271" y="1579" on="1"/>
        <pt x="776" y="809" on="1"/>
        <pt x="1273" y="0" on="1"/>
        <pt x="1055" y="0" on="1"/>
        <pt x="667" y="645" on="1"/>
      </contour>
    </TTGlyph>
    <TTGlyph name="Y" xMin="-4" yMin="0" xMax="1214" yMax="1579">
      <contour>
        <pt x="608" y="669" on="1"/>
        <pt x="667" y="802" on="1"/>
        <pt x="1023" y="1579" on="1"/>
        <pt x="1214" y="1579" on="1"/>
        <pt x="700" y="485" on="1"/>
        <pt x="700" y="0" on="1"/>
        <pt x="510" y="0" on="1"/>
        <pt x="510" y="485" on="1"/>
        <pt x="-4" y="1579" on="1"/>
        <pt x="193" y="1579" on="1"/>
        <pt x="547" y="806" on="1"/>
      </contour>
    </TTGlyph>
    <TTGlyph name="Yacute" xMin="-4" yMin="0" xMax="1214" yMax="2369">
      <contour>
        <pt x="610" y="677" on="1"/>
        <pt x="1023" y="1579" on="1"/>
        <pt x="1214" y="1579" on="1"/>
        <pt x="700" y="485" on="1"/>
        <pt x="700" y="0" on="1"/>
        <pt x="510" y="0" on="1"/>
        <pt x="510" y="485" on="1"/>
        <pt x="-4" y="1579" on="1"/>
        <pt x="193" y="1579" on="1"/>
        <pt x="547" y="806" on="1"/>
      </contour>
      <contour>
        <pt x="661" y="1732" on="1"/>
        <pt x="547" y="1758" on="1"/>
        <pt x="763" y="2369" on="1"/>
        <pt x="995" y="2278" on="1"/>
      </contour>
    </TTGlyph>
    <TTGlyph name="Ydieresis" xMin="-4" yMin="0" xMax="1214" yMax="2037">
      <component glyphName="Y" x="0" y="0" flags="0x4"/>
      <component glyphName="dieresis" x="203" y="449" flags="0x4"/>
    </TTGlyph>
    <TTGlyph name="Z" xMin="92" yMin="0" xMax="1124" yMax="1579">
      <contour>
        <pt x="1122" y="1579" on="1"/>
        <pt x="1122" y="1419" on="1"/>
        <pt x="289" y="143" on="1"/>
        <pt x="1124" y="143" on="1"/>
        <pt x="1124" y="0" on="1"/>
        <pt x="92" y="0" on="1"/>
        <pt x="92" y="180" on="1"/>
        <pt x="921" y="1447" on="1"/>
        <pt x="92" y="1447" on="1"/>
        <pt x="92" y="1579" on="1"/>
      </contour>
    </TTGlyph>
    <TTGlyph name="Zcaron" xMin="92" yMin="0" xMax="1124" yMax="2461">
      <component glyphName="Z" x="0" y="0" flags="0x204"/>
      <component glyphName="caron" x="240" y="410" flags="0x4"/>
    </TTGlyph>
    <TTGlyph name="a" xMin="123" yMin="-20" xMax="1088" yMax="1190">
      <contour>
        <pt x="562" y="119" on="1"/>
        <pt x="650" y="119" on="0"/>
        <pt x="817" y="190" on="0"/>
        <pt x="898" y="271" on="1"/>
        <pt x="898" y="569" on="1"/>
        <pt x="767" y="590" on="0"/>
        <pt x="636" y="590" on="1"/>
        <pt x="539" y="590" on="0"/>
        <pt x="414" y="556" on="0"/>
        <pt x="342" y="493" on="0"/>
        <pt x="314" y="405" on="0"/>
        <pt x="314" y="350" on="1"/>
        <pt x="314" y="286" on="0"/>
        <pt x="343" y="198" on="0"/>
        <pt x="404" y="143" on="0"/>
        <pt x="497" y="119" on="0"/>
      </contour>
      <contour>
        <pt x="898" y="665" on="1"/>
        <pt x="898" y="713" on="1"/>
        <pt x="898" y="798" on="0"/>
        <pt x="878" y="925" on="0"/>
        <pt x="820" y="1009" on="0"/>
        <pt x="713" y="1051" on="0"/>
        <pt x="626" y="1051" on="1"/>
        <pt x="556" y="1051" on="0"/>
        <pt x="425" y="1015" on="0"/>
        <pt x="323" y="972" on="0"/>
        <pt x="263" y="936" on="0"/>
        <pt x="263" y="935" on="1"/>
        <pt x="196" y="1057" on="1"/>
        <pt x="208" y="1064" on="1"/>
        <pt x="224" y="1074" on="0"/>
        <pt x="299" y="1116" on="0"/>
        <pt x="406" y="1158" on="0"/>
        <pt x="541" y="1190" on="0"/>
        <pt x="616" y="1190" on="1"/>
        <pt x="753" y="1190" on="0"/>
        <pt x="935" y="1135" on="0"/>
        <pt x="1043" y="1015" on="0"/>
        <pt x="1088" y="823" on="0"/>
        <pt x="1088" y="686" on="1"/>
        <pt x="1088" y="0" on="1"/>
        <pt x="948" y="0" on="1"/>
        <pt x="920" y="178" on="1"/>
        <pt x="847" y="77" on="0"/>
        <pt x="646" y="-20" on="0"/>
        <pt x="515" y="-20" on="1"/>
        <pt x="329" y="-20" on="0"/>
        <pt x="123" y="163" on="0"/>
        <pt x="123" y="339" on="1"/>
        <pt x="123" y="343" on="1"/>
        <pt x="123" y="432" on="0"/>
        <pt x="187" y="571" on="0"/>
        <pt x="303" y="666" on="0"/>
        <pt x="467" y="715" on="0"/>
        <pt x="567" y="715" on="1"/>
        <pt x="600" y="715" on="0"/>
        <pt x="693" y="706" on="0"/>
        <pt x="789" y="692" on="0"/>
        <pt x="874" y="674" on="0"/>
      </contour>
    </TTGlyph>
    <TTGlyph name="aacute" xMin="123" yMin="-20" xMax="1088" yMax="2109">
      <component glyphName="a" x="0" y="0" flags="0x4"/>
      <component glyphName="acute" x="21" y="0" flags="0x4"/>
    </TTGlyph>
    <TTGlyph name="acircumflex" xMin="123" yMin="-20" xMax="1088" yMax="2051">
      <component glyphName="a" x="0" y="0" flags="0x4"/>
      <component glyphName="circumflex" x="152" y="0" flags="0x4"/>
    </TTGlyph>
    <TTGlyph name="acute" xMin="371" yMin="1472" xMax="762" yMax="2109">
      <contour>
        <pt x="428" y="1472" on="1"/>
        <pt x="371" y="1498" on="1"/>
        <pt x="530" y="2109" on="1"/>
        <pt x="762" y="2018" on="1"/>
      </contour>
    </TTGlyph>
    <TTGlyph name="acute.cap" xMin="371" yMin="1472" xMax="762" yMax="2109">
      <contour>
        <pt x="428" y="1472" on="1"/>
        <pt x="371" y="1498" on="1"/>
        <pt x="530" y="2109" on="1"/>
        <pt x="762" y="2018" on="1"/>
      </contour>
    </TTGlyph>
    <TTGlyph name="adieresis" xMin="123" yMin="-20" xMax="1088" yMax="1588">
      <component glyphName="a" x="0" y="0" flags="0x4"/>
      <component glyphName="dieresis" x="96" y="0" flags="0x4"/>
    </TTGlyph>
    <TTGlyph name="ae" xMin="123" yMin="-23" xMax="1829" yMax="1190">
      <contour>
        <pt x="871" y="665" on="1"/>
        <pt x="871" y="713" on="1"/>
        <pt x="871" y="809" on="0"/>
        <pt x="852" y="937" on="0"/>
        <pt x="797" y="1015" on="0"/>
        <pt x="698" y="1047" on="0"/>
        <pt x="619" y="1047" on="1"/>
        <pt x="563" y="1047" on="0"/>
        <pt x="450" y="1023" on="0"/>
        <pt x="353" y="989" on="0"/>
        <pt x="276" y="950" on="0"/>
        <pt x="256" y="935" on="1"/>
        <pt x="189" y="1057" on="1"/>
        <pt x="220" y="1084" on="0"/>
        <pt x="323" y="1132" on="0"/>
        <pt x="441" y="1168" on="0"/>
        <pt x="561" y="1190" on="0"/>
        <pt x="609" y="1190" on="1"/>
        <pt x="690" y="1190" on="0"/>
        <pt x="816" y="1166" on="0"/>
        <pt x="910" y="1114" on="0"/>
        <pt x="973" y="1030" on="0"/>
        <pt x="991" y="970" on="1"/>
        <pt x="1018" y="1025" on="0"/>
        <pt x="1101" y="1108" on="0"/>
        <pt x="1204" y="1163" on="0"/>
        <pt x="1323" y="1190" on="0"/>
        <pt x="1386" y="1190" on="1"/>
        <pt x="1494" y="1190" on="0"/>
        <pt x="1659" y="1116" on="0"/>
        <pt x="1771" y="981" on="0"/>
        <pt x="1829" y="792" on="0"/>
        <pt x="1829" y="676" on="1"/>
        <pt x="1829" y="652" on="0"/>
        <pt x="1825" y="598" on="0"/>
        <pt x="1821" y="567" on="1"/>
        <pt x="1061" y="567" on="1"/>
        <pt x="1061" y="468" on="0"/>
        <pt x="1093" y="305" on="0"/>
        <pt x="1173" y="190" on="0"/>
        <pt x="1306" y="127" on="0"/>
        <pt x="1407" y="127" on="1"/>
        <pt x="1576" y="127" on="0"/>
        <pt x="1713" y="244" on="1"/>
        <pt x="1775" y="99" on="1"/>
        <pt x="1737" y="71" on="0"/>
        <pt x="1636" y="26" on="0"/>
        <pt x="1531" y="-6" on="0"/>
        <pt x="1432" y="-23" on="0"/>
        <pt x="1395" y="-23" on="1"/>
        <pt x="1244" y="-23" on="0"/>
        <pt x="1026" y="95" on="0"/>
        <pt x="962" y="207" on="1"/>
        <pt x="929" y="163" on="0"/>
        <pt x="836" y="80" on="0"/>
        <pt x="722" y="16" on="0"/>
        <pt x="589" y="-23" on="0"/>
        <pt x="515" y="-23" on="1"/>
        <pt x="422" y="-23" on="0"/>
        <pt x="276" y="24" on="0"/>
        <pt x="176" y="116" on="0"/>
        <pt x="123" y="251" on="0"/>
        <pt x="123" y="339" on="1"/>
        <pt x="123" y="343" on="1"/>
        <pt x="123" y="432" on="0"/>
        <pt x="187" y="571" on="0"/>
        <pt x="303" y="666" on="0"/>
        <pt x="467" y="715" on="0"/>
        <pt x="567" y="715" on="1"/>
        <pt x="601" y="715" on="0"/>
        <pt x="686" y="707" on="0"/>
        <pt x="771" y="693" on="0"/>
        <pt x="847" y="675" on="0"/>
      </contour>
      <contour>
        <pt x="562" y="119" on="1"/>
        <pt x="708" y="119" on="0"/>
        <pt x="871" y="271" on="1"/>
        <pt x="871" y="569" on="1"/>
        <pt x="740" y="590" on="0"/>
        <pt x="636" y="590" on="1"/>
        <pt x="539" y="590" on="0"/>
        <pt x="414" y="556" on="0"/>
        <pt x="342" y="495" on="0"/>
        <pt x="314" y="408" on="0"/>
        <pt x="314" y="356" on="1"/>
        <pt x="314" y="292" on="0"/>
        <pt x="343" y="202" on="0"/>
        <pt x="404" y="145" on="0"/>
        <pt x="497" y="119" on="0"/>
      </contour>
      <contour>
        <pt x="1661" y="717" on="1"/>
        <pt x="1661" y="827" on="0"/>
        <pt x="1606" y="961" on="0"/>
        <pt x="1524" y="1033" on="0"/>
        <pt x="1428" y="1057" on="0"/>
        <pt x="1387" y="1057" on="1"/>
        <pt x="1355" y="1057" on="0"/>
        <pt x="1283" y="1046" on="0"/>
        <pt x="1210" y="1016" on="0"/>
        <pt x="1143" y="963" on="0"/>
        <pt x="1092" y="879" on="0"/>
        <pt x="1061" y="762" on="0"/>
        <pt x="1061" y="682" on="1"/>
        <pt x="1661" y="682" on="1"/>
      </contour>
    </TTGlyph>
    <TTGlyph name="agrave" xMin="123" yMin="-20" xMax="1088" yMax="2116">
      <component glyphName="a" x="0" y="0" flags="0x4"/>
      <component glyphName="grave" x="220" y="0" flags="0x4"/>
    </TTGlyph>
    <TTGlyph name="ampersand" xMin="129" yMin="-39" xMax="1554" yMax="1445">
      <contour>
        <pt x="901" y="1119" on="1"/>
        <pt x="901" y="1165" on="0"/>
        <pt x="867" y="1236" on="0"/>
        <pt x="804" y="1285" on="0"/>
        <pt x="715" y="1310" on="0"/>
        <pt x="660" y="1310" on="1"/>
        <pt x="604" y="1310" on="0"/>
        <pt x="521" y="1291" on="0"/>
        <pt x="464" y="1249" on="0"/>
        <pt x="431" y="1181" on="0"/>
        <pt x="427" y="1131" on="1"/>
        <pt x="427" y="1121" on="1"/>
        <pt x="427" y="1087" on="0"/>
        <pt x="454" y="1026" on="0"/>
        <pt x="496" y="974" on="0"/>
        <pt x="543" y="931" on="0"/>
        <pt x="585" y="900" on="0"/>
        <pt x="612" y="883" on="0"/>
        <pt x="612" y="883" on="1"/>
        <pt x="696" y="908" on="0"/>
        <pt x="807" y="952" on="0"/>
        <pt x="873" y="1003" on="0"/>
        <pt x="901" y="1070" on="0"/>
      </contour>
      <contour>
        <pt x="696" y="-39" on="1"/>
        <pt x="562" y="-39" on="0"/>
        <pt x="351" y="22" on="0"/>
        <pt x="206" y="136" on="0"/>
        <pt x="129" y="297" on="0"/>
        <pt x="129" y="396" on="1"/>
        <pt x="129" y="558" on="0"/>
        <pt x="293" y="773" on="0"/>
        <pt x="463" y="822" on="1"/>
        <pt x="463" y="822" on="0"/>
        <pt x="433" y="843" on="0"/>
        <pt x="388" y="881" on="0"/>
        <pt x="336" y="934" on="0"/>
        <pt x="291" y="999" on="0"/>
        <pt x="261" y="1073" on="0"/>
        <pt x="261" y="1113" on="1"/>
        <pt x="261" y="1187" on="0"/>
        <pt x="314" y="1309" on="0"/>
        <pt x="416" y="1397" on="0"/>
        <pt x="565" y="1445" on="0"/>
        <pt x="660" y="1445" on="1"/>
        <pt x="759" y="1445" on="0"/>
        <pt x="909" y="1394" on="0"/>
        <pt x="1010" y="1306" on="0"/>
        <pt x="1061" y="1185" on="0"/>
        <pt x="1061" y="1115" on="1"/>
        <pt x="1061" y="1043" on="0"/>
        <pt x="1013" y="941" on="0"/>
        <pt x="921" y="865" on="0"/>
        <pt x="787" y="808" on="0"/>
        <pt x="702" y="781" on="1"/>
        <pt x="1197" y="391" on="1"/>
        <pt x="1204" y="494" on="0"/>
        <pt x="1211" y="695" on="0"/>
        <pt x="1211" y="796" on="1"/>
        <pt x="1375" y="796" on="1"/>
        <pt x="1375" y="734" on="0"/>
        <pt x="1368" y="598" on="0"/>
        <pt x="1357" y="474" on="0"/>
        <pt x="1345" y="371" on="0"/>
        <pt x="1340" y="341" on="1"/>
        <pt x="1328" y="277" on="1"/>
        <pt x="1554" y="95" on="1"/>
        <pt x="1468" y="-7" on="1"/>
        <pt x="1257" y="170" on="1"/>
        <pt x="1228" y="115" on="0"/>
        <pt x="1105" y="36" on="0"/>
        <pt x="948" y="-15" on="0"/>
        <pt x="775" y="-39" on="0"/>
      </contour>
      <contour>
        <pt x="311" y="418" on="1"/>
        <pt x="311" y="334" on="0"/>
        <pt x="353" y="214" on="0"/>
        <pt x="445" y="136" on="0"/>
        <pt x="592" y="100" on="0"/>
        <pt x="696" y="100" on="1"/>
        <pt x="1046" y="100" on="0"/>
        <pt x="1145" y="256" on="1"/>
        <pt x="557" y="726" on="1"/>
        <pt x="311" y="673" on="0"/>
      </contour>
    </TTGlyph>
    <TTGlyph name="aring" xMin="123" yMin="-20" xMax="1088" yMax="1735">
      <component glyphName="a" x="0" y="0" flags="0x4"/>
      <component glyphName="ring" x="301" y="0" flags="0x4"/>
    </TTGlyph>
    <TTGlyph name="asciicircum" xMin="217" yMin="432" xMax="897" yMax="1011">
      <contour>
        <pt x="345" y="432" on="1"/>
        <pt x="217" y="510" on="1"/>
        <pt x="509" y="1011" on="1"/>
        <pt x="605" y="1011" on="1"/>
        <pt x="897" y="510" on="1"/>
        <pt x="769" y="432" on="1"/>
        <pt x="557" y="809" on="1"/>
      </contour>
    </TTGlyph>
    <TTGlyph name="asciitilde" xMin="217" yMin="390" xMax="977" yMax="654">
      <contour>
        <pt x="785" y="390" on="1"/>
        <pt x="729" y="390" on="0"/>
        <pt x="625" y="427" on="0"/>
        <pt x="535" y="472" on="0"/>
        <pt x="459" y="509" on="0"/>
        <pt x="432" y="509" on="1"/>
        <pt x="403" y="509" on="0"/>
        <pt x="373" y="460" on="0"/>
        <pt x="373" y="394" on="1"/>
        <pt x="217" y="394" on="1"/>
        <pt x="217" y="654" on="0"/>
        <pt x="418" y="654" on="1"/>
        <pt x="474" y="654" on="0"/>
        <pt x="567" y="615" on="0"/>
        <pt x="650" y="568" on="0"/>
        <pt x="724" y="529" on="0"/>
        <pt x="762" y="529" on="1"/>
        <pt x="821" y="529" on="0"/>
        <pt x="821" y="640" on="1"/>
        <pt x="977" y="640" on="1"/>
        <pt x="977" y="583" on="0"/>
        <pt x="950" y="491" on="0"/>
        <pt x="900" y="426" on="0"/>
        <pt x="829" y="390" on="0"/>
      </contour>
    </TTGlyph>
    <TTGlyph name="asterisk" xMin="61" yMin="815" xMax="851" yMax="1567">
      <contour>
        <pt x="456" y="1292" on="1"/>
        <pt x="595" y="1567" on="1"/>
        <pt x="698" y="1509" on="1"/>
        <pt x="540" y="1237" on="1"/>
        <pt x="851" y="1237" on="1"/>
        <pt x="851" y="1145" on="1"/>
        <pt x="542" y="1145" on="1"/>
        <pt x="712" y="872" on="1"/>
        <pt x="610" y="815" on="1"/>
        <pt x="456" y="1090" on="1"/>
        <pt x="302" y="815" on="1"/>
        <pt x="200" y="872" on="1"/>
        <pt x="370" y="1145" on="1"/>
        <pt x="61" y="1145" on="1"/>
        <pt x="61" y="1237" on="1"/>
        <pt x="372" y="1237" on="1"/>
        <pt x="214" y="1509" on="1"/>
        <pt x="317" y="1567" on="1"/>
      </contour>
    </TTGlyph>
    <TTGlyph name="at" xMin="135" yMin="-155" xMax="1796" yMax="1456">
      <contour>
        <pt x="1234" y="987" on="1"/>
        <pt x="1235" y="986" on="0"/>
        <pt x="1183" y="997" on="0"/>
        <pt x="1140" y="1002" on="1"/>
        <pt x="1118" y="1004" on="0"/>
        <pt x="1077" y="1008" on="0"/>
        <pt x="1058" y="1008" on="1"/>
        <pt x="974" y="1008" on="0"/>
        <pt x="819" y="945" on="0"/>
        <pt x="700" y="831" on="0"/>
        <pt x="630" y="671" on="0"/>
        <pt x="630" y="573" on="1"/>
        <pt x="630" y="330" on="0"/>
        <pt x="855" y="330" on="1"/>
        <pt x="932" y="330" on="0"/>
        <pt x="1068" y="396" on="0"/>
        <pt x="1170" y="536" on="0"/>
        <pt x="1231" y="754" on="0"/>
        <pt x="1233" y="906" on="1"/>
      </contour>
      <contour>
        <pt x="1467" y="134" on="1"/>
        <pt x="1558" y="42" on="1"/>
        <pt x="1518" y="-3" on="0"/>
        <pt x="1398" y="-75" on="0"/>
        <pt x="1247" y="-127" on="0"/>
        <pt x="1069" y="-155" on="0"/>
        <pt x="970" y="-155" on="1"/>
        <pt x="750" y="-155" on="0"/>
        <pt x="434" y="-37" on="0"/>
        <pt x="231" y="164" on="0"/>
        <pt x="135" y="430" on="0"/>
        <pt x="135" y="578" on="1"/>
        <pt x="135" y="719" on="0"/>
        <pt x="202" y="960" on="0"/>
        <pt x="320" y="1155" on="0"/>
        <pt x="482" y="1304" on="0"/>
        <pt x="671" y="1405" on="0"/>
        <pt x="880" y="1456" on="0"/>
        <pt x="987" y="1456" on="1"/>
        <pt x="1095" y="1456" on="0"/>
        <pt x="1300" y="1419" on="0"/>
        <pt x="1480" y="1342" on="0"/>
        <pt x="1629" y="1227" on="0"/>
        <pt x="1736" y="1072" on="0"/>
        <pt x="1796" y="875" on="0"/>
        <pt x="1796" y="756" on="1"/>
        <pt x="1796" y="649" on="0"/>
        <pt x="1754" y="483" on="0"/>
        <pt x="1683" y="359" on="0"/>
        <pt x="1592" y="275" on="0"/>
        <pt x="1494" y="222" on="0"/>
        <pt x="1396" y="199" on="0"/>
        <pt x="1355" y="199" on="1"/>
        <pt x="1320" y="199" on="0"/>
        <pt x="1281" y="218" on="0"/>
        <pt x="1260" y="250" on="0"/>
        <pt x="1255" y="292" on="0"/>
        <pt x="1255" y="316" on="1"/>
        <pt x="1255" y="548" on="1"/>
        <pt x="1243" y="489" on="0"/>
        <pt x="1182" y="366" on="0"/>
        <pt x="1080" y="264" on="0"/>
        <pt x="935" y="199" on="0"/>
        <pt x="839" y="199" on="1"/>
        <pt x="753" y="199" on="0"/>
        <pt x="617" y="254" on="0"/>
        <pt x="524" y="355" on="0"/>
        <pt x="475" y="500" on="0"/>
        <pt x="475" y="590" on="1"/>
        <pt x="475" y="655" on="0"/>
        <pt x="514" y="785" on="0"/>
        <pt x="586" y="905" on="0"/>
        <pt x="688" y="1008" on="0"/>
        <pt x="814" y="1084" on="0"/>
        <pt x="961" y="1128" on="0"/>
        <pt x="1042" y="1128" on="1"/>
        <pt x="1058" y="1128" on="0"/>
        <pt x="1116" y="1123" on="0"/>
        <pt x="1182" y="1116" on="0"/>
        <pt x="1249" y="1107" on="0"/>
        <pt x="1273" y="1104" on="1"/>
        <pt x="1327" y="1096" on="1"/>
        <pt x="1382" y="987" on="1"/>
        <pt x="1382" y="317" on="1"/>
        <pt x="1443" y="317" on="0"/>
        <pt x="1538" y="366" on="0"/>
        <pt x="1602" y="473" on="0"/>
        <pt x="1636" y="640" on="0"/>
        <pt x="1636" y="758" on="1"/>
        <pt x="1636" y="869" on="0"/>
        <pt x="1583" y="1038" on="0"/>
        <pt x="1492" y="1162" on="0"/>
        <pt x="1368" y="1245" on="0"/>
        <pt x="1225" y="1296" on="0"/>
        <pt x="1070" y="1317" on="0"/>
        <pt x="993" y="1317" on="1"/>
        <pt x="842" y="1317" on="0"/>
        <pt x="586" y="1217" on="0"/>
        <pt x="399" y="1027" on="0"/>
        <pt x="294" y="752" on="0"/>
        <pt x="294" y="578" on="1"/>
        <pt x="294" y="440" on="0"/>
        <pt x="382" y="219" on="0"/>
        <pt x="555" y="66" on="0"/>
        <pt x="811" y="-16" on="0"/>
        <pt x="980" y="-16" on="1"/>
        <pt x="1096" y="-16" on="0"/>
        <pt x="1268" y="22" on="0"/>
        <pt x="1385" y="71" on="0"/>
        <pt x="1451" y="119" on="0"/>
        <pt x="1461" y="129" on="1"/>
      </contour>
    </TTGlyph>
    <TTGlyph name="atilde" xMin="123" yMin="-20" xMax="1088" yMax="1576">
      <component glyphName="a" x="0" y="0" flags="0x4"/>
      <component glyphName="tilde" x="150" y="0" flags="0x4"/>
    </TTGlyph>
    <TTGlyph name="b" xMin="186" yMin="-20" xMax="1200" yMax="1614">
      <contour>
        <pt x="724" y="-20" on="1"/>
        <pt x="669" y="-20" on="0"/>
        <pt x="566" y="11" on="0"/>
        <pt x="472" y="65" on="0"/>
        <pt x="389" y="137" on="0"/>
        <pt x="354" y="178" on="1"/>
        <pt x="326" y="0" on="1"/>
        <pt x="186" y="0" on="1"/>
        <pt x="186" y="1579" on="1"/>
        <pt x="376" y="1614" on="1"/>
        <pt x="376" y="1030" on="1"/>
        <pt x="383" y="1037" on="0"/>
        <pt x="416" y="1066" on="0"/>
        <pt x="466" y="1102" on="0"/>
        <pt x="529" y="1139" on="0"/>
        <pt x="602" y="1170" on="0"/>
        <pt x="682" y="1190" on="0"/>
        <pt x="724" y="1190" on="1"/>
        <pt x="819" y="1190" on="0"/>
        <pt x="964" y="1134" on="0"/>
        <pt x="1070" y="1039" on="0"/>
        <pt x="1140" y="915" on="0"/>
        <pt x="1183" y="779" on="0"/>
        <pt x="1200" y="641" on="0"/>
        <pt x="1200" y="580" on="1"/>
        <pt x="1200" y="463" on="0"/>
        <pt x="1147" y="246" on="0"/>
        <pt x="1033" y="80" on="0"/>
        <pt x="852" y="-20" on="0"/>
      </contour>
      <contour>
        <pt x="1018" y="584" on="1"/>
        <pt x="1018" y="817" on="0"/>
        <pt x="875" y="1051" on="0"/>
        <pt x="731" y="1051" on="1"/>
        <pt x="680" y="1051" on="0"/>
        <pt x="575" y="1022" on="0"/>
        <pt x="479" y="977" on="0"/>
        <pt x="400" y="925" on="0"/>
        <pt x="376" y="902" on="1"/>
        <pt x="376" y="273" on="1"/>
        <pt x="455" y="198" on="0"/>
        <pt x="634" y="119" on="0"/>
        <pt x="733" y="119" on="1"/>
        <pt x="792" y="119" on="0"/>
        <pt x="880" y="158" on="0"/>
        <pt x="943" y="225" on="0"/>
        <pt x="985" y="316" on="0"/>
        <pt x="1009" y="419" on="0"/>
        <pt x="1018" y="530" on="0"/>
      </contour>
    </TTGlyph>
    <TTGlyph name="backslash" xMin="0" yMin="-172" xMax="781" yMax="1731">
      <contour>
        <pt x="158" y="1731" on="1"/>
        <pt x="781" y="-114" on="1"/>
        <pt x="621" y="-172" on="1"/>
        <pt x="0" y="1679" on="1"/>
      </contour>
    </TTGlyph>
    <TTGlyph name="bar" xMin="260" yMin="-111" xMax="438" yMax="1696">
      <contour>
        <pt x="260" y="-111" on="1"/>
        <pt x="260" y="1696" on="1"/>
        <pt x="438" y="1696" on="1"/>
        <pt x="438" y="-111" on="1"/>
      </contour>
    </TTGlyph>
    <TTGlyph name="braceleft" xMin="256" yMin="-209" xMax="904" yMax="1539">
      <contour>
        <pt x="256" y="759" on="1"/>
        <pt x="494" y="759" on="0"/>
        <pt x="494" y="1067" on="1"/>
        <pt x="494" y="1184" on="0"/>
        <pt x="541" y="1361" on="0"/>
        <pt x="641" y="1480" on="0"/>
        <pt x="796" y="1539" on="0"/>
        <pt x="903" y="1539" on="1"/>
        <pt x="904" y="1370" on="1"/>
        <pt x="873" y="1370" on="0"/>
        <pt x="823" y="1367" on="0"/>
        <pt x="781" y="1357" on="0"/>
        <pt x="745" y="1337" on="0"/>
        <pt x="727" y="1321" on="1"/>
        <pt x="710" y="1305" on="0"/>
        <pt x="689" y="1256" on="0"/>
        <pt x="678" y="1211" on="1"/>
        <pt x="672" y="1189" on="0"/>
        <pt x="664" y="1105" on="0"/>
        <pt x="664" y="1042" on="1"/>
        <pt x="664" y="728" on="0"/>
        <pt x="423" y="665" on="1"/>
        <pt x="664" y="602" on="0"/>
        <pt x="664" y="288" on="1"/>
        <pt x="665" y="225" on="0"/>
        <pt x="671" y="146" on="0"/>
        <pt x="681" y="95" on="0"/>
        <pt x="694" y="64" on="0"/>
        <pt x="700" y="49" on="1"/>
        <pt x="713" y="18" on="0"/>
        <pt x="754" y="-17" on="0"/>
        <pt x="806" y="-35" on="0"/>
        <pt x="869" y="-40" on="0"/>
        <pt x="904" y="-40" on="1"/>
        <pt x="903" y="-209" on="1"/>
        <pt x="796" y="-209" on="0"/>
        <pt x="641" y="-150" on="0"/>
        <pt x="541" y="-31" on="0"/>
        <pt x="494" y="146" on="0"/>
        <pt x="494" y="263" on="1"/>
        <pt x="494" y="571" on="0"/>
        <pt x="256" y="571" on="1"/>
      </contour>
    </TTGlyph>
    <TTGlyph name="braceright" xMin="256" yMin="-209" xMax="904" yMax="1539">
      <contour>
        <pt x="904" y="571" on="1"/>
        <pt x="666" y="571" on="0"/>
        <pt x="666" y="263" on="1"/>
        <pt x="666" y="146" on="0"/>
        <pt x="619" y="-30" on="0"/>
        <pt x="519" y="-149" on="0"/>
        <pt x="364" y="-209" on="0"/>
        <pt x="257" y="-209" on="1"/>
        <pt x="256" y="-40" on="1"/>
        <pt x="291" y="-40" on="0"/>
        <pt x="353" y="-35" on="0"/>
        <pt x="406" y="-17" on="0"/>
        <pt x="447" y="18" on="0"/>
        <pt x="460" y="49" on="1"/>
        <pt x="466" y="64" on="0"/>
        <pt x="478" y="95" on="0"/>
        <pt x="488" y="146" on="0"/>
        <pt x="495" y="225" on="0"/>
        <pt x="496" y="288" on="1"/>
        <pt x="496" y="602" on="0"/>
        <pt x="737" y="665" on="1"/>
        <pt x="496" y="728" on="0"/>
        <pt x="496" y="1042" on="1"/>
        <pt x="496" y="1105" on="0"/>
        <pt x="487" y="1189" on="0"/>
        <pt x="482" y="1211" on="1"/>
        <pt x="470" y="1256" on="0"/>
        <pt x="450" y="1305" on="0"/>
        <pt x="433" y="1321" on="1"/>
        <pt x="415" y="1337" on="0"/>
        <pt x="379" y="1357" on="0"/>
        <pt x="337" y="1367" on="0"/>
        <pt x="287" y="1370" on="0"/>
        <pt x="256" y="1370" on="1"/>
        <pt x="257" y="1539" on="1"/>
        <pt x="364" y="1539" on="0"/>
        <pt x="519" y="1479" on="0"/>
        <pt x="619" y="1360" on="0"/>
        <pt x="666" y="1184" on="0"/>
        <pt x="666" y="1067" on="1"/>
        <pt x="666" y="759" on="0"/>
        <pt x="904" y="759" on="1"/>
      </contour>
    </TTGlyph>
    <TTGlyph name="bracketleft" xMin="176" yMin="0" xMax="840" yMax="1579">
      <contour>
        <pt x="176" y="1579" on="1"/>
        <pt x="840" y="1579" on="1"/>
        <pt x="840" y="1436" on="1"/>
        <pt x="369" y="1436" on="1"/>
        <pt x="369" y="143" on="1"/>
        <pt x="840" y="143" on="1"/>
        <pt x="840" y="0" on="1"/>
        <pt x="176" y="0" on="1"/>
      </contour>
    </TTGlyph>
    <TTGlyph name="bracketright" xMin="199" yMin="0" xMax="863" yMax="1579">
      <contour>
        <pt x="199" y="1579" on="1"/>
        <pt x="863" y="1579" on="1"/>
        <pt x="863" y="0" on="1"/>
        <pt x="199" y="0" on="1"/>
        <pt x="199" y="143" on="1"/>
        <pt x="670" y="143" on="1"/>
        <pt x="670" y="1436" on="1"/>
        <pt x="199" y="1436" on="1"/>
      </contour>
    </TTGlyph>
    <TTGlyph name="breve" xMin="199" yMin="1321" xMax="825" yMax="1608">
      <contour>
        <pt x="199" y="1608" on="1"/>
        <pt x="317" y="1608" on="1"/>
        <pt x="328" y="1533" on="0"/>
        <pt x="425" y="1458" on="0"/>
        <pt x="512" y="1458" on="1"/>
        <pt x="598" y="1458" on="0"/>
        <pt x="694" y="1532" on="0"/>
        <pt x="707" y="1608" on="1"/>
        <pt x="825" y="1608" on="1"/>
        <pt x="815" y="1465" on="0"/>
        <pt x="657" y="1321" on="0"/>
        <pt x="512" y="1321" on="1"/>
        <pt x="367" y="1321" on="0"/>
        <pt x="209" y="1465" on="0"/>
      </contour>
    </TTGlyph>
    <TTGlyph name="brokenbar" xMin="144" yMin="0" xMax="332" yMax="1579">
      <contour>
        <pt x="144" y="889" on="1"/>
        <pt x="144" y="1579" on="1"/>
        <pt x="332" y="1579" on="1"/>
        <pt x="332" y="889" on="1"/>
      </contour>
      <contour>
        <pt x="144" y="0" on="1"/>
        <pt x="144" y="690" on="1"/>
        <pt x="332" y="690" on="1"/>
        <pt x="332" y="0" on="1"/>
      </contour>
    </TTGlyph>
    <TTGlyph name="bullet" xMin="307" yMin="358" xMax="1005" yMax="1028">
      <contour>
        <pt x="904" y="455" on="1"/>
        <pt x="804" y="358" on="0"/>
        <pt x="655" y="358" on="1"/>
        <pt x="581" y="358" on="0"/>
        <pt x="454" y="410" on="0"/>
        <pt x="361" y="500" on="0"/>
        <pt x="307" y="622" on="0"/>
        <pt x="307" y="692" on="1"/>
        <pt x="307" y="762" on="0"/>
        <pt x="361" y="885" on="0"/>
        <pt x="454" y="976" on="0"/>
        <pt x="581" y="1028" on="0"/>
        <pt x="655" y="1028" on="1"/>
        <pt x="728" y="1028" on="0"/>
        <pt x="856" y="975" on="0"/>
        <pt x="951" y="884" on="0"/>
        <pt x="1005" y="761" on="0"/>
        <pt x="1005" y="692" on="1"/>
        <pt x="1005" y="553" on="0"/>
      </contour>
    </TTGlyph>
    <TTGlyph name="c" xMin="113" yMin="-20" xMax="1012" yMax="1190">
      <contour>
        <pt x="303" y="580" on="1"/>
        <pt x="303" y="449" on="0"/>
        <pt x="356" y="273" on="0"/>
        <pt x="444" y="165" on="0"/>
        <pt x="561" y="119" on="0"/>
        <pt x="626" y="119" on="1"/>
        <pt x="728" y="119" on="0"/>
        <pt x="891" y="180" on="0"/>
        <pt x="955" y="245" on="1"/>
        <pt x="1012" y="111" on="1"/>
        <pt x="918" y="44" on="0"/>
        <pt x="724" y="-20" on="0"/>
        <pt x="621" y="-20" on="1"/>
        <pt x="570" y="-20" on="0"/>
        <pt x="456" y="2" on="0"/>
        <pt x="343" y="54" on="0"/>
        <pt x="239" y="143" on="0"/>
        <pt x="160" y="276" on="0"/>
        <pt x="113" y="459" on="0"/>
        <pt x="113" y="580" on="1"/>
        <pt x="113" y="701" on="0"/>
        <pt x="160" y="885" on="0"/>
        <pt x="239" y="1021" on="0"/>
        <pt x="343" y="1112" on="0"/>
        <pt x="456" y="1167" on="0"/>
        <pt x="572" y="1190" on="0"/>
        <pt x="624" y="1190" on="1"/>
        <pt x="825" y="1190" on="0"/>
        <pt x="1012" y="1057" on="1"/>
        <pt x="955" y="924" on="1"/>
        <pt x="888" y="982" on="0"/>
        <pt x="732" y="1051" on="0"/>
        <pt x="641" y="1051" on="1"/>
        <pt x="477" y="1051" on="0"/>
        <pt x="303" y="816" on="0"/>
      </contour>
    </TTGlyph>
    <TTGlyph name="caron" xMin="28" yMin="1472" xMax="708" yMax="2051">
      <contour>
        <pt x="368" y="1674" on="1"/>
        <pt x="580" y="2051" on="1"/>
        <pt x="708" y="1973" on="1"/>
        <pt x="416" y="1472" on="1"/>
        <pt x="320" y="1472" on="1"/>
        <pt x="28" y="1973" on="1"/>
        <pt x="156" y="2051" on="1"/>
      </contour>
    </TTGlyph>
    <TTGlyph name="caron.cap" xMin="28" yMin="1472" xMax="708" yMax="2051">
      <contour>
        <pt x="368" y="1674" on="1"/>
        <pt x="580" y="2051" on="1"/>
        <pt x="708" y="1973" on="1"/>
        <pt x="416" y="1472" on="1"/>
        <pt x="320" y="1472" on="1"/>
        <pt x="28" y="1973" on="1"/>
        <pt x="156" y="2051" on="1"/>
      </contour>
    </TTGlyph>
    <TTGlyph name="ccedilla" xMin="113" yMin="-578" xMax="1012" yMax="1190">
      <component glyphName="c" x="0" y="0" flags="0x4"/>
      <component glyphName="cedilla" x="231" y="0" flags="0x4"/>
    </TTGlyph>
    <TTGlyph name="cedilla" xMin="122" yMin="-578" xMax="560" yMax="76">
      <contour>
        <pt x="124" y="-540" on="1"/>
        <pt x="124" y="-423" on="1"/>
        <pt x="122" y="-423" on="0"/>
        <pt x="163" y="-436" on="0"/>
        <pt x="220" y="-451" on="0"/>
        <pt x="276" y="-464" on="0"/>
        <pt x="288" y="-464" on="1"/>
        <pt x="322" y="-464" on="0"/>
        <pt x="373" y="-456" on="0"/>
        <pt x="407" y="-428" on="0"/>
        <pt x="425" y="-374" on="0"/>
        <pt x="427" y="-328" on="1"/>
        <pt x="427" y="-289" on="0"/>
        <pt x="398" y="-234" on="0"/>
        <pt x="337" y="-201" on="0"/>
        <pt x="241" y="-186" on="0"/>
        <pt x="174" y="-186" on="1"/>
        <pt x="174" y="76" on="1"/>
        <pt x="295" y="76" on="1"/>
        <pt x="295" y="-98" on="1"/>
        <pt x="356" y="-98" on="0"/>
        <pt x="454" y="-123" on="0"/>
        <pt x="523" y="-180" on="0"/>
        <pt x="560" y="-273" on="0"/>
        <pt x="560" y="-342" on="1"/>
        <pt x="560" y="-578" on="0"/>
        <pt x="308" y="-578" on="1"/>
        <pt x="281" y="-578" on="0"/>
        <pt x="225" y="-569" on="0"/>
        <pt x="177" y="-557" on="0"/>
        <pt x="139" y="-545" on="0"/>
        <pt x="130" y="-542" on="1"/>
      </contour>
    </TTGlyph>
    <TTGlyph name="cent" xMin="172" yMin="-159" xMax="1071" yMax="1329">
      <contour>
        <pt x="646" y="-22" on="1"/>
        <pt x="596" y="-19" on="0"/>
        <pt x="487" y="9" on="0"/>
        <pt x="382" y="66" on="0"/>
        <pt x="287" y="156" on="0"/>
        <pt x="215" y="288" on="0"/>
        <pt x="172" y="465" on="0"/>
        <pt x="172" y="580" on="1"/>
        <pt x="172" y="694" on="0"/>
        <pt x="214" y="871" on="0"/>
        <pt x="286" y="1004" on="0"/>
        <pt x="381" y="1095" on="0"/>
        <pt x="486" y="1154" on="0"/>
        <pt x="595" y="1184" on="0"/>
        <pt x="646" y="1189" on="1"/>
        <pt x="646" y="1329" on="1"/>
        <pt x="749" y="1329" on="1"/>
        <pt x="749" y="1186" on="1"/>
        <pt x="803" y="1186" on="0"/>
        <pt x="916" y="1152" on="0"/>
        <pt x="1009" y="1111" on="0"/>
        <pt x="1070" y="1077" on="0"/>
        <pt x="1071" y="1077" on="1"/>
        <pt x="1014" y="944" on="1"/>
        <pt x="1013" y="944" on="0"/>
        <pt x="969" y="973" on="0"/>
        <pt x="895" y="1008" on="0"/>
        <pt x="800" y="1038" on="0"/>
        <pt x="749" y="1038" on="1"/>
        <pt x="749" y="130" on="1"/>
        <pt x="802" y="130" on="0"/>
        <pt x="899" y="153" on="0"/>
        <pt x="972" y="182" on="0"/>
        <pt x="1014" y="205" on="0"/>
        <pt x="1014" y="205" on="1"/>
        <pt x="1060" y="68" on="1"/>
        <pt x="1060" y="66" on="0"/>
        <pt x="1001" y="38" on="0"/>
        <pt x="910" y="7" on="0"/>
        <pt x="800" y="-19" on="0"/>
        <pt x="749" y="-19" on="1"/>
        <pt x="749" y="-159" on="1"/>
        <pt x="646" y="-159" on="1"/>
      </contour>
      <contour>
        <pt x="646" y="1037" on="1"/>
        <pt x="362" y="999" on="0"/>
        <pt x="362" y="580" on="1"/>
        <pt x="362" y="460" on="0"/>
        <pt x="408" y="294" on="0"/>
        <pt x="486" y="188" on="0"/>
        <pt x="589" y="135" on="0"/>
        <pt x="646" y="129" on="1"/>
      </contour>
    </TTGlyph>
    <TTGlyph name="circumflex" xMin="28" yMin="1472" xMax="708" yMax="2051">
      <contour>
        <pt x="156" y="1472" on="1"/>
        <pt x="28" y="1550" on="1"/>
        <pt x="320" y="2051" on="1"/>
        <pt x="416" y="2051" on="1"/>
        <pt x="708" y="1550" on="1"/>
        <pt x="580" y="1472" on="1"/>
        <pt x="368" y="1849" on="1"/>
      </contour>
    </TTGlyph>
    <TTGlyph name="circumflex.cap" xMin="28" yMin="1472" xMax="708" yMax="2051">
      <contour>
        <pt x="156" y="1472" on="1"/>
        <pt x="28" y="1550" on="1"/>
        <pt x="320" y="2051" on="1"/>
        <pt x="416" y="2051" on="1"/>
        <pt x="708" y="1550" on="1"/>
        <pt x="580" y="1472" on="1"/>
        <pt x="368" y="1849" on="1"/>
      </contour>
    </TTGlyph>
    <TTGlyph name="colon" xMin="240" yMin="0" xMax="510" yMax="864">
      <contour>
        <pt x="240" y="281" on="1"/>
        <pt x="510" y="281" on="1"/>
        <pt x="510" y="0" on="1"/>
        <pt x="240" y="0" on="1"/>
      </contour>
      <contour>
        <pt x="240" y="864" on="1"/>
        <pt x="510" y="864" on="1"/>
        <pt x="510" y="583" on="1"/>
        <pt x="240" y="583" on="1"/>
      </contour>
    </TTGlyph>
    <TTGlyph name="comma" xMin="160" yMin="-303" xMax="441" yMax="243">
      <contour>
        <pt x="160" y="0" on="1"/>
        <pt x="160" y="243" on="1"/>
        <pt x="441" y="243" on="1"/>
        <pt x="441" y="44" on="1"/>
        <pt x="441" y="-90" on="0"/>
        <pt x="324" y="-267" on="0"/>
        <pt x="212" y="-303" on="1"/>
        <pt x="161" y="-209" on="1"/>
        <pt x="199" y="-193" on="0"/>
        <pt x="249" y="-154" on="0"/>
        <pt x="279" y="-105" on="0"/>
        <pt x="291" y="-42" on="0"/>
        <pt x="291" y="0" on="1"/>
      </contour>
    </TTGlyph>
    <TTGlyph name="commaaccent" xMin="185" yMin="107" xMax="466" yMax="653">
      <contour>
        <pt x="185" y="410" on="1"/>
        <pt x="185" y="653" on="1"/>
        <pt x="466" y="653" on="1"/>
        <pt x="466" y="454" on="1"/>
        <pt x="466" y="320" on="0"/>
        <pt x="349" y="143" on="0"/>
        <pt x="237" y="107" on="1"/>
        <pt x="186" y="201" on="1"/>
        <pt x="224" y="217" on="0"/>
        <pt x="274" y="256" on="0"/>
        <pt x="304" y="305" on="0"/>
        <pt x="316" y="368" on="0"/>
        <pt x="316" y="410" on="1"/>
      </contour>
    </TTGlyph>
    <TTGlyph name="copyright" xMin="283" yMin="-23" xMax="2033" yMax="1687">
      <contour>
        <pt x="1195" y="336" on="1"/>
        <pt x="1039" y="336" on="0"/>
        <pt x="836" y="420" on="0"/>
        <pt x="719" y="558" on="0"/>
        <pt x="673" y="736" on="0"/>
        <pt x="673" y="831" on="1"/>
        <pt x="673" y="926" on="0"/>
        <pt x="719" y="1104" on="0"/>
        <pt x="836" y="1242" on="0"/>
        <pt x="1039" y="1326" on="0"/>
        <pt x="1195" y="1326" on="1"/>
        <pt x="1322" y="1326" on="0"/>
        <pt x="1475" y="1248" on="1"/>
        <pt x="1475" y="1122" on="1"/>
        <pt x="1324" y="1198" on="0"/>
        <pt x="1181" y="1198" on="1"/>
        <pt x="1094" y="1198" on="0"/>
        <pt x="964" y="1164" on="0"/>
        <pt x="878" y="1080" on="0"/>
        <pt x="835" y="938" on="0"/>
        <pt x="835" y="831" on="1"/>
        <pt x="835" y="724" on="0"/>
        <pt x="878" y="582" on="0"/>
        <pt x="964" y="498" on="0"/>
        <pt x="1094" y="464" on="0"/>
        <pt x="1181" y="464" on="1"/>
        <pt x="1324" y="464" on="0"/>
        <pt x="1475" y="540" on="1"/>
        <pt x="1475" y="414" on="1"/>
        <pt x="1322" y="336" on="0"/>
      </contour>
      <contour>
        <pt x="283" y="830" on="1"/>
        <pt x="283" y="961" on="0"/>
        <pt x="353" y="1189" on="0"/>
        <pt x="477" y="1379" on="0"/>
        <pt x="645" y="1529" on="0"/>
        <pt x="839" y="1633" on="0"/>
        <pt x="1051" y="1687" on="0"/>
        <pt x="1158" y="1687" on="1"/>
        <pt x="1265" y="1687" on="0"/>
        <pt x="1478" y="1632" on="0"/>
        <pt x="1673" y="1528" on="0"/>
        <pt x="1840" y="1378" on="0"/>
        <pt x="1963" y="1188" on="0"/>
        <pt x="2033" y="960" on="0"/>
        <pt x="2033" y="830" on="1"/>
        <pt x="2032" y="702" on="0"/>
        <pt x="1966" y="476" on="0"/>
        <pt x="1847" y="287" on="0"/>
        <pt x="1683" y="136" on="0"/>
        <pt x="1489" y="32" on="0"/>
        <pt x="1271" y="-23" on="0"/>
        <pt x="1158" y="-23" on="1"/>
        <pt x="1047" y="-23" on="0"/>
        <pt x="831" y="31" on="0"/>
        <pt x="636" y="133" on="0"/>
        <pt x="471" y="282" on="0"/>
        <pt x="351" y="472" on="0"/>
        <pt x="283" y="699" on="0"/>
      </contour>
      <contour>
        <pt x="431" y="829" on="1"/>
        <pt x="431" y="677" on="0"/>
        <pt x="536" y="412" on="0"/>
        <pt x="727" y="215" on="0"/>
        <pt x="995" y="101" on="0"/>
        <pt x="1158" y="101" on="1"/>
        <pt x="1321" y="101" on="0"/>
        <pt x="1589" y="215" on="0"/>
        <pt x="1780" y="412" on="0"/>
        <pt x="1885" y="677" on="0"/>
        <pt x="1885" y="829" on="1"/>
        <pt x="1885" y="942" on="0"/>
        <pt x="1825" y="1139" on="0"/>
        <pt x="1722" y="1302" on="0"/>
        <pt x="1581" y="1429" on="0"/>
        <pt x="1420" y="1516" on="0"/>
        <pt x="1245" y="1562" on="0"/>
        <pt x="1158" y="1562" on="1"/>
        <pt x="1070" y="1562" on="0"/>
        <pt x="894" y="1516" on="0"/>
        <pt x="732" y="1428" on="0"/>
        <pt x="593" y="1301" on="0"/>
        <pt x="490" y="1138" on="0"/>
        <pt x="431" y="942" on="0"/>
      </contour>
    </TTGlyph>
    <TTGlyph name="currency" xMin="94" yMin="430" xMax="1190" yMax="1526">
      <contour>
        <pt x="443" y="1177" on="1"/>
        <pt x="356" y="1088" on="0"/>
        <pt x="356" y="975" on="1"/>
        <pt x="356" y="919" on="0"/>
        <pt x="401" y="819" on="0"/>
        <pt x="476" y="744" on="0"/>
        <pt x="576" y="699" on="0"/>
        <pt x="630" y="699" on="1"/>
        <pt x="687" y="699" on="0"/>
        <pt x="792" y="748" on="0"/>
        <pt x="873" y="829" on="0"/>
        <pt x="922" y="935" on="0"/>
        <pt x="922" y="992" on="1"/>
        <pt x="922" y="1047" on="0"/>
        <pt x="877" y="1147" on="0"/>
        <pt x="802" y="1222" on="0"/>
        <pt x="702" y="1266" on="0"/>
        <pt x="648" y="1266" on="1"/>
        <pt x="532" y="1266" on="0"/>
      </contour>
      <contour>
        <pt x="281" y="742" on="1"/>
        <pt x="213" y="845" on="0"/>
        <pt x="213" y="967" on="1"/>
        <pt x="213" y="1097" on="0"/>
        <pt x="288" y="1208" on="1"/>
        <pt x="94" y="1402" on="1"/>
        <pt x="218" y="1526" on="1"/>
        <pt x="412" y="1333" on="1"/>
        <pt x="524" y="1409" on="0"/>
        <pt x="655" y="1409" on="1"/>
        <pt x="777" y="1409" on="0"/>
        <pt x="880" y="1341" on="1"/>
        <pt x="1066" y="1526" on="1"/>
        <pt x="1190" y="1402" on="1"/>
        <pt x="1003" y="1215" on="1"/>
        <pt x="1064" y="1118" on="0"/>
        <pt x="1064" y="1000" on="1"/>
        <pt x="1064" y="869" on="0"/>
        <pt x="988" y="757" on="1"/>
        <pt x="1190" y="555" on="1"/>
        <pt x="1066" y="430" on="1"/>
        <pt x="863" y="633" on="1"/>
        <pt x="753" y="558" on="0"/>
        <pt x="623" y="558" on="1"/>
        <pt x="505" y="558" on="0"/>
        <pt x="407" y="619" on="1"/>
        <pt x="218" y="430" on="1"/>
        <pt x="94" y="555" on="1"/>
      </contour>
    </TTGlyph>
    <TTGlyph name="d" xMin="113" yMin="-20" xMax="1130" yMax="1614">
      <contour>
        <pt x="113" y="584" on="1"/>
        <pt x="113" y="708" on="0"/>
        <pt x="172" y="928" on="0"/>
        <pt x="288" y="1093" on="0"/>
        <pt x="461" y="1190" on="0"/>
        <pt x="575" y="1190" on="1"/>
        <pt x="634" y="1190" on="0"/>
        <pt x="745" y="1161" on="0"/>
        <pt x="841" y="1115" on="0"/>
        <pt x="917" y="1057" on="0"/>
        <pt x="940" y="1028" on="1"/>
        <pt x="940" y="1579" on="1"/>
        <pt x="1130" y="1614" on="1"/>
        <pt x="1130" y="0" on="1"/>
        <pt x="989" y="0" on="1"/>
        <pt x="961" y="179" on="1"/>
        <pt x="932" y="141" on="0"/>
        <pt x="852" y="70" on="0"/>
        <pt x="757" y="14" on="0"/>
        <pt x="651" y="-20" on="0"/>
        <pt x="597" y="-20" on="1"/>
        <pt x="468" y="-20" on="0"/>
        <pt x="285" y="78" on="0"/>
        <pt x="168" y="244" on="0"/>
        <pt x="113" y="463" on="0"/>
      </contour>
      <contour>
        <pt x="302" y="587" on="1"/>
        <pt x="302" y="354" on="0"/>
        <pt x="453" y="119" on="0"/>
        <pt x="608" y="119" on="1"/>
        <pt x="661" y="119" on="0"/>
        <pt x="760" y="148" on="0"/>
        <pt x="846" y="194" on="0"/>
        <pt x="916" y="249" on="0"/>
        <pt x="940" y="275" on="1"/>
        <pt x="940" y="903" on="1"/>
        <pt x="851" y="975" on="0"/>
        <pt x="684" y="1051" on="0"/>
        <pt x="606" y="1051" on="1"/>
        <pt x="575" y="1051" on="0"/>
        <pt x="506" y="1039" on="0"/>
        <pt x="439" y="1004" on="0"/>
        <pt x="377" y="941" on="0"/>
        <pt x="330" y="838" on="0"/>
        <pt x="302" y="689" on="0"/>
      </contour>
    </TTGlyph>
    <TTGlyph name="dagger" xMin="57" yMin="0" xMax="911" yMax="1468">
      <contour>
        <pt x="911" y="1020" on="1"/>
        <pt x="583" y="1020" on="1"/>
        <pt x="583" y="0" on="1"/>
        <pt x="393" y="0" on="1"/>
        <pt x="393" y="1020" on="1"/>
        <pt x="57" y="1020" on="1"/>
        <pt x="57" y="1161" on="1"/>
        <pt x="392" y="1161" on="1"/>
        <pt x="392" y="1468" on="1"/>
        <pt x="585" y="1468" on="1"/>
        <pt x="585" y="1161" on="1"/>
        <pt x="911" y="1161" on="1"/>
      </contour>
    </TTGlyph>
    <TTGlyph name="daggerdbl" xMin="57" yMin="0" xMax="911" yMax="1468">
      <contour>
        <pt x="911" y="1020" on="1"/>
        <pt x="583" y="1020" on="1"/>
        <pt x="583" y="444" on="1"/>
        <pt x="909" y="444" on="1"/>
        <pt x="909" y="305" on="1"/>
        <pt x="583" y="305" on="1"/>
        <pt x="583" y="0" on="1"/>
        <pt x="392" y="0" on="1"/>
        <pt x="392" y="305" on="1"/>
        <pt x="57" y="305" on="1"/>
        <pt x="57" y="444" on="1"/>
        <pt x="392" y="444" on="1"/>
        <pt x="392" y="1020" on="1"/>
        <pt x="57" y="1020" on="1"/>
        <pt x="57" y="1161" on="1"/>
        <pt x="392" y="1161" on="1"/>
        <pt x="392" y="1468" on="1"/>
        <pt x="585" y="1468" on="1"/>
        <pt x="585" y="1161" on="1"/>
        <pt x="911" y="1161" on="1"/>
      </contour>
    </TTGlyph>
    <TTGlyph name="degree" xMin="195" yMin="660" xMax="675" yMax="1139">
      <contour>
        <pt x="437" y="1048" on="1"/>
        <pt x="405" y="1048" on="0"/>
        <pt x="352" y="1024" on="0"/>
        <pt x="314" y="984" on="0"/>
        <pt x="292" y="929" on="0"/>
        <pt x="292" y="899" on="1"/>
        <pt x="292" y="868" on="0"/>
        <pt x="315" y="814" on="0"/>
        <pt x="354" y="773" on="0"/>
        <pt x="407" y="750" on="0"/>
        <pt x="437" y="750" on="1"/>
        <pt x="468" y="750" on="0"/>
        <pt x="520" y="773" on="0"/>
        <pt x="558" y="814" on="0"/>
        <pt x="578" y="868" on="0"/>
        <pt x="578" y="899" on="1"/>
        <pt x="578" y="930" on="0"/>
        <pt x="558" y="985" on="0"/>
        <pt x="520" y="1025" on="0"/>
        <pt x="468" y="1048" on="0"/>
      </contour>
      <contour>
        <pt x="439" y="1139" on="1"/>
        <pt x="491" y="1139" on="0"/>
        <pt x="578" y="1103" on="0"/>
        <pt x="640" y="1038" on="0"/>
        <pt x="675" y="950" on="0"/>
        <pt x="675" y="899" on="1"/>
        <pt x="675" y="848" on="0"/>
        <pt x="641" y="760" on="0"/>
        <pt x="579" y="696" on="0"/>
        <pt x="492" y="660" on="0"/>
        <pt x="439" y="660" on="1"/>
        <pt x="385" y="660" on="0"/>
        <pt x="295" y="697" on="0"/>
        <pt x="230" y="761" on="0"/>
        <pt x="195" y="848" on="0"/>
        <pt x="195" y="899" on="1"/>
        <pt x="195" y="951" on="0"/>
        <pt x="231" y="1039" on="0"/>
        <pt x="296" y="1103" on="0"/>
        <pt x="386" y="1139" on="0"/>
      </contour>
    </TTGlyph>
    <TTGlyph name="dieresis" xMin="215" yMin="1358" xMax="925" yMax="1588">
      <contour>
        <pt x="327" y="1588" on="1"/>
        <pt x="375" y="1588" on="0"/>
        <pt x="435" y="1521" on="0"/>
        <pt x="435" y="1473" on="1"/>
        <pt x="435" y="1425" on="0"/>
        <pt x="375" y="1358" on="0"/>
        <pt x="327" y="1358" on="1"/>
        <pt x="302" y="1358" on="0"/>
        <pt x="261" y="1376" on="0"/>
        <pt x="231" y="1408" on="0"/>
        <pt x="215" y="1450" on="0"/>
        <pt x="215" y="1473" on="1"/>
        <pt x="215" y="1496" on="0"/>
        <pt x="231" y="1538" on="0"/>
        <pt x="261" y="1569" on="0"/>
        <pt x="302" y="1588" on="0"/>
      </contour>
      <contour>
        <pt x="817" y="1588" on="1"/>
        <pt x="865" y="1588" on="0"/>
        <pt x="925" y="1521" on="0"/>
        <pt x="925" y="1473" on="1"/>
        <pt x="925" y="1425" on="0"/>
        <pt x="865" y="1358" on="0"/>
        <pt x="817" y="1358" on="1"/>
        <pt x="792" y="1358" on="0"/>
        <pt x="751" y="1376" on="0"/>
        <pt x="721" y="1408" on="0"/>
        <pt x="705" y="1450" on="0"/>
        <pt x="705" y="1473" on="1"/>
        <pt x="705" y="1496" on="0"/>
        <pt x="721" y="1538" on="0"/>
        <pt x="751" y="1569" on="0"/>
        <pt x="792" y="1588" on="0"/>
      </contour>
    </TTGlyph>
    <TTGlyph name="dieresis.cap" xMin="215" yMin="1358" xMax="925" yMax="1588">
      <contour>
        <pt x="327" y="1588" on="1"/>
        <pt x="375" y="1588" on="0"/>
        <pt x="435" y="1521" on="0"/>
        <pt x="435" y="1473" on="1"/>
        <pt x="435" y="1425" on="0"/>
        <pt x="375" y="1358" on="0"/>
        <pt x="327" y="1358" on="1"/>
        <pt x="302" y="1358" on="0"/>
        <pt x="261" y="1376" on="0"/>
        <pt x="231" y="1408" on="0"/>
        <pt x="215" y="1450" on="0"/>
        <pt x="215" y="1473" on="1"/>
        <pt x="215" y="1496" on="0"/>
        <pt x="231" y="1538" on="0"/>
        <pt x="261" y="1569" on="0"/>
        <pt x="302" y="1588" on="0"/>
      </contour>
      <contour>
        <pt x="817" y="1588" on="1"/>
        <pt x="865" y="1588" on="0"/>
        <pt x="925" y="1521" on="0"/>
        <pt x="925" y="1473" on="1"/>
        <pt x="925" y="1425" on="0"/>
        <pt x="865" y="1358" on="0"/>
        <pt x="817" y="1358" on="1"/>
        <pt x="792" y="1358" on="0"/>
        <pt x="751" y="1376" on="0"/>
        <pt x="721" y="1408" on="0"/>
        <pt x="705" y="1450" on="0"/>
        <pt x="705" y="1473" on="1"/>
        <pt x="705" y="1496" on="0"/>
        <pt x="721" y="1538" on="0"/>
        <pt x="751" y="1569" on="0"/>
        <pt x="792" y="1588" on="0"/>
      </contour>
    </TTGlyph>
    <TTGlyph name="divide" xMin="74" yMin="215" xMax="756" yMax="930">
      <contour>
        <pt x="756" y="508" on="1"/>
        <pt x="74" y="508" on="1"/>
        <pt x="74" y="639" on="1"/>
        <pt x="756" y="639" on="1"/>
      </contour>
      <contour>
        <pt x="413" y="930" on="1"/>
        <pt x="461" y="930" on="0"/>
        <pt x="521" y="863" on="0"/>
        <pt x="521" y="815" on="1"/>
        <pt x="521" y="767" on="0"/>
        <pt x="461" y="700" on="0"/>
        <pt x="413" y="700" on="1"/>
        <pt x="388" y="700" on="0"/>
        <pt x="347" y="718" on="0"/>
        <pt x="317" y="750" on="0"/>
        <pt x="301" y="792" on="0"/>
        <pt x="301" y="815" on="1"/>
        <pt x="301" y="838" on="0"/>
        <pt x="317" y="880" on="0"/>
        <pt x="347" y="911" on="0"/>
        <pt x="388" y="930" on="0"/>
      </contour>
      <contour>
        <pt x="411" y="445" on="1"/>
        <pt x="459" y="445" on="0"/>
        <pt x="519" y="378" on="0"/>
        <pt x="519" y="330" on="1"/>
        <pt x="519" y="282" on="0"/>
        <pt x="459" y="215" on="0"/>
        <pt x="411" y="215" on="1"/>
        <pt x="386" y="215" on="0"/>
        <pt x="345" y="233" on="0"/>
        <pt x="315" y="265" on="0"/>
        <pt x="299" y="307" on="0"/>
        <pt x="299" y="330" on="1"/>
        <pt x="299" y="353" on="0"/>
        <pt x="315" y="395" on="0"/>
        <pt x="345" y="426" on="0"/>
        <pt x="386" y="445" on="0"/>
      </contour>
    </TTGlyph>
    <TTGlyph name="dollar" xMin="170" yMin="-178" xMax="1072" yMax="1390">
      <contour>
        <pt x="234" y="63" on="1"/>
        <pt x="283" y="207" on="1"/>
        <pt x="294" y="203" on="0"/>
        <pt x="309" y="197" on="1"/>
        <pt x="322" y="192" on="0"/>
        <pt x="360" y="177" on="0"/>
        <pt x="386" y="167" on="1"/>
        <pt x="441" y="153" on="0"/>
        <pt x="539" y="134" on="0"/>
        <pt x="583" y="129" on="1"/>
        <pt x="583" y="572" on="1"/>
        <pt x="477" y="595" on="1"/>
        <pt x="406" y="610" on="0"/>
        <pt x="293" y="664" on="0"/>
        <pt x="213" y="745" on="0"/>
        <pt x="170" y="856" on="0"/>
        <pt x="170" y="929" on="1"/>
        <pt x="170" y="971" on="0"/>
        <pt x="193" y="1041" on="0"/>
        <pt x="228" y="1099" on="0"/>
        <pt x="271" y="1143" on="0"/>
        <pt x="291" y="1159" on="1"/>
        <pt x="338" y="1195" on="0"/>
        <pt x="482" y="1237" on="0"/>
        <pt x="583" y="1240" on="1"/>
        <pt x="583" y="1390" on="1"/>
        <pt x="686" y="1390" on="1"/>
        <pt x="686" y="1236" on="1"/>
        <pt x="737" y="1235" on="0"/>
        <pt x="853" y="1220" on="0"/>
        <pt x="952" y="1201" on="0"/>
        <pt x="1017" y="1180" on="0"/>
        <pt x="1017" y="1172" on="1"/>
        <pt x="1017" y="1171" on="1"/>
        <pt x="965" y="1040" on="1"/>
        <pt x="960" y="1042" on="0"/>
        <pt x="955" y="1044" on="1"/>
        <pt x="950" y="1046" on="0"/>
        <pt x="936" y="1050" on="0"/>
        <pt x="927" y="1054" on="1"/>
        <pt x="886" y="1066" on="1"/>
        <pt x="836" y="1081" on="0"/>
        <pt x="836" y="1081" on="1"/>
        <pt x="686" y="1098" on="1"/>
        <pt x="686" y="709" on="1"/>
        <pt x="718" y="698" on="1"/>
        <pt x="822" y="661" on="0"/>
        <pt x="958" y="585" on="0"/>
        <pt x="1039" y="499" on="0"/>
        <pt x="1072" y="400" on="0"/>
        <pt x="1072" y="340" on="1"/>
        <pt x="1072" y="244" on="0"/>
        <pt x="1007" y="112" on="0"/>
        <pt x="899" y="30" on="0"/>
        <pt x="760" y="-12" on="0"/>
        <pt x="686" y="-18" on="1"/>
        <pt x="686" y="-178" on="1"/>
        <pt x="583" y="-178" on="1"/>
        <pt x="583" y="-20" on="1"/>
        <pt x="458" y="-11" on="0"/>
        <pt x="380" y="15" on="1"/>
      </contour>
      <contour>
        <pt x="686" y="539" on="1"/>
        <pt x="686" y="134" on="1"/>
        <pt x="736" y="135" on="0"/>
        <pt x="818" y="164" on="0"/>
        <pt x="876" y="216" on="0"/>
        <pt x="907" y="287" on="0"/>
        <pt x="907" y="329" on="1"/>
        <pt x="907" y="372" on="0"/>
        <pt x="874" y="437" on="0"/>
        <pt x="817" y="485" on="0"/>
        <pt x="739" y="521" on="0"/>
        <pt x="694" y="536" on="1"/>
      </contour>
      <contour>
        <pt x="583" y="745" on="1"/>
        <pt x="583" y="1100" on="1"/>
        <pt x="534" y="1100" on="0"/>
        <pt x="465" y="1092" on="0"/>
        <pt x="417" y="1077" on="0"/>
        <pt x="386" y="1055" on="0"/>
        <pt x="375" y="1042" on="1"/>
        <pt x="333" y="990" on="0"/>
        <pt x="333" y="924" on="1"/>
        <pt x="333" y="898" on="0"/>
        <pt x="350" y="854" on="0"/>
        <pt x="391" y="814" on="0"/>
        <pt x="457" y="777" on="0"/>
        <pt x="507" y="759" on="1"/>
      </contour>
    </TTGlyph>
    <TTGlyph name="dotaccent" xMin="124" yMin="1347" xMax="344" yMax="1577">
      <contour>
        <pt x="236" y="1577" on="1"/>
        <pt x="284" y="1577" on="0"/>
        <pt x="344" y="1510" on="0"/>
        <pt x="344" y="1462" on="1"/>
        <pt x="344" y="1414" on="0"/>
        <pt x="284" y="1347" on="0"/>
        <pt x="236" y="1347" on="1"/>
        <pt x="211" y="1347" on="0"/>
        <pt x="170" y="1365" on="0"/>
        <pt x="140" y="1397" on="0"/>
        <pt x="124" y="1439" on="0"/>
        <pt x="124" y="1462" on="1"/>
        <pt x="124" y="1485" on="0"/>
        <pt x="140" y="1527" on="0"/>
        <pt x="170" y="1558" on="0"/>
        <pt x="211" y="1577" on="0"/>
      </contour>
    </TTGlyph>
    <TTGlyph name="dotaccentcmb" xMin="124" yMin="1347" xMax="344" yMax="1577">
      <contour>
        <pt x="236" y="1577" on="1"/>
        <pt x="284" y="1577" on="0"/>
        <pt x="344" y="1510" on="0"/>
        <pt x="344" y="1462" on="1"/>
        <pt x="344" y="1414" on="0"/>
        <pt x="284" y="1347" on="0"/>
        <pt x="236" y="1347" on="1"/>
        <pt x="211" y="1347" on="0"/>
        <pt x="170" y="1365" on="0"/>
        <pt x="140" y="1397" on="0"/>
        <pt x="124" y="1439" on="0"/>
        <pt x="124" y="1462" on="1"/>
        <pt x="124" y="1485" on="0"/>
        <pt x="140" y="1527" on="0"/>
        <pt x="170" y="1558" on="0"/>
        <pt x="211" y="1577" on="0"/>
      </contour>
    </TTGlyph>
    <TTGlyph name="dotaccentcmb.cap" xMin="124" yMin="1347" xMax="344" yMax="1577">
      <contour>
        <pt x="236" y="1577" on="1"/>
        <pt x="284" y="1577" on="0"/>
        <pt x="344" y="1510" on="0"/>
        <pt x="344" y="1462" on="1"/>
        <pt x="344" y="1414" on="0"/>
        <pt x="284" y="1347" on="0"/>
        <pt x="236" y="1347" on="1"/>
        <pt x="211" y="1347" on="0"/>
        <pt x="170" y="1365" on="0"/>
        <pt x="140" y="1397" on="0"/>
        <pt x="124" y="1439" on="0"/>
        <pt x="124" y="1462" on="1"/>
        <pt x="124" y="1485" on="0"/>
        <pt x="140" y="1527" on="0"/>
        <pt x="170" y="1558" on="0"/>
        <pt x="211" y="1577" on="0"/>
      </contour>
    </TTGlyph>
    <TTGlyph name="dotlessi" xMin="144" yMin="0" xMax="326" yMax="1169">
      <contour>
        <pt x="326" y="0" on="1"/>
        <pt x="144" y="0" on="1"/>
        <pt x="144" y="1169" on="1"/>
        <pt x="326" y="1169" on="1"/>
      </contour>
    </TTGlyph>
    <TTGlyph name="dotlessj" xMin="-37" yMin="-373" xMax="353" yMax="1577">
      <contour>
        <pt x="-37" y="-258" on="1"/>
        <pt x="30" y="-215" on="0"/>
        <pt x="106" y="-121" on="0"/>
        <pt x="143" y="-14" on="0"/>
        <pt x="151" y="107" on="0"/>
        <pt x="151" y="176" on="1"/>
        <pt x="151" y="1169" on="1"/>
        <pt x="341" y="1169" on="1"/>
        <pt x="341" y="154" on="1"/>
        <pt x="341" y="38" on="0"/>
        <pt x="287" y="-143" on="0"/>
        <pt x="196" y="-275" on="0"/>
        <pt x="76" y="-357" on="0"/>
        <pt x="10" y="-373" on="1"/>
      </contour>
      <contour>
        <pt x="245" y="1577" on="1"/>
        <pt x="293" y="1577" on="0"/>
        <pt x="353" y="1510" on="0"/>
        <pt x="353" y="1462" on="1"/>
        <pt x="353" y="1414" on="0"/>
        <pt x="293" y="1347" on="0"/>
        <pt x="245" y="1347" on="1"/>
        <pt x="220" y="1347" on="0"/>
        <pt x="179" y="1365" on="0"/>
        <pt x="149" y="1397" on="0"/>
        <pt x="133" y="1439" on="0"/>
        <pt x="133" y="1462" on="1"/>
        <pt x="133" y="1485" on="0"/>
        <pt x="149" y="1527" on="0"/>
        <pt x="179" y="1558" on="0"/>
        <pt x="220" y="1577" on="0"/>
      </contour>
    </TTGlyph>
    <TTGlyph name="e" xMin="113" yMin="-21" xMax="1080" yMax="1190">
      <contour>
        <pt x="901" y="717" on="1"/>
        <pt x="901" y="827" on="0"/>
        <pt x="847" y="959" on="0"/>
        <pt x="766" y="1029" on="0"/>
        <pt x="670" y="1051" on="0"/>
        <pt x="629" y="1051" on="1"/>
        <pt x="578" y="1051" on="0"/>
        <pt x="471" y="1022" on="0"/>
        <pt x="380" y="941" on="0"/>
        <pt x="314" y="797" on="0"/>
        <pt x="304" y="682" on="1"/>
        <pt x="901" y="682" on="1"/>
      </contour>
      <contour>
        <pt x="304" y="567" on="1"/>
        <pt x="306" y="467" on="0"/>
        <pt x="342" y="302" on="0"/>
        <pt x="423" y="184" on="0"/>
        <pt x="553" y="119" on="0"/>
        <pt x="649" y="119" on="1"/>
        <pt x="818" y="119" on="0"/>
        <pt x="955" y="236" on="1"/>
        <pt x="1017" y="119" on="1"/>
        <pt x="979" y="87" on="0"/>
        <pt x="878" y="35" on="0"/>
        <pt x="773" y="-1" on="0"/>
        <pt x="674" y="-21" on="0"/>
        <pt x="637" y="-21" on="1"/>
        <pt x="511" y="-21" on="0"/>
        <pt x="316" y="62" on="0"/>
        <pt x="182" y="217" on="0"/>
        <pt x="113" y="439" on="0"/>
        <pt x="113" y="578" on="1"/>
        <pt x="113" y="725" on="0"/>
        <pt x="191" y="953" on="0"/>
        <pt x="328" y="1109" on="0"/>
        <pt x="517" y="1190" on="0"/>
        <pt x="628" y="1190" on="1"/>
        <pt x="738" y="1190" on="0"/>
        <pt x="907" y="1116" on="0"/>
        <pt x="1021" y="981" on="0"/>
        <pt x="1080" y="792" on="0"/>
        <pt x="1080" y="676" on="1"/>
        <pt x="1080" y="652" on="0"/>
        <pt x="1076" y="598" on="0"/>
        <pt x="1072" y="567" on="1"/>
      </contour>
    </TTGlyph>
    <TTGlyph name="eacute" xMin="113" yMin="-21" xMax="1080" yMax="2109">
      <component glyphName="e" x="0" y="0" flags="0x4"/>
      <component glyphName="acute" x="35" y="0" flags="0x4"/>
    </TTGlyph>
    <TTGlyph name="ecircumflex" xMin="113" yMin="-21" xMax="1080" yMax="2051">
      <component glyphName="e" x="0" y="0" flags="0x4"/>
      <component glyphName="circumflex" x="167" y="0" flags="0x4"/>
    </TTGlyph>
    <TTGlyph name="edieresis" xMin="113" yMin="-21" xMax="1080" yMax="1588">
      <component glyphName="e" x="0" y="0" flags="0x4"/>
      <component glyphName="dieresis" x="111" y="0" flags="0x4"/>
    </TTGlyph>
    <TTGlyph name="egrave" xMin="113" yMin="-21" xMax="1080" yMax="2116">
      <component glyphName="e" x="0" y="0" flags="0x4"/>
      <component glyphName="grave" x="234" y="0" flags="0x4"/>
    </TTGlyph>
    <TTGlyph name="eight" xMin="139" yMin="-148" xMax="1085" yMax="1334">
      <contour>
        <pt x="618" y="1334" on="1"/>
        <pt x="718" y="1334" on="0"/>
        <pt x="890" y="1285" on="0"/>
        <pt x="1014" y="1191" on="0"/>
        <pt x="1085" y="1054" on="0"/>
        <pt x="1085" y="966" on="1"/>
        <pt x="1085" y="894" on="0"/>
        <pt x="1040" y="785" on="0"/>
        <pt x="966" y="705" on="0"/>
        <pt x="872" y="651" on="0"/>
        <pt x="823" y="634" on="1"/>
        <pt x="948" y="595" on="0"/>
        <pt x="1085" y="390" on="0"/>
        <pt x="1085" y="231" on="1"/>
        <pt x="1085" y="137" on="0"/>
        <pt x="1016" y="-5" on="0"/>
        <pt x="892" y="-100" on="0"/>
        <pt x="721" y="-148" on="0"/>
        <pt x="618" y="-148" on="1"/>
        <pt x="519" y="-148" on="0"/>
        <pt x="345" y="-102" on="0"/>
        <pt x="214" y="-8" on="0"/>
        <pt x="139" y="135" on="0"/>
        <pt x="139" y="233" on="1"/>
        <pt x="139" y="392" on="0"/>
        <pt x="276" y="597" on="0"/>
        <pt x="401" y="636" on="1"/>
        <pt x="353" y="652" on="0"/>
        <pt x="260" y="705" on="0"/>
        <pt x="185" y="785" on="0"/>
        <pt x="139" y="895" on="0"/>
        <pt x="139" y="968" on="1"/>
        <pt x="139" y="1056" on="0"/>
        <pt x="212" y="1192" on="0"/>
        <pt x="341" y="1285" on="0"/>
        <pt x="516" y="1334" on="0"/>
      </contour>
      <contour>
        <pt x="618" y="-9" on="1"/>
        <pt x="705" y="-9" on="0"/>
        <pt x="817" y="27" on="0"/>
        <pt x="882" y="95" on="0"/>
        <pt x="907" y="192" on="0"/>
        <pt x="907" y="253" on="1"/>
        <pt x="907" y="322" on="0"/>
        <pt x="864" y="439" on="0"/>
        <pt x="787" y="526" on="0"/>
        <pt x="681" y="575" on="0"/>
        <pt x="618" y="575" on="1"/>
        <pt x="553" y="575" on="0"/>
        <pt x="443" y="527" on="0"/>
        <pt x="363" y="442" on="0"/>
        <pt x="317" y="324" on="0"/>
        <pt x="317" y="255" on="1"/>
        <pt x="317" y="191" on="0"/>
        <pt x="347" y="93" on="0"/>
        <pt x="418" y="26" on="0"/>
        <pt x="533" y="-9" on="0"/>
      </contour>
      <contour>
        <pt x="618" y="691" on="1"/>
        <pt x="676" y="691" on="0"/>
        <pt x="781" y="732" on="0"/>
        <pt x="861" y="806" on="0"/>
        <pt x="907" y="905" on="0"/>
        <pt x="907" y="964" on="1"/>
        <pt x="907" y="1032" on="0"/>
        <pt x="859" y="1123" on="0"/>
        <pt x="778" y="1177" on="0"/>
        <pt x="674" y="1199" on="0"/>
        <pt x="618" y="1199" on="1"/>
        <pt x="565" y="1199" on="0"/>
        <pt x="458" y="1179" on="0"/>
        <pt x="371" y="1127" on="0"/>
        <pt x="317" y="1036" on="0"/>
        <pt x="317" y="966" on="1"/>
        <pt x="317" y="907" on="0"/>
        <pt x="366" y="806" on="0"/>
        <pt x="449" y="733" on="0"/>
        <pt x="558" y="691" on="0"/>
      </contour>
    </TTGlyph>
    <TTGlyph name="ellipsis" xMin="139" yMin="-17" xMax="1395" yMax="213">
      <contour>
        <pt x="251" y="213" on="1"/>
        <pt x="299" y="213" on="0"/>
        <pt x="359" y="146" on="0"/>
        <pt x="359" y="98" on="1"/>
        <pt x="359" y="50" on="0"/>
        <pt x="299" y="-17" on="0"/>
        <pt x="251" y="-17" on="1"/>
        <pt x="226" y="-17" on="0"/>
        <pt x="185" y="1" on="0"/>
        <pt x="155" y="33" on="0"/>
        <pt x="139" y="75" on="0"/>
        <pt x="139" y="98" on="1"/>
        <pt x="139" y="121" on="0"/>
        <pt x="155" y="163" on="0"/>
        <pt x="185" y="194" on="0"/>
        <pt x="226" y="213" on="0"/>
      </contour>
      <contour>
        <pt x="769" y="213" on="1"/>
        <pt x="817" y="213" on="0"/>
        <pt x="877" y="146" on="0"/>
        <pt x="877" y="98" on="1"/>
        <pt x="877" y="50" on="0"/>
        <pt x="817" y="-17" on="0"/>
        <pt x="769" y="-17" on="1"/>
        <pt x="744" y="-17" on="0"/>
        <pt x="703" y="1" on="0"/>
        <pt x="673" y="33" on="0"/>
        <pt x="657" y="75" on="0"/>
        <pt x="657" y="98" on="1"/>
        <pt x="657" y="121" on="0"/>
        <pt x="673" y="163" on="0"/>
        <pt x="703" y="194" on="0"/>
        <pt x="744" y="213" on="0"/>
      </contour>
      <contour>
        <pt x="1287" y="213" on="1"/>
        <pt x="1335" y="213" on="0"/>
        <pt x="1395" y="146" on="0"/>
        <pt x="1395" y="98" on="1"/>
        <pt x="1395" y="50" on="0"/>
        <pt x="1335" y="-17" on="0"/>
        <pt x="1287" y="-17" on="1"/>
        <pt x="1262" y="-17" on="0"/>
        <pt x="1221" y="1" on="0"/>
        <pt x="1191" y="33" on="0"/>
        <pt x="1175" y="75" on="0"/>
        <pt x="1175" y="98" on="1"/>
        <pt x="1175" y="121" on="0"/>
        <pt x="1191" y="163" on="0"/>
        <pt x="1221" y="194" on="0"/>
        <pt x="1262" y="213" on="0"/>
      </contour>
    </TTGlyph>
    <TTGlyph name="emdash" xMin="0" yMin="489" xMax="2048" yMax="633">
      <contour>
        <pt x="0" y="633" on="1"/>
        <pt x="2048" y="633" on="1"/>
        <pt x="2048" y="489" on="1"/>
        <pt x="0" y="489" on="1"/>
      </contour>
    </TTGlyph>
    <TTGlyph name="endash" xMin="0" yMin="489" xMax="1024" yMax="633">
      <contour>
        <pt x="0" y="633" on="1"/>
        <pt x="1024" y="633" on="1"/>
        <pt x="1024" y="489" on="1"/>
        <pt x="0" y="489" on="1"/>
      </contour>
    </TTGlyph>
    <TTGlyph name="equal" xMin="217" yMin="280" xMax="805" yMax="639">
      <contour>
        <pt x="805" y="508" on="1"/>
        <pt x="217" y="508" on="1"/>
        <pt x="217" y="639" on="1"/>
        <pt x="805" y="639" on="1"/>
      </contour>
      <contour>
        <pt x="805" y="280" on="1"/>
        <pt x="217" y="280" on="1"/>
        <pt x="217" y="411" on="1"/>
        <pt x="805" y="411" on="1"/>
      </contour>
    </TTGlyph>
    <TTGlyph name="eth" xMin="113" yMin="-20" xMax="1144" yMax="1743">
      <contour>
        <pt x="454" y="1401" on="1"/>
        <pt x="1102" y="1593" on="1"/>
        <pt x="1144" y="1503" on="1"/>
        <pt x="496" y="1311" on="1"/>
      </contour>
      <contour>
        <pt x="1130" y="690" on="1"/>
        <pt x="1130" y="-20" on="0"/>
        <pt x="597" y="-20" on="1"/>
        <pt x="468" y="-20" on="0"/>
        <pt x="285" y="78" on="0"/>
        <pt x="168" y="244" on="0"/>
        <pt x="113" y="463" on="0"/>
        <pt x="113" y="584" on="1"/>
        <pt x="113" y="708" on="0"/>
        <pt x="172" y="928" on="0"/>
        <pt x="288" y="1093" on="0"/>
        <pt x="461" y="1190" on="0"/>
        <pt x="575" y="1190" on="1"/>
        <pt x="633" y="1190" on="0"/>
        <pt x="744" y="1161" on="0"/>
        <pt x="840" y="1115" on="0"/>
        <pt x="917" y="1057" on="0"/>
        <pt x="940" y="1028" on="1"/>
        <pt x="913" y="1109" on="0"/>
        <pt x="814" y="1280" on="0"/>
        <pt x="681" y="1442" on="0"/>
        <pt x="522" y="1587" on="0"/>
        <pt x="436" y="1641" on="1"/>
        <pt x="520" y="1743" on="1"/>
        <pt x="586" y="1706" on="0"/>
        <pt x="728" y="1600" on="0"/>
        <pt x="863" y="1459" on="0"/>
        <pt x="985" y="1284" on="0"/>
        <pt x="1076" y="1074" on="0"/>
        <pt x="1130" y="830" on="0"/>
      </contour>
      <contour>
        <pt x="946" y="666" on="1"/>
        <pt x="946" y="742" on="0"/>
        <pt x="915" y="857" on="0"/>
        <pt x="863" y="942" on="0"/>
        <pt x="795" y="998" on="0"/>
        <pt x="723" y="1033" on="0"/>
        <pt x="650" y="1047" on="0"/>
        <pt x="619" y="1047" on="1"/>
        <pt x="581" y="1047" on="0"/>
        <pt x="503" y="1035" on="0"/>
        <pt x="431" y="1000" on="0"/>
        <pt x="368" y="937" on="0"/>
        <pt x="322" y="835" on="0"/>
        <pt x="295" y="688" on="0"/>
        <pt x="295" y="587" on="1"/>
        <pt x="295" y="123" on="0"/>
        <pt x="593" y="123" on="1"/>
        <pt x="678" y="123" on="0"/>
        <pt x="809" y="178" on="0"/>
        <pt x="899" y="305" on="0"/>
        <pt x="946" y="513" on="0"/>
      </contour>
    </TTGlyph>
    <TTGlyph name="exclam" xMin="309" yMin="-16" xMax="533" yMax="1579">
      <contour>
        <pt x="518" y="186" on="1"/>
        <pt x="518" y="-16" on="1"/>
        <pt x="309" y="-16" on="1"/>
        <pt x="309" y="186" on="1"/>
      </contour>
      <contour>
        <pt x="483" y="399" on="1"/>
        <pt x="359" y="399" on="1"/>
        <pt x="309" y="1579" on="1"/>
        <pt x="533" y="1579" on="1"/>
      </contour>
    </TTGlyph>
    <TTGlyph name="exclamdown" xMin="120" yMin="0" xMax="344" yMax="1595">
      <contour>
        <pt x="120" y="1393" on="1"/>
        <pt x="120" y="1595" on="1"/>
        <pt x="329" y="1595" on="1"/>
        <pt x="329" y="1393" on="1"/>
      </contour>
      <contour>
        <pt x="344" y="0" on="1"/>
        <pt x="170" y="0" on="1"/>
        <pt x="170" y="1180" on="1"/>
        <pt x="344" y="1180" on="1"/>
      </contour>
    </TTGlyph>
    <TTGlyph name="f" xMin="47" yMin="0" xMax="815" yMax="1659">
      <contour>
        <pt x="597" y="1516" on="1"/>
        <pt x="549" y="1516" on="0"/>
        <pt x="486" y="1501" on="0"/>
        <pt x="448" y="1457" on="0"/>
        <pt x="432" y="1379" on="0"/>
        <pt x="432" y="1316" on="1"/>
        <pt x="432" y="1243" on="1"/>
        <pt x="432" y="1169" on="1"/>
        <pt x="780" y="1169" on="1"/>
        <pt x="780" y="1064" on="1"/>
        <pt x="432" y="1064" on="1"/>
        <pt x="432" y="0" on="1"/>
        <pt x="242" y="0" on="1"/>
        <pt x="242" y="1064" on="1"/>
        <pt x="47" y="1064" on="1"/>
        <pt x="47" y="1169" on="1"/>
        <pt x="242" y="1169" on="1"/>
        <pt x="242" y="1198" on="1"/>
        <pt x="242" y="1338" on="0"/>
        <pt x="289" y="1517" on="0"/>
        <pt x="376" y="1620" on="0"/>
        <pt x="498" y="1659" on="0"/>
        <pt x="573" y="1659" on="1"/>
        <pt x="617" y="1659" on="0"/>
        <pt x="704" y="1632" on="0"/>
        <pt x="773" y="1599" on="0"/>
        <pt x="815" y="1569" on="0"/>
        <pt x="815" y="1567" on="1"/>
        <pt x="752" y="1442" on="1"/>
        <pt x="669" y="1516" on="0"/>
      </contour>
    </TTGlyph>
    <TTGlyph name="fi" xMin="47" yMin="0" xMax="1267" yMax="1659">
      <component glyphName="f" x="0" y="0" flags="0x4"/>
      <component glyphName="i" x="854" y="0" flags="0x4"/>
    </TTGlyph>
    <TTGlyph name="five" xMin="158" yMin="-207" xMax="1030" yMax="1169">
      <contour>
        <pt x="541" y="-56" on="1"/>
        <pt x="858" y="-56" on="0"/>
        <pt x="858" y="244" on="1"/>
        <pt x="858" y="395" on="0"/>
        <pt x="705" y="562" on="0"/>
        <pt x="561" y="562" on="1"/>
        <pt x="454" y="562" on="0"/>
        <pt x="262" y="468" on="1"/>
        <pt x="194" y="537" on="1"/>
        <pt x="194" y="1169" on="1"/>
        <pt x="942" y="1169" on="1"/>
        <pt x="942" y="1018" on="1"/>
        <pt x="339" y="1018" on="1"/>
        <pt x="339" y="622" on="1"/>
        <pt x="339" y="621" on="0"/>
        <pt x="366" y="645" on="0"/>
        <pt x="424" y="674" on="0"/>
        <pt x="515" y="698" on="0"/>
        <pt x="579" y="698" on="1"/>
        <pt x="679" y="698" on="0"/>
        <pt x="845" y="634" on="0"/>
        <pt x="964" y="517" on="0"/>
        <pt x="1030" y="351" on="0"/>
        <pt x="1030" y="248" on="1"/>
        <pt x="1030" y="143" on="0"/>
        <pt x="962" y="-25" on="0"/>
        <pt x="835" y="-144" on="0"/>
        <pt x="653" y="-207" on="0"/>
        <pt x="539" y="-207" on="1"/>
        <pt x="458" y="-207" on="0"/>
        <pt x="319" y="-177" on="0"/>
        <pt x="216" y="-141" on="0"/>
        <pt x="158" y="-113" on="0"/>
        <pt x="158" y="-115" on="1"/>
        <pt x="209" y="31" on="1"/>
        <pt x="215" y="28" on="1"/>
        <pt x="227" y="22" on="0"/>
        <pt x="291" y="-6" on="0"/>
        <pt x="381" y="-34" on="0"/>
        <pt x="487" y="-56" on="0"/>
      </contour>
    </TTGlyph>
    <TTGlyph name="fl" xMin="47" yMin="0" xMax="1237" yMax="1659">
      <component glyphName="f" x="0" y="0" flags="0x4"/>
      <component glyphName="l" x="854" y="0" flags="0x4"/>
    </TTGlyph>
    <TTGlyph name="florin" xMin="32" yMin="-391" xMax="1312" yMax="1659">
      <contour>
        <pt x="599" y="764" on="1"/>
        <pt x="404" y="764" on="1"/>
        <pt x="422" y="869" on="1"/>
        <pt x="617" y="869" on="1"/>
        <pt x="687" y="1268" on="1"/>
        <pt x="708" y="1387" on="0"/>
        <pt x="781" y="1539" on="0"/>
        <pt x="883" y="1626" on="0"/>
        <pt x="1011" y="1659" on="0"/>
        <pt x="1086" y="1659" on="1"/>
        <pt x="1130" y="1659" on="0"/>
        <pt x="1212" y="1632" on="0"/>
        <pt x="1275" y="1599" on="0"/>
        <pt x="1312" y="1569" on="0"/>
        <pt x="1312" y="1567" on="1"/>
        <pt x="1227" y="1442" on="1"/>
        <pt x="1158" y="1516" on="0"/>
        <pt x="1085" y="1516" on="1"/>
        <pt x="1037" y="1516" on="0"/>
        <pt x="971" y="1501" on="0"/>
        <pt x="926" y="1457" on="0"/>
        <pt x="896" y="1379" on="0"/>
        <pt x="885" y="1316" on="1"/>
        <pt x="807" y="869" on="1"/>
        <pt x="1055" y="869" on="1"/>
        <pt x="1037" y="764" on="1"/>
        <pt x="789" y="764" on="1"/>
        <pt x="656" y="0" on="1"/>
        <pt x="635" y="-119" on="0"/>
        <pt x="561" y="-271" on="0"/>
        <pt x="459" y="-358" on="0"/>
        <pt x="332" y="-391" on="0"/>
        <pt x="257" y="-391" on="1"/>
        <pt x="213" y="-391" on="0"/>
        <pt x="132" y="-364" on="0"/>
        <pt x="69" y="-331" on="0"/>
        <pt x="32" y="-301" on="0"/>
        <pt x="32" y="-299" on="1"/>
        <pt x="117" y="-174" on="1"/>
        <pt x="186" y="-248" on="0"/>
        <pt x="258" y="-248" on="1"/>
        <pt x="306" y="-248" on="0"/>
        <pt x="372" y="-233" on="0"/>
        <pt x="417" y="-189" on="0"/>
        <pt x="447" y="-111" on="0"/>
        <pt x="458" y="-48" on="1"/>
      </contour>
    </TTGlyph>
    <TTGlyph name="four" xMin="100" yMin="-260" xMax="1132" yMax="1208">
      <contour>
        <pt x="784" y="1208" on="1"/>
        <pt x="946" y="1169" on="1"/>
        <pt x="946" y="207" on="1"/>
        <pt x="1132" y="207" on="1"/>
        <pt x="1132" y="68" on="1"/>
        <pt x="946" y="68" on="1"/>
        <pt x="946" y="-260" on="1"/>
        <pt x="775" y="-260" on="1"/>
        <pt x="775" y="68" on="1"/>
        <pt x="128" y="68" on="1"/>
        <pt x="100" y="205" on="1"/>
      </contour>
      <contour>
        <pt x="775" y="930" on="1"/>
        <pt x="285" y="205" on="1"/>
        <pt x="775" y="205" on="1"/>
      </contour>
    </TTGlyph>
    <TTGlyph name="foursuperior" xMin="237" yMin="382" xMax="1080" yMax="1578">
      <contour>
        <pt x="801" y="1578" on="1"/>
        <pt x="929" y="1547" on="1"/>
        <pt x="929" y="777" on="1"/>
        <pt x="1080" y="777" on="1"/>
        <pt x="1080" y="666" on="1"/>
        <pt x="929" y="666" on="1"/>
        <pt x="929" y="405" on="1"/>
        <pt x="784" y="382" on="1"/>
        <pt x="784" y="666" on="1"/>
        <pt x="259" y="666" on="1"/>
        <pt x="237" y="776" on="1"/>
      </contour>
      <contour>
        <pt x="396" y="776" on="1"/>
        <pt x="784" y="776" on="1"/>
        <pt x="784" y="1335" on="1"/>
        <pt x="662" y="1146" on="1"/>
      </contour>
    </TTGlyph>
    <TTGlyph name="fraction" xMin="7" yMin="-172" xMax="788" yMax="1731">
      <contour>
        <pt x="788" y="1679" on="1"/>
        <pt x="167" y="-172" on="1"/>
        <pt x="7" y="-114" on="1"/>
        <pt x="630" y="1731" on="1"/>
      </contour>
    </TTGlyph>
    <TTGlyph name="g" xMin="124" yMin="-380" xMax="1130" yMax="1190">
      <contour>
        <pt x="930" y="1020" on="1"/>
        <pt x="947" y="990" on="0"/>
        <pt x="960" y="957" on="1"/>
        <pt x="971" y="928" on="0"/>
        <pt x="990" y="858" on="0"/>
        <pt x="990" y="820" on="1"/>
        <pt x="990" y="745" on="0"/>
        <pt x="934" y="617" on="0"/>
        <pt x="828" y="523" on="0"/>
        <pt x="676" y="470" on="0"/>
        <pt x="580" y="470" on="1"/>
        <pt x="524" y="470" on="0"/>
        <pt x="432" y="467" on="0"/>
        <pt x="366" y="448" on="0"/>
        <pt x="330" y="407" on="0"/>
        <pt x="330" y="370" on="1"/>
        <pt x="330" y="343" on="0"/>
        <pt x="340" y="304" on="0"/>
        <pt x="355" y="280" on="0"/>
        <pt x="372" y="269" on="0"/>
        <pt x="380" y="269" on="1"/>
        <pt x="588" y="269" on="1"/>
        <pt x="708" y="269" on="0"/>
        <pt x="892" y="239" on="0"/>
        <pt x="1017" y="170" on="0"/>
        <pt x="1080" y="55" on="0"/>
        <pt x="1080" y="-30" on="1"/>
        <pt x="1080" y="-118" on="0"/>
        <pt x="1005" y="-250" on="0"/>
        <pt x="869" y="-337" on="0"/>
        <pt x="677" y="-380" on="0"/>
        <pt x="560" y="-380" on="1"/>
        <pt x="467" y="-380" on="0"/>
        <pt x="309" y="-353" on="0"/>
        <pt x="194" y="-284" on="0"/>
        <pt x="130" y="-169" on="0"/>
        <pt x="130" y="-80" on="1"/>
        <pt x="130" y="-23" on="0"/>
        <pt x="180" y="64" on="0"/>
        <pt x="210" y="95" on="1"/>
        <pt x="245" y="131" on="0"/>
        <pt x="291" y="158" on="1"/>
        <pt x="262" y="167" on="0"/>
        <pt x="216" y="200" on="0"/>
        <pt x="184" y="245" on="0"/>
        <pt x="167" y="297" on="0"/>
        <pt x="167" y="325" on="1"/>
        <pt x="167" y="354" on="0"/>
        <pt x="186" y="412" on="0"/>
        <pt x="226" y="464" on="0"/>
        <pt x="288" y="506" on="0"/>
        <pt x="330" y="520" on="1"/>
        <pt x="272" y="552" on="0"/>
        <pt x="227" y="596" on="1"/>
        <pt x="207" y="615" on="0"/>
        <pt x="170" y="662" on="0"/>
        <pt x="142" y="718" on="0"/>
        <pt x="124" y="783" on="0"/>
        <pt x="124" y="820" on="1"/>
        <pt x="124" y="895" on="0"/>
        <pt x="180" y="1029" on="0"/>
        <pt x="294" y="1131" on="0"/>
        <pt x="465" y="1190" on="0"/>
        <pt x="580" y="1190" on="1"/>
        <pt x="637" y="1190" on="0"/>
        <pt x="728" y="1163" on="0"/>
        <pt x="761" y="1147" on="1"/>
        <pt x="800" y="1128" on="0"/>
        <pt x="830" y="1104" on="1"/>
        <pt x="884" y="1128" on="0"/>
        <pt x="938" y="1147" on="1"/>
        <pt x="984" y="1163" on="0"/>
        <pt x="1088" y="1190" on="0"/>
        <pt x="1130" y="1190" on="1"/>
        <pt x="1130" y="1020" on="1"/>
      </contour>
      <contour>
        <pt x="580" y="-236" on="1"/>
        <pt x="660" y="-236" on="0"/>
        <pt x="780" y="-204" on="0"/>
        <pt x="860" y="-150" on="0"/>
        <pt x="900" y="-77" on="0"/>
        <pt x="900" y="-36" on="1"/>
        <pt x="900" y="20" on="0"/>
        <pt x="860" y="85" on="0"/>
        <pt x="780" y="118" on="0"/>
        <pt x="660" y="127" on="0"/>
        <pt x="580" y="127" on="1"/>
        <pt x="430" y="127" on="1"/>
        <pt x="392" y="108" on="0"/>
        <pt x="362" y="83" on="1"/>
        <pt x="336" y="62" on="0"/>
        <pt x="295" y="2" on="0"/>
        <pt x="295" y="-36" on="1"/>
        <pt x="295" y="-92" on="0"/>
        <pt x="328" y="-169" on="0"/>
        <pt x="397" y="-216" on="0"/>
        <pt x="505" y="-236" on="0"/>
      </contour>
      <contour>
        <pt x="465" y="590" on="1"/>
        <pt x="552" y="590" on="0"/>
        <pt x="685" y="613" on="0"/>
        <pt x="774" y="667" on="0"/>
        <pt x="820" y="755" on="0"/>
        <pt x="820" y="820" on="1"/>
        <pt x="820" y="875" on="0"/>
        <pt x="795" y="961" on="0"/>
        <pt x="738" y="1020" on="0"/>
        <pt x="647" y="1051" on="0"/>
        <pt x="580" y="1051" on="1"/>
        <pt x="509" y="1051" on="0"/>
        <pt x="399" y="1029" on="0"/>
        <pt x="323" y="980" on="0"/>
        <pt x="284" y="899" on="0"/>
        <pt x="284" y="840" on="1"/>
        <pt x="284" y="806" on="0"/>
        <pt x="299" y="749" on="0"/>
        <pt x="325" y="701" on="0"/>
        <pt x="357" y="663" on="0"/>
        <pt x="374" y="648" on="1"/>
        <pt x="414" y="613" on="0"/>
      </contour>
    </TTGlyph>
    <TTGlyph name="gbreve" xMin="124" yMin="-380" xMax="1130" yMax="1608">
      <component glyphName="g" x="0" y="0" flags="0x204"/>
      <component glyphName="breve" x="87" y="0" flags="0x4"/>
    </TTGlyph>
    <TTGlyph name="germandbls" xMin="186" yMin="-129" xMax="1331" yMax="1579">
      <contour>
        <pt x="549" y="905" on="1"/>
        <pt x="750" y="917" on="0"/>
        <pt x="818" y="934" on="1"/>
        <pt x="862" y="946" on="0"/>
        <pt x="923" y="986" on="0"/>
        <pt x="960" y="1050" on="0"/>
        <pt x="977" y="1139" on="0"/>
        <pt x="977" y="1200" on="1"/>
        <pt x="977" y="1268" on="0"/>
        <pt x="933" y="1359" on="0"/>
        <pt x="850" y="1413" on="0"/>
        <pt x="731" y="1436" on="0"/>
        <pt x="656" y="1436" on="1"/>
        <pt x="569" y="1436" on="0"/>
        <pt x="461" y="1389" on="0"/>
        <pt x="401" y="1289" on="0"/>
        <pt x="381" y="1130" on="0"/>
        <pt x="381" y="1018" on="1"/>
        <pt x="381" y="16" on="1"/>
        <pt x="187" y="-6" on="1"/>
        <pt x="187" y="991" on="1"/>
        <pt x="187" y="1005" on="0"/>
        <pt x="186" y="1032" on="0"/>
        <pt x="186" y="1046" on="1"/>
        <pt x="186" y="1181" on="0"/>
        <pt x="237" y="1381" on="0"/>
        <pt x="349" y="1514" on="0"/>
        <pt x="528" y="1579" on="0"/>
        <pt x="656" y="1579" on="1"/>
        <pt x="1149" y="1579" on="0"/>
        <pt x="1149" y="1176" on="1"/>
        <pt x="1149" y="1107" on="0"/>
        <pt x="1117" y="991" on="0"/>
        <pt x="1055" y="905" on="0"/>
        <pt x="963" y="851" on="0"/>
        <pt x="903" y="844" on="1"/>
        <pt x="997" y="844" on="0"/>
        <pt x="1154" y="785" on="0"/>
        <pt x="1268" y="672" on="0"/>
        <pt x="1331" y="506" on="0"/>
        <pt x="1331" y="399" on="1"/>
        <pt x="1331" y="395" on="1"/>
        <pt x="1331" y="291" on="0"/>
        <pt x="1270" y="133" on="0"/>
        <pt x="1161" y="16" on="0"/>
        <pt x="1014" y="-62" on="0"/>
        <pt x="842" y="-109" on="0"/>
        <pt x="653" y="-129" on="0"/>
        <pt x="557" y="-129" on="1"/>
        <pt x="557" y="27" on="1"/>
        <pt x="685" y="27" on="0"/>
        <pt x="873" y="54" on="0"/>
        <pt x="1004" y="104" on="0"/>
        <pt x="1086" y="176" on="0"/>
        <pt x="1133" y="264" on="0"/>
        <pt x="1149" y="367" on="0"/>
        <pt x="1149" y="424" on="1"/>
        <pt x="1149" y="432" on="1"/>
        <pt x="1149" y="509" on="0"/>
        <pt x="1089" y="635" on="0"/>
        <pt x="954" y="725" on="0"/>
        <pt x="735" y="774" on="0"/>
        <pt x="576" y="774" on="1"/>
        <pt x="525" y="774" on="1"/>
        <pt x="525" y="905" on="1"/>
      </contour>
    </TTGlyph>
    <TTGlyph name="grave" xMin="170" yMin="1472" xMax="565" yMax="2116">
      <contour>
        <pt x="565" y="1498" on="1"/>
        <pt x="498" y="1472" on="1"/>
        <pt x="170" y="2027" on="1"/>
        <pt x="412" y="2116" on="1"/>
      </contour>
    </TTGlyph>
    <TTGlyph name="grave.cap" xMin="170" yMin="1472" xMax="565" yMax="2116">
      <contour>
        <pt x="565" y="1498" on="1"/>
        <pt x="498" y="1472" on="1"/>
        <pt x="170" y="2027" on="1"/>
        <pt x="412" y="2116" on="1"/>
      </contour>
    </TTGlyph>
    <TTGlyph name="greater" xMin="217" yMin="95" xMax="1487" yMax="1187">
      <contour>
        <pt x="1487" y="560" on="1"/>
        <pt x="217" y="95" on="1"/>
        <pt x="217" y="263" on="1"/>
        <pt x="1299" y="641" on="1"/>
        <pt x="217" y="1019" on="1"/>
        <pt x="217" y="1187" on="1"/>
        <pt x="1487" y="722" on="1"/>
      </contour>
    </TTGlyph>
    <TTGlyph name="greaterequal" xMin="-309" yMin="505" xMax="961" yMax="1597">
      <contour>
        <pt x="961" y="970" on="1"/>
        <pt x="-309" y="505" on="1"/>
        <pt x="-309" y="673" on="1"/>
        <pt x="773" y="1051" on="1"/>
        <pt x="-309" y="1429" on="1"/>
        <pt x="-309" y="1597" on="1"/>
        <pt x="961" y="1132" on="1"/>
      </contour>
    </TTGlyph>
    <TTGlyph name="guillemotleft" xMin="94" yMin="99" xMax="1310" yMax="1049">
      <contour>
        <pt x="1310" y="842" on="1"/>
        <pt x="873" y="577" on="1"/>
        <pt x="1310" y="306" on="1"/>
        <pt x="1310" y="99" on="1"/>
        <pt x="702" y="481" on="1"/>
        <pt x="702" y="666" on="1"/>
        <pt x="1310" y="1049" on="1"/>
      </contour>
      <contour>
        <pt x="702" y="842" on="1"/>
        <pt x="266" y="577" on="1"/>
        <pt x="702" y="306" on="1"/>
        <pt x="702" y="99" on="1"/>
        <pt x="94" y="481" on="1"/>
        <pt x="94" y="666" on="1"/>
        <pt x="702" y="1049" on="1"/>
      </contour>
    </TTGlyph>
    <TTGlyph name="guillemotright" xMin="144" yMin="99" xMax="1360" yMax="1049">
      <contour>
        <pt x="144" y="1049" on="1"/>
        <pt x="753" y="666" on="1"/>
        <pt x="753" y="481" on="1"/>
        <pt x="144" y="99" on="1"/>
        <pt x="144" y="306" on="1"/>
        <pt x="591" y="577" on="1"/>
        <pt x="144" y="842" on="1"/>
      </contour>
      <contour>
        <pt x="751" y="1049" on="1"/>
        <pt x="1360" y="666" on="1"/>
        <pt x="1360" y="481" on="1"/>
        <pt x="751" y="99" on="1"/>
        <pt x="751" y="306" on="1"/>
        <pt x="1198" y="577" on="1"/>
        <pt x="751" y="842" on="1"/>
      </contour>
    </TTGlyph>
    <TTGlyph name="guilsinglleft" xMin="158" yMin="99" xMax="766" yMax="1049">
      <contour>
        <pt x="766" y="842" on="1"/>
        <pt x="319" y="577" on="1"/>
        <pt x="766" y="306" on="1"/>
        <pt x="766" y="99" on="1"/>
        <pt x="158" y="481" on="1"/>
        <pt x="158" y="666" on="1"/>
        <pt x="766" y="1049" on="1"/>
      </contour>
    </TTGlyph>
    <TTGlyph name="guilsinglright" xMin="193" yMin="99" xMax="801" yMax="1049">
      <contour>
        <pt x="193" y="1049" on="1"/>
        <pt x="801" y="666" on="1"/>
        <pt x="801" y="481" on="1"/>
        <pt x="193" y="99" on="1"/>
        <pt x="193" y="306" on="1"/>
        <pt x="639" y="577" on="1"/>
        <pt x="193" y="842" on="1"/>
      </contour>
    </TTGlyph>
    <TTGlyph name="h" xMin="186" yMin="0" xMax="1173" yMax="1616">
      <contour>
        <pt x="983" y="727" on="1"/>
        <pt x="983" y="815" on="0"/>
        <pt x="955" y="938" on="0"/>
        <pt x="901" y="1016" on="0"/>
        <pt x="822" y="1051" on="0"/>
        <pt x="771" y="1051" on="1"/>
        <pt x="700" y="1051" on="0"/>
        <pt x="570" y="1012" on="0"/>
        <pt x="465" y="959" on="0"/>
        <pt x="391" y="904" on="0"/>
        <pt x="376" y="888" on="1"/>
        <pt x="376" y="0" on="1"/>
        <pt x="186" y="0" on="1"/>
        <pt x="186" y="1579" on="1"/>
        <pt x="376" y="1616" on="1"/>
        <pt x="376" y="1009" on="1"/>
        <pt x="414" y="1043" on="0"/>
        <pt x="498" y="1109" on="0"/>
        <pt x="594" y="1159" on="0"/>
        <pt x="706" y="1190" on="0"/>
        <pt x="771" y="1190" on="1"/>
        <pt x="861" y="1190" on="0"/>
        <pt x="1010" y="1143" on="0"/>
        <pt x="1115" y="1034" on="0"/>
        <pt x="1173" y="857" on="0"/>
        <pt x="1173" y="727" on="1"/>
        <pt x="1173" y="0" on="1"/>
        <pt x="983" y="0" on="1"/>
      </contour>
    </TTGlyph>
    <TTGlyph name="hbar" xMin="186" yMin="0" xMax="1173" yMax="1616">
      <component glyphName="h" x="0" y="0" flags="0x204"/>
      <component glyphName="macron#1" x="0" y="0" flags="0x4"/>
    </TTGlyph>
    <TTGlyph name="hungarumlaut" xMin="44" yMin="1472" xMax="769" yMax="2109">
      <contour>
        <pt x="435" y="1472" on="1"/>
        <pt x="378" y="1498" on="1"/>
        <pt x="537" y="2109" on="1"/>
        <pt x="769" y="2018" on="1"/>
      </contour>
      <contour>
        <pt x="101" y="1472" on="1"/>
        <pt x="44" y="1498" on="1"/>
        <pt x="203" y="2109" on="1"/>
        <pt x="435" y="2018" on="1"/>
      </contour>
    </TTGlyph>
    <TTGlyph name="hyphen" xMin="100" yMin="508" xMax="776" yMax="665">
      <contour>
        <pt x="776" y="508" on="1"/>
        <pt x="100" y="508" on="1"/>
        <pt x="100" y="665" on="1"/>
        <pt x="776" y="665" on="1"/>
      </contour>
    </TTGlyph>
    <TTGlyph name="i" xMin="193" yMin="0" xMax="413" yMax="1577">
      <contour>
        <pt x="395" y="0" on="1"/>
        <pt x="205" y="0" on="1"/>
        <pt x="205" y="1169" on="1"/>
        <pt x="395" y="1169" on="1"/>
      </contour>
      <contour>
        <pt x="305" y="1577" on="1"/>
        <pt x="353" y="1577" on="0"/>
        <pt x="413" y="1510" on="0"/>
        <pt x="413" y="1462" on="1"/>
        <pt x="413" y="1414" on="0"/>
        <pt x="353" y="1347" on="0"/>
        <pt x="305" y="1347" on="1"/>
        <pt x="280" y="1347" on="0"/>
        <pt x="239" y="1365" on="0"/>
        <pt x="209" y="1397" on="0"/>
        <pt x="193" y="1439" on="0"/>
        <pt x="193" y="1462" on="1"/>
        <pt x="193" y="1485" on="0"/>
        <pt x="209" y="1527" on="0"/>
        <pt x="239" y="1558" on="0"/>
        <pt x="280" y="1577" on="0"/>
      </contour>
    </TTGlyph>
    <TTGlyph name="iacute" xMin="40" yMin="0" xMax="431" yMax="2109">
      <component glyphName="dotlessi" x="0" y="0" flags="0x204"/>
      <component glyphName="acute" x="-331" y="0" flags="0x4"/>
    </TTGlyph>
    <TTGlyph name="icircumflex" xMin="-172" yMin="0" xMax="508" yMax="2051">
      <component glyphName="dotlessi" x="0" y="0" flags="0x204"/>
      <component glyphName="circumflex" x="-200" y="0" flags="0x4"/>
    </TTGlyph>
    <TTGlyph name="idieresis" xMin="-41" yMin="0" xMax="669" yMax="1588">
      <component glyphName="dotlessi" x="0" y="0" flags="0x204"/>
      <component glyphName="dieresis" x="-256" y="0" flags="0x4"/>
    </TTGlyph>
    <TTGlyph name="igrave" xMin="38" yMin="0" xMax="433" yMax="2116">
      <component glyphName="dotlessi" x="0" y="0" flags="0x204"/>
      <component glyphName="grave" x="-132" y="0" flags="0x4"/>
    </TTGlyph>
    <TTGlyph name="ij" xMin="193" yMin="-373" xMax="958" yMax="1577">
      <component glyphName="i" x="0" y="0" flags="0x4"/>
      <component glyphName="j" x="605" y="0" flags="0x4"/>
    </TTGlyph>
    <TTGlyph name="infinity" xMin="221" yMin="221" xMax="1487" yMax="1006">
      <contour>
        <pt x="915" y="559" on="1"/>
        <pt x="964" y="471" on="0"/>
        <pt x="1098" y="381" on="0"/>
        <pt x="1182" y="381" on="1"/>
        <pt x="1283" y="381" on="0"/>
        <pt x="1411" y="516" on="0"/>
        <pt x="1411" y="621" on="1"/>
        <pt x="1411" y="722" on="0"/>
        <pt x="1293" y="856" on="0"/>
        <pt x="1204" y="856" on="1"/>
        <pt x="1122" y="856" on="0"/>
        <pt x="989" y="721" on="0"/>
      </contour>
      <contour>
        <pt x="793" y="666" on="1"/>
        <pt x="744" y="754" on="0"/>
        <pt x="611" y="842" on="0"/>
        <pt x="526" y="842" on="1"/>
        <pt x="424" y="842" on="0"/>
        <pt x="297" y="710" on="0"/>
        <pt x="297" y="604" on="1"/>
        <pt x="297" y="503" on="0"/>
        <pt x="415" y="369" on="0"/>
        <pt x="504" y="369" on="1"/>
        <pt x="586" y="369" on="0"/>
        <pt x="720" y="505" on="0"/>
      </contour>
      <contour>
        <pt x="864" y="483" on="1"/>
        <pt x="794" y="348" on="0"/>
        <pt x="637" y="221" on="0"/>
        <pt x="543" y="221" on="1"/>
        <pt x="407" y="221" on="0"/>
        <pt x="221" y="444" on="0"/>
        <pt x="221" y="610" on="1"/>
        <pt x="221" y="785" on="0"/>
        <pt x="388" y="1001" on="0"/>
        <pt x="522" y="1001" on="1"/>
        <pt x="617" y="1001" on="0"/>
        <pt x="770" y="875" on="0"/>
        <pt x="842" y="737" on="1"/>
        <pt x="910" y="875" on="0"/>
        <pt x="1068" y="1006" on="0"/>
        <pt x="1165" y="1006" on="1"/>
        <pt x="1299" y="1006" on="0"/>
        <pt x="1487" y="781" on="0"/>
        <pt x="1487" y="614" on="1"/>
        <pt x="1487" y="439" on="0"/>
        <pt x="1320" y="225" on="0"/>
        <pt x="1186" y="225" on="1"/>
        <pt x="1092" y="225" on="0"/>
        <pt x="943" y="344" on="0"/>
      </contour>
    </TTGlyph>
    <TTGlyph name="integral" xMin="47" yMin="-371" xMax="1018" yMax="1550">
      <contour>
        <pt x="311" y="-262" on="1"/>
        <pt x="417" y="-262" on="0"/>
        <pt x="431" y="426" on="1"/>
        <pt x="433" y="534" on="0"/>
        <pt x="434" y="591" on="1"/>
        <pt x="446" y="1106" on="0"/>
        <pt x="636" y="1550" on="0"/>
        <pt x="838" y="1550" on="1"/>
        <pt x="918" y="1550" on="0"/>
        <pt x="1018" y="1466" on="0"/>
        <pt x="1018" y="1401" on="1"/>
        <pt x="1018" y="1347" on="0"/>
        <pt x="954" y="1284" on="0"/>
        <pt x="899" y="1284" on="1"/>
        <pt x="857" y="1284" on="0"/>
        <pt x="801" y="1322" on="0"/>
        <pt x="789" y="1357" on="1"/>
        <pt x="783" y="1372" on="0"/>
        <pt x="774" y="1444" on="0"/>
        <pt x="758" y="1444" on="1"/>
        <pt x="651" y="1444" on="0"/>
        <pt x="637" y="825" on="1"/>
        <pt x="633" y="632" on="0"/>
        <pt x="629" y="522" on="1"/>
        <pt x="612" y="43" on="0"/>
        <pt x="423" y="-371" on="0"/>
        <pt x="227" y="-371" on="1"/>
        <pt x="148" y="-371" on="0"/>
        <pt x="47" y="-288" on="0"/>
        <pt x="47" y="-223" on="1"/>
        <pt x="47" y="-167" on="0"/>
        <pt x="115" y="-104" on="0"/>
        <pt x="176" y="-104" on="1"/>
        <pt x="209" y="-104" on="0"/>
        <pt x="257" y="-133" on="0"/>
        <pt x="272" y="-161" on="1"/>
        <pt x="282" y="-179" on="0"/>
        <pt x="292" y="-262" on="0"/>
      </contour>
    </TTGlyph>
    <TTGlyph name="itilde" xMin="-145" yMin="0" xMax="615" yMax="1576">
      <component glyphName="dotlessi" x="0" y="0" flags="0x204"/>
      <component glyphName="tilde" x="-202" y="0" flags="0x4"/>
    </TTGlyph>
    <TTGlyph name="j" xMin="-37" yMin="-373" xMax="353" yMax="1577">
      <contour>
        <pt x="-37" y="-258" on="1"/>
        <pt x="30" y="-215" on="0"/>
        <pt x="106" y="-121" on="0"/>
        <pt x="143" y="-14" on="0"/>
        <pt x="151" y="107" on="0"/>
        <pt x="151" y="176" on="1"/>
        <pt x="151" y="1169" on="1"/>
        <pt x="341" y="1169" on="1"/>
        <pt x="341" y="154" on="1"/>
        <pt x="341" y="38" on="0"/>
        <pt x="287" y="-143" on="0"/>
        <pt x="196" y="-275" on="0"/>
        <pt x="76" y="-357" on="0"/>
        <pt x="10" y="-373" on="1"/>
      </contour>
      <contour>
        <pt x="245" y="1577" on="1"/>
        <pt x="293" y="1577" on="0"/>
        <pt x="353" y="1510" on="0"/>
        <pt x="353" y="1462" on="1"/>
        <pt x="353" y="1414" on="0"/>
        <pt x="293" y="1347" on="0"/>
        <pt x="245" y="1347" on="1"/>
        <pt x="220" y="1347" on="0"/>
        <pt x="179" y="1365" on="0"/>
        <pt x="149" y="1397" on="0"/>
        <pt x="133" y="1439" on="0"/>
        <pt x="133" y="1462" on="1"/>
        <pt x="133" y="1485" on="0"/>
        <pt x="149" y="1527" on="0"/>
        <pt x="179" y="1558" on="0"/>
        <pt x="220" y="1577" on="0"/>
      </contour>
    </TTGlyph>
    <TTGlyph name="jcircumflex" xMin="-66" yMin="-373" xMax="614" yMax="2051">
      <component glyphName="j" x="0" y="0" flags="0x204"/>
      <component glyphName="circumflex" x="-94" y="0" flags="0x4"/>
    </TTGlyph>
    <TTGlyph name="k" xMin="186" yMin="0" xMax="1193" yMax="1614">
      <contour>
        <pt x="1160" y="1169" on="1"/>
        <pt x="607" y="648" on="1"/>
        <pt x="1193" y="0" on="1"/>
        <pt x="972" y="0" on="1"/>
        <pt x="492" y="555" on="1"/>
        <pt x="376" y="459" on="1"/>
        <pt x="376" y="0" on="1"/>
        <pt x="186" y="0" on="1"/>
        <pt x="186" y="1579" on="1"/>
        <pt x="376" y="1614" on="1"/>
        <pt x="376" y="627" on="1"/>
        <pt x="935" y="1169" on="1"/>
      </contour>
    </TTGlyph>
    <TTGlyph name="kcommaaccent" xMin="186" yMin="-723" xMax="1193" yMax="1614">
      <component glyphName="k" x="0" y="0" flags="0x204"/>
      <component glyphName="uni0326" x="299" y="0" flags="0x4"/>
    </TTGlyph>
    <TTGlyph name="kgreenlandic" xMin="186" yMin="0" xMax="1193" yMax="1614">
      <component glyphName="k" x="0" y="0" flags="0x204"/>
    </TTGlyph>
    <TTGlyph name="l" xMin="193" yMin="0" xMax="383" yMax="1614">
      <contour>
        <pt x="193" y="0" on="1"/>
        <pt x="193" y="1579" on="1"/>
        <pt x="383" y="1614" on="1"/>
        <pt x="383" y="0" on="1"/>
      </contour>
    </TTGlyph>
    <TTGlyph name="ldot" xMin="193" yMin="0" xMax="914" yMax="1614">
      <component glyphName="l" x="0" y="0" flags="0x4"/>
      <component glyphName="periodcentered" x="575" y="0" flags="0x4"/>
    </TTGlyph>
    <TTGlyph name="less" xMin="217" yMin="95" xMax="1487" yMax="1187">
      <contour>
        <pt x="217" y="722" on="1"/>
        <pt x="1487" y="1187" on="1"/>
        <pt x="1487" y="1019" on="1"/>
        <pt x="405" y="641" on="1"/>
        <pt x="1487" y="263" on="1"/>
        <pt x="1487" y="95" on="1"/>
        <pt x="217" y="560" on="1"/>
      </contour>
    </TTGlyph>
    <TTGlyph name="lessequal" xMin="-309" yMin="505" xMax="961" yMax="1597">
      <contour>
        <pt x="-309" y="1132" on="1"/>
        <pt x="961" y="1597" on="1"/>
        <pt x="961" y="1429" on="1"/>
        <pt x="-121" y="1051" on="1"/>
        <pt x="961" y="673" on="1"/>
        <pt x="961" y="505" on="1"/>
        <pt x="-309" y="970" on="1"/>
      </contour>
    </TTGlyph>
    <TTGlyph name="logicalnot" xMin="217" yMin="338" xMax="1571" yMax="1174">
      <contour>
        <pt x="1395" y="338" on="1"/>
        <pt x="1395" y="1023" on="1"/>
        <pt x="217" y="1023" on="1"/>
        <pt x="217" y="1174" on="1"/>
        <pt x="1571" y="1174" on="1"/>
        <pt x="1571" y="338" on="1"/>
      </contour>
    </TTGlyph>
    <TTGlyph name="lozenge" xMin="6" yMin="-477" xMax="1006" yMax="1653">
      <contour>
        <pt x="506" y="1409" on="1"/>
        <pt x="121" y="592" on="1"/>
        <pt x="506" y="-233" on="1"/>
        <pt x="891" y="592" on="1"/>
      </contour>
      <contour>
        <pt x="506" y="1653" on="1"/>
        <pt x="1006" y="592" on="1"/>
        <pt x="506" y="-477" on="1"/>
        <pt x="6" y="592" on="1"/>
      </contour>
    </TTGlyph>
    <TTGlyph name="lslash" xMin="-223" yMin="0" xMax="801" yMax="1614">
      <component glyphName="l" x="0" y="0" flags="0x204"/>
      <component glyphName="endash" x="-223" y="0" flags="0x4"/>
    </TTGlyph>
    <TTGlyph name="m" xMin="186" yMin="0" xMax="1844" yMax="1190">
      <contour>
        <pt x="1075" y="967" on="1"/>
        <pt x="1110" y="1018" on="0"/>
        <pt x="1204" y="1100" on="0"/>
        <pt x="1312" y="1159" on="0"/>
        <pt x="1429" y="1190" on="0"/>
        <pt x="1488" y="1190" on="1"/>
        <pt x="1573" y="1190" on="0"/>
        <pt x="1706" y="1129" on="0"/>
        <pt x="1797" y="1018" on="0"/>
        <pt x="1844" y="862" on="0"/>
        <pt x="1844" y="766" on="1"/>
        <pt x="1844" y="0" on="1"/>
        <pt x="1654" y="0" on="1"/>
        <pt x="1654" y="768" on="1"/>
        <pt x="1654" y="853" on="0"/>
        <pt x="1626" y="963" on="0"/>
        <pt x="1575" y="1027" on="0"/>
        <pt x="1504" y="1051" on="0"/>
        <pt x="1460" y="1051" on="1"/>
        <pt x="1369" y="1051" on="0"/>
        <pt x="1196" y="953" on="0"/>
        <pt x="1105" y="858" on="1"/>
        <pt x="1105" y="0" on="1"/>
        <pt x="915" y="0" on="1"/>
        <pt x="915" y="768" on="1"/>
        <pt x="915" y="852" on="0"/>
        <pt x="889" y="961" on="0"/>
        <pt x="840" y="1026" on="0"/>
        <pt x="768" y="1051" on="0"/>
        <pt x="723" y="1051" on="1"/>
        <pt x="646" y="1051" on="0"/>
        <pt x="470" y="954" on="0"/>
        <pt x="376" y="860" on="1"/>
        <pt x="376" y="0" on="1"/>
        <pt x="186" y="0" on="1"/>
        <pt x="186" y="1169" on="1"/>
        <pt x="327" y="1169" on="1"/>
        <pt x="354" y="963" on="1"/>
        <pt x="384" y="1011" on="0"/>
        <pt x="469" y="1094" on="0"/>
        <pt x="572" y="1155" on="0"/>
        <pt x="691" y="1190" on="0"/>
        <pt x="754" y="1190" on="1"/>
        <pt x="820" y="1190" on="0"/>
        <pt x="925" y="1155" on="0"/>
        <pt x="1005" y="1094" on="0"/>
        <pt x="1060" y="1013" on="0"/>
      </contour>
    </TTGlyph>
    <TTGlyph name="macron" xMin="213" yMin="98" xMax="895" yMax="215">
      <contour>
        <pt x="895" y="98" on="1"/>
        <pt x="213" y="98" on="1"/>
        <pt x="213" y="215" on="1"/>
        <pt x="895" y="215" on="1"/>
      </contour>
    </TTGlyph>
    <TTGlyph name="minus" xMin="217" yMin="557" xMax="1499" yMax="727">
      <contour>
        <pt x="217" y="727" on="1"/>
        <pt x="1499" y="727" on="1"/>
        <pt x="1499" y="557" on="1"/>
        <pt x="217" y="557" on="1"/>
      </contour>
    </TTGlyph>
    <TTGlyph name="mu" xMin="174" yMin="-291" xMax="1155" yMax="1169">
      <contour>
        <pt x="588" y="-20" on="1"/>
        <pt x="542" y="-20" on="0"/>
        <pt x="467" y="7" on="0"/>
        <pt x="408" y="45" on="0"/>
        <pt x="368" y="86" on="0"/>
        <pt x="358" y="100" on="1"/>
        <pt x="348" y="113" on="1"/>
        <pt x="348" y="-291" on="1"/>
        <pt x="174" y="-291" on="1"/>
        <pt x="174" y="1169" on="1"/>
        <pt x="348" y="1169" on="1"/>
        <pt x="348" y="442" on="1"/>
        <pt x="348" y="123" on="0"/>
        <pt x="600" y="123" on="1"/>
        <pt x="670" y="123" on="0"/>
        <pt x="788" y="161" on="0"/>
        <pt x="879" y="212" on="0"/>
        <pt x="937" y="262" on="0"/>
        <pt x="947" y="274" on="1"/>
        <pt x="947" y="1169" on="1"/>
        <pt x="1155" y="1169" on="1"/>
        <pt x="1155" y="16" on="1"/>
        <pt x="1009" y="16" on="1"/>
        <pt x="985" y="170" on="1"/>
        <pt x="814" y="-20" on="0"/>
      </contour>
    </TTGlyph>
    <TTGlyph name="multiply" xMin="217" yMin="127" xMax="1055" yMax="965">
      <contour>
        <pt x="217" y="863" on="1"/>
        <pt x="319" y="965" on="1"/>
        <pt x="636" y="648" on="1"/>
        <pt x="953" y="965" on="1"/>
        <pt x="1055" y="863" on="1"/>
        <pt x="738" y="546" on="1"/>
        <pt x="1055" y="229" on="1"/>
        <pt x="953" y="127" on="1"/>
        <pt x="636" y="444" on="1"/>
        <pt x="319" y="127" on="1"/>
        <pt x="217" y="229" on="1"/>
        <pt x="534" y="546" on="1"/>
      </contour>
    </TTGlyph>
    <TTGlyph name="n" xMin="186" yMin="0" xMax="1170" yMax="1190">
      <contour>
        <pt x="376" y="880" on="1"/>
        <pt x="376" y="0" on="1"/>
        <pt x="186" y="0" on="1"/>
        <pt x="186" y="1169" on="1"/>
        <pt x="326" y="1169" on="1"/>
        <pt x="350" y="982" on="1"/>
        <pt x="380" y="1020" on="0"/>
        <pt x="481" y="1094" on="0"/>
        <pt x="602" y="1153" on="0"/>
        <pt x="736" y="1190" on="0"/>
        <pt x="799" y="1190" on="1"/>
        <pt x="836" y="1190" on="0"/>
        <pt x="921" y="1176" on="0"/>
        <pt x="1003" y="1139" on="0"/>
        <pt x="1078" y="1073" on="0"/>
        <pt x="1136" y="970" on="0"/>
        <pt x="1170" y="825" on="0"/>
        <pt x="1170" y="727" on="1"/>
        <pt x="1170" y="0" on="1"/>
        <pt x="980" y="0" on="1"/>
        <pt x="980" y="727" on="1"/>
        <pt x="980" y="797" on="0"/>
        <pt x="959" y="916" on="0"/>
        <pt x="908" y="1002" on="0"/>
        <pt x="821" y="1051" on="0"/>
        <pt x="756" y="1051" on="1"/>
        <pt x="723" y="1051" on="0"/>
        <pt x="649" y="1033" on="0"/>
        <pt x="574" y="1004" on="0"/>
        <pt x="501" y="967" on="0"/>
        <pt x="439" y="929" on="0"/>
        <pt x="390" y="893" on="0"/>
      </contour>
    </TTGlyph>
    <TTGlyph name="nacute" xMin="186" yMin="0" xMax="1170" yMax="2109">
      <component glyphName="n" x="0" y="0" flags="0x204"/>
      <component glyphName="acute" x="105" y="0" flags="0x4"/>
    </TTGlyph>
    <TTGlyph name="nine" xMin="129" yMin="-161" xMax="1134" yMax="1314">
      <contour>
        <pt x="305" y="823" on="1"/>
        <pt x="305" y="741" on="0"/>
        <pt x="351" y="620" on="0"/>
        <pt x="430" y="540" on="0"/>
        <pt x="535" y="501" on="0"/>
        <pt x="595" y="501" on="1"/>
        <pt x="653" y="501" on="0"/>
        <pt x="768" y="530" on="0"/>
        <pt x="865" y="572" on="0"/>
        <pt x="936" y="618" on="0"/>
        <pt x="950" y="635" on="1"/>
        <pt x="956" y="672" on="0"/>
        <pt x="956" y="757" on="1"/>
        <pt x="956" y="802" on="0"/>
        <pt x="946" y="899" on="0"/>
        <pt x="919" y="991" on="0"/>
        <pt x="872" y="1074" on="0"/>
        <pt x="799" y="1136" on="0"/>
        <pt x="697" y="1172" on="0"/>
        <pt x="629" y="1172" on="1"/>
        <pt x="540" y="1172" on="0"/>
        <pt x="417" y="1108" on="0"/>
        <pt x="340" y="1008" on="0"/>
        <pt x="305" y="884" on="0"/>
      </contour>
      <contour>
        <pt x="1134" y="733" on="1"/>
        <pt x="1134" y="605" on="0"/>
        <pt x="1080" y="385" on="0"/>
        <pt x="984" y="201" on="0"/>
        <pt x="851" y="52" on="0"/>
        <pt x="692" y="-61" on="0"/>
        <pt x="513" y="-139" on="0"/>
        <pt x="419" y="-161" on="1"/>
        <pt x="376" y="-16" on="1"/>
        <pt x="430" y="-5" on="0"/>
        <pt x="547" y="37" on="0"/>
        <pt x="661" y="100" on="0"/>
        <pt x="768" y="185" on="0"/>
        <pt x="857" y="294" on="0"/>
        <pt x="921" y="428" on="0"/>
        <pt x="936" y="509" on="1"/>
        <pt x="814" y="365" on="0"/>
        <pt x="595" y="365" on="1"/>
        <pt x="487" y="365" on="0"/>
        <pt x="314" y="432" on="0"/>
        <pt x="193" y="554" on="0"/>
        <pt x="129" y="722" on="0"/>
        <pt x="129" y="823" on="1"/>
        <pt x="129" y="923" on="0"/>
        <pt x="194" y="1102" on="0"/>
        <pt x="320" y="1236" on="0"/>
        <pt x="507" y="1314" on="0"/>
        <pt x="629" y="1314" on="1"/>
        <pt x="753" y="1314" on="0"/>
        <pt x="942" y="1232" on="0"/>
        <pt x="1069" y="1081" on="0"/>
        <pt x="1134" y="866" on="0"/>
      </contour>
    </TTGlyph>
    <TTGlyph name="nonbreakingspace" xMin="32767" yMin="32767" xMax="-32767" yMax="-32767">
      <component glyphName="space" x="0" y="0" flags="0x204"/>
    </TTGlyph>
    <TTGlyph name="notequal" xMin="217" yMin="39" xMax="1499" yMax="1245">
      <contour>
        <pt x="217" y="930" on="1"/>
        <pt x="989" y="930" on="1"/>
        <pt x="1245" y="1245" on="1"/>
        <pt x="1370" y="1143" on="1"/>
        <pt x="1196" y="930" on="1"/>
        <pt x="1499" y="930" on="1"/>
        <pt x="1499" y="762" on="1"/>
        <pt x="1059" y="762" on="1"/>
        <pt x="864" y="522" on="1"/>
        <pt x="1499" y="522" on="1"/>
        <pt x="1499" y="352" on="1"/>
        <pt x="725" y="352" on="1"/>
        <pt x="467" y="39" on="1"/>
        <pt x="342" y="141" on="1"/>
        <pt x="516" y="352" on="1"/>
        <pt x="217" y="352" on="1"/>
        <pt x="217" y="522" on="1"/>
        <pt x="655" y="522" on="1"/>
        <pt x="850" y="762" on="1"/>
        <pt x="217" y="762" on="1"/>
      </contour>
    </TTGlyph>
    <TTGlyph name="ntilde" xMin="186" yMin="0" xMax="1170" yMax="1576">
      <component glyphName="n" x="0" y="0" flags="0x4"/>
      <component glyphName="tilde" x="196" y="0" flags="0x4"/>
    </TTGlyph>
    <TTGlyph name="numbersign" xMin="99" yMin="295" xMax="943" yMax="1309">
      <contour>
        <pt x="592" y="561" on="1"/>
        <pt x="406" y="561" on="1"/>
        <pt x="373" y="295" on="1"/>
        <pt x="232" y="295" on="1"/>
        <pt x="265" y="561" on="1"/>
        <pt x="99" y="561" on="1"/>
        <pt x="99" y="684" on="1"/>
        <pt x="275" y="684" on="1"/>
        <pt x="302" y="905" on="1"/>
        <pt x="127" y="905" on="1"/>
        <pt x="127" y="1030" on="1"/>
        <pt x="316" y="1030" on="1"/>
        <pt x="347" y="1309" on="1"/>
        <pt x="486" y="1309" on="1"/>
        <pt x="455" y="1030" on="1"/>
        <pt x="644" y="1030" on="1"/>
        <pt x="672" y="1307" on="1"/>
        <pt x="814" y="1307" on="1"/>
        <pt x="783" y="1030" on="1"/>
        <pt x="943" y="1030" on="1"/>
        <pt x="943" y="905" on="1"/>
        <pt x="771" y="905" on="1"/>
        <pt x="744" y="684" on="1"/>
        <pt x="920" y="684" on="1"/>
        <pt x="920" y="561" on="1"/>
        <pt x="732" y="561" on="1"/>
        <pt x="701" y="295" on="1"/>
        <pt x="560" y="295" on="1"/>
      </contour>
      <contour>
        <pt x="418" y="684" on="1"/>
        <pt x="601" y="684" on="1"/>
        <pt x="627" y="905" on="1"/>
        <pt x="445" y="905" on="1"/>
      </contour>
    </TTGlyph>
    <TTGlyph name="o" xMin="113" yMin="-20" xMax="1173" yMax="1190">
      <contour>
        <pt x="643" y="-20" on="1"/>
        <pt x="509" y="-20" on="0"/>
        <pt x="310" y="75" on="0"/>
        <pt x="178" y="239" on="0"/>
        <pt x="113" y="459" on="0"/>
        <pt x="113" y="585" on="1"/>
        <pt x="113" y="711" on="0"/>
        <pt x="178" y="931" on="0"/>
        <pt x="310" y="1095" on="0"/>
        <pt x="509" y="1190" on="0"/>
        <pt x="643" y="1190" on="1"/>
        <pt x="777" y="1190" on="0"/>
        <pt x="976" y="1095" on="0"/>
        <pt x="1108" y="931" on="0"/>
        <pt x="1173" y="711" on="0"/>
        <pt x="1173" y="585" on="1"/>
        <pt x="1173" y="459" on="0"/>
        <pt x="1108" y="239" on="0"/>
        <pt x="976" y="75" on="0"/>
        <pt x="777" y="-20" on="0"/>
      </contour>
      <contour>
        <pt x="643" y="119" on="1"/>
        <pt x="709" y="119" on="0"/>
        <pt x="811" y="158" on="0"/>
        <pt x="886" y="227" on="0"/>
        <pt x="938" y="318" on="0"/>
        <pt x="969" y="421" on="0"/>
        <pt x="983" y="532" on="0"/>
        <pt x="983" y="585" on="1"/>
        <pt x="983" y="638" on="0"/>
        <pt x="969" y="749" on="0"/>
        <pt x="938" y="852" on="0"/>
        <pt x="886" y="943" on="0"/>
        <pt x="811" y="1012" on="0"/>
        <pt x="709" y="1051" on="0"/>
        <pt x="643" y="1051" on="1"/>
        <pt x="577" y="1051" on="0"/>
        <pt x="475" y="1012" on="0"/>
        <pt x="400" y="943" on="0"/>
        <pt x="348" y="852" on="0"/>
        <pt x="317" y="749" on="0"/>
        <pt x="303" y="638" on="0"/>
        <pt x="303" y="585" on="1"/>
        <pt x="303" y="532" on="0"/>
        <pt x="317" y="421" on="0"/>
        <pt x="348" y="318" on="0"/>
        <pt x="400" y="227" on="0"/>
        <pt x="475" y="158" on="0"/>
        <pt x="577" y="119" on="0"/>
      </contour>
    </TTGlyph>
    <TTGlyph name="oacute" xMin="113" yMin="-20" xMax="1173" yMax="2109">
      <component glyphName="o" x="0" y="0" flags="0x4"/>
      <component glyphName="acute" x="76" y="0" flags="0x4"/>
    </TTGlyph>
    <TTGlyph name="ocircumflex" xMin="113" yMin="-20" xMax="1173" yMax="2051">
      <component glyphName="o" x="0" y="0" flags="0x4"/>
      <component glyphName="circumflex" x="207" y="0" flags="0x4"/>
    </TTGlyph>
    <TTGlyph name="odieresis" xMin="113" yMin="-20" xMax="1173" yMax="1588">
      <component glyphName="o" x="0" y="0" flags="0x4"/>
      <component glyphName="dieresis" x="151" y="0" flags="0x4"/>
    </TTGlyph>
    <TTGlyph name="oe" xMin="123" yMin="-21" xMax="2385" yMax="1190">
      <component glyphName="o" x="10" y="0" flags="0x4"/>
      <component glyphName="e" x="1305" y="0" flags="0x4"/>
    </TTGlyph>
    <TTGlyph name="ogonek" xMin="332" yMin="-395" xMax="705" yMax="0">
      <contour>
        <pt x="440" y="0" on="1"/>
        <pt x="559" y="0" on="1"/>
        <pt x="514" y="-61" on="0"/>
        <pt x="471" y="-149" on="0"/>
        <pt x="471" y="-180" on="1"/>
        <pt x="471" y="-226" on="0"/>
        <pt x="526" y="-272" on="0"/>
        <pt x="580" y="-272" on="1"/>
        <pt x="612" y="-272" on="0"/>
        <pt x="674" y="-257" on="0"/>
        <pt x="705" y="-242" on="1"/>
        <pt x="705" y="-375" on="1"/>
        <pt x="667" y="-385" on="0"/>
        <pt x="599" y="-395" on="0"/>
        <pt x="569" y="-395" on="1"/>
        <pt x="447" y="-395" on="0"/>
        <pt x="332" y="-308" on="0"/>
        <pt x="332" y="-215" on="1"/>
        <pt x="332" y="-167" on="0"/>
        <pt x="385" y="-62" on="0"/>
      </contour>
    </TTGlyph>
    <TTGlyph name="ograve" xMin="113" yMin="-20" xMax="1173" yMax="2116">
      <component glyphName="o" x="0" y="0" flags="0x4"/>
      <component glyphName="grave" x="275" y="0" flags="0x4"/>
    </TTGlyph>
    <TTGlyph name="one" xMin="104" yMin="0" xMax="551" yMax="1202">
      <contour>
        <pt x="364" y="0" on="1"/>
        <pt x="364" y="1057" on="1"/>
        <pt x="157" y="957" on="1"/>
        <pt x="104" y="1083" on="1"/>
        <pt x="361" y="1202" on="1"/>
        <pt x="551" y="1202" on="1"/>
        <pt x="551" y="0" on="1"/>
      </contour>
    </TTGlyph>
    <TTGlyph name="onehalf" xMin="137" yMin="-172" xMax="1813" yMax="1529">
      <contour>
        <pt x="345" y="568" on="1"/>
        <pt x="345" y="1413" on="1"/>
        <pt x="175" y="1341" on="1"/>
        <pt x="137" y="1434" on="1"/>
        <pt x="375" y="1529" on="1"/>
        <pt x="505" y="1503" on="1"/>
        <pt x="505" y="568" on="1"/>
      </contour>
      <contour>
        <pt x="207" y="-30" on="1"/>
        <pt x="1246" y="1365" on="1"/>
        <pt x="1368" y="1272" on="1"/>
        <pt x="327" y="-123" on="1"/>
      </contour>
      <contour>
        <pt x="1379" y="-20" on="1"/>
        <pt x="1785" y="-20" on="1"/>
        <pt x="1785" y="-172" on="1"/>
        <pt x="1147" y="-172" on="1"/>
        <pt x="1147" y="-35" on="1"/>
        <pt x="1418" y="205" on="1"/>
        <pt x="1486" y="265" on="0"/>
        <pt x="1573" y="351" on="0"/>
        <pt x="1622" y="419" on="0"/>
        <pt x="1641" y="479" on="0"/>
        <pt x="1641" y="514" on="1"/>
        <pt x="1641" y="584" on="0"/>
        <pt x="1537" y="655" on="0"/>
        <pt x="1452" y="655" on="1"/>
        <pt x="1413" y="655" on="0"/>
        <pt x="1314" y="638" on="0"/>
        <pt x="1225" y="619" on="0"/>
        <pt x="1164" y="603" on="0"/>
        <pt x="1164" y="603" on="1"/>
        <pt x="1164" y="748" on="1"/>
        <pt x="1164" y="748" on="0"/>
        <pt x="1209" y="764" on="0"/>
        <pt x="1290" y="782" on="0"/>
        <pt x="1402" y="798" on="0"/>
        <pt x="1470" y="798" on="1"/>
        <pt x="1570" y="798" on="0"/>
        <pt x="1702" y="742" on="0"/>
        <pt x="1781" y="658" on="0"/>
        <pt x="1813" y="559" on="0"/>
        <pt x="1813" y="517" on="1"/>
        <pt x="1813" y="469" on="0"/>
        <pt x="1789" y="384" on="0"/>
        <pt x="1733" y="297" on="0"/>
        <pt x="1640" y="201" on="0"/>
        <pt x="1570" y="142" on="1"/>
      </contour>
    </TTGlyph>
    <TTGlyph name="onequarter" xMin="137" yMin="-250" xMax="1655" yMax="1529">
      <contour>
        <pt x="1376" y="946" on="1"/>
        <pt x="1504" y="915" on="1"/>
        <pt x="1504" y="145" on="1"/>
        <pt x="1655" y="145" on="1"/>
        <pt x="1655" y="34" on="1"/>
        <pt x="1504" y="34" on="1"/>
        <pt x="1504" y="-227" on="1"/>
        <pt x="1359" y="-250" on="1"/>
        <pt x="1359" y="34" on="1"/>
        <pt x="834" y="34" on="1"/>
        <pt x="812" y="144" on="1"/>
      </contour>
      <contour>
        <pt x="971" y="144" on="1"/>
        <pt x="1359" y="144" on="1"/>
        <pt x="1359" y="703" on="1"/>
        <pt x="1237" y="514" on="1"/>
      </contour>
      <contour>
        <pt x="345" y="568" on="1"/>
        <pt x="345" y="1413" on="1"/>
        <pt x="175" y="1341" on="1"/>
        <pt x="137" y="1434" on="1"/>
        <pt x="375" y="1529" on="1"/>
        <pt x="505" y="1503" on="1"/>
        <pt x="505" y="568" on="1"/>
      </contour>
      <contour>
        <pt x="207" y="-30" on="1"/>
        <pt x="1246" y="1365" on="1"/>
        <pt x="1368" y="1272" on="1"/>
        <pt x="327" y="-123" on="1"/>
      </contour>
    </TTGlyph>
    <TTGlyph name="onesuperior" xMin="137" yMin="649" xMax="505" yMax="1610">
      <contour>
        <pt x="345" y="649" on="1"/>
        <pt x="345" y="1494" on="1"/>
        <pt x="175" y="1422" on="1"/>
        <pt x="137" y="1515" on="1"/>
        <pt x="375" y="1610" on="1"/>
        <pt x="505" y="1584" on="1"/>
        <pt x="505" y="649" on="1"/>
      </contour>
    </TTGlyph>
    <TTGlyph name="ordfeminine" xMin="115" yMin="446" xMax="869" yMax="1638">
      <contour>
        <pt x="179" y="575" on="1"/>
        <pt x="863" y="575" on="1"/>
        <pt x="863" y="446" on="1"/>
        <pt x="179" y="446" on="1"/>
      </contour>
      <contour>
        <pt x="470" y="781" on="1"/>
        <pt x="526" y="781" on="0"/>
        <pt x="616" y="819" on="0"/>
        <pt x="678" y="865" on="0"/>
        <pt x="709" y="903" on="0"/>
        <pt x="708" y="903" on="1"/>
        <pt x="708" y="1141" on="1"/>
        <pt x="657" y="1149" on="0"/>
        <pt x="569" y="1158" on="0"/>
        <pt x="532" y="1158" on="1"/>
        <pt x="276" y="1158" on="0"/>
        <pt x="276" y="971" on="1"/>
        <pt x="276" y="918" on="0"/>
        <pt x="296" y="846" on="0"/>
        <pt x="341" y="801" on="0"/>
        <pt x="415" y="781" on="0"/>
      </contour>
      <contour>
        <pt x="115" y="960" on="1"/>
        <pt x="115" y="1032" on="0"/>
        <pt x="167" y="1143" on="0"/>
        <pt x="262" y="1219" on="0"/>
        <pt x="394" y="1258" on="0"/>
        <pt x="474" y="1258" on="1"/>
        <pt x="518" y="1258" on="0"/>
        <pt x="602" y="1247" on="0"/>
        <pt x="668" y="1234" on="0"/>
        <pt x="708" y="1221" on="0"/>
        <pt x="708" y="1218" on="1"/>
        <pt x="708" y="1276" on="1"/>
        <pt x="708" y="1334" on="0"/>
        <pt x="695" y="1423" on="0"/>
        <pt x="654" y="1483" on="0"/>
        <pt x="579" y="1513" on="0"/>
        <pt x="516" y="1513" on="1"/>
        <pt x="456" y="1513" on="0"/>
        <pt x="349" y="1490" on="0"/>
        <pt x="269" y="1463" on="0"/>
        <pt x="224" y="1442" on="0"/>
        <pt x="225" y="1443" on="1"/>
        <pt x="172" y="1552" on="1"/>
        <pt x="173" y="1552" on="0"/>
        <pt x="225" y="1578" on="0"/>
        <pt x="315" y="1611" on="0"/>
        <pt x="437" y="1638" on="0"/>
        <pt x="508" y="1638" on="1"/>
        <pt x="610" y="1638" on="0"/>
        <pt x="748" y="1594" on="0"/>
        <pt x="833" y="1497" on="0"/>
        <pt x="869" y="1344" on="0"/>
        <pt x="869" y="1235" on="1"/>
        <pt x="869" y="686" on="1"/>
        <pt x="753" y="686" on="1"/>
        <pt x="726" y="828" on="1"/>
        <pt x="725" y="828" on="0"/>
        <pt x="695" y="778" on="0"/>
        <pt x="627" y="718" on="0"/>
        <pt x="515" y="668" on="0"/>
        <pt x="432" y="668" on="1"/>
        <pt x="358" y="668" on="0"/>
        <pt x="241" y="707" on="0"/>
        <pt x="159" y="781" on="0"/>
        <pt x="115" y="890" on="0"/>
      </contour>
    </TTGlyph>
    <TTGlyph name="ordmasculine" xMin="114" yMin="446" xMax="963" yMax="1638">
      <contour>
        <pt x="200" y="575" on="1"/>
        <pt x="884" y="575" on="1"/>
        <pt x="884" y="446" on="1"/>
        <pt x="200" y="446" on="1"/>
      </contour>
      <contour>
        <pt x="271" y="1154" on="1"/>
        <pt x="271" y="1077" on="0"/>
        <pt x="301" y="946" on="0"/>
        <pt x="365" y="851" on="0"/>
        <pt x="466" y="797" on="0"/>
        <pt x="538" y="797" on="1"/>
        <pt x="610" y="797" on="0"/>
        <pt x="711" y="850" on="0"/>
        <pt x="775" y="945" on="0"/>
        <pt x="805" y="1076" on="0"/>
        <pt x="805" y="1154" on="1"/>
        <pt x="805" y="1230" on="0"/>
        <pt x="775" y="1361" on="0"/>
        <pt x="711" y="1457" on="0"/>
        <pt x="610" y="1512" on="0"/>
        <pt x="538" y="1512" on="1"/>
        <pt x="466" y="1512" on="0"/>
        <pt x="365" y="1458" on="0"/>
        <pt x="301" y="1362" on="0"/>
        <pt x="271" y="1231" on="0"/>
      </contour>
      <contour>
        <pt x="114" y="1152" on="1"/>
        <pt x="114" y="1251" on="0"/>
        <pt x="165" y="1427" on="0"/>
        <pt x="270" y="1560" on="0"/>
        <pt x="429" y="1638" on="0"/>
        <pt x="538" y="1638" on="1"/>
        <pt x="647" y="1638" on="0"/>
        <pt x="807" y="1560" on="0"/>
        <pt x="912" y="1427" on="0"/>
        <pt x="963" y="1251" on="0"/>
        <pt x="963" y="1152" on="1"/>
        <pt x="963" y="1052" on="0"/>
        <pt x="912" y="877" on="0"/>
        <pt x="807" y="746" on="0"/>
        <pt x="647" y="670" on="0"/>
        <pt x="538" y="670" on="1"/>
        <pt x="430" y="670" on="0"/>
        <pt x="271" y="745" on="0"/>
        <pt x="166" y="875" on="0"/>
        <pt x="114" y="1051" on="0"/>
      </contour>
    </TTGlyph>
    <TTGlyph name="oslash" xMin="72" yMin="-198" xMax="1133" yMax="1365">
      <contour>
        <pt x="298" y="-168" on="1"/>
        <pt x="827" y="1365" on="1"/>
        <pt x="908" y="1335" on="1"/>
        <pt x="386" y="-198" on="1"/>
      </contour>
      <contour>
        <pt x="274" y="768" on="1"/>
        <pt x="254" y="683" on="0"/>
        <pt x="254" y="582" on="1"/>
        <pt x="254" y="484" on="0"/>
        <pt x="292" y="314" on="0"/>
        <pt x="375" y="189" on="0"/>
        <pt x="507" y="117" on="0"/>
        <pt x="602" y="117" on="1"/>
        <pt x="698" y="117" on="0"/>
        <pt x="831" y="190" on="0"/>
        <pt x="914" y="316" on="0"/>
        <pt x="950" y="485" on="0"/>
        <pt x="950" y="582" on="1"/>
        <pt x="950" y="681" on="0"/>
        <pt x="912" y="852" on="0"/>
        <pt x="828" y="979" on="0"/>
        <pt x="696" y="1051" on="0"/>
        <pt x="602" y="1051" on="1"/>
        <pt x="530" y="1051" on="0"/>
        <pt x="420" y="1009" on="0"/>
        <pt x="341" y="934" on="0"/>
        <pt x="289" y="830" on="0"/>
      </contour>
      <contour>
        <pt x="602" y="1190" on="1"/>
        <pt x="738" y="1190" on="0"/>
        <pt x="938" y="1093" on="0"/>
        <pt x="1069" y="927" on="0"/>
        <pt x="1133" y="706" on="0"/>
        <pt x="1133" y="582" on="1"/>
        <pt x="1133" y="458" on="0"/>
        <pt x="1070" y="239" on="0"/>
        <pt x="939" y="75" on="0"/>
        <pt x="739" y="-20" on="0"/>
        <pt x="602" y="-20" on="1"/>
        <pt x="471" y="-20" on="0"/>
        <pt x="272" y="71" on="0"/>
        <pt x="139" y="231" on="0"/>
        <pt x="72" y="452" on="0"/>
        <pt x="72" y="582" on="1"/>
        <pt x="72" y="708" on="0"/>
        <pt x="137" y="930" on="0"/>
        <pt x="269" y="1095" on="0"/>
        <pt x="468" y="1190" on="0"/>
      </contour>
    </TTGlyph>
    <TTGlyph name="otilde" xMin="113" yMin="-20" xMax="1173" yMax="1576">
      <component glyphName="o" x="0" y="0" flags="0x4"/>
      <component glyphName="tilde" x="205" y="0" flags="0x4"/>
    </TTGlyph>
    <TTGlyph name="p" xMin="186" yMin="-487" xMax="1204" yMax="1190">
      <contour>
        <pt x="735" y="-20" on="1"/>
        <pt x="682" y="-20" on="0"/>
        <pt x="579" y="9" on="0"/>
        <pt x="487" y="59" on="0"/>
        <pt x="407" y="126" on="0"/>
        <pt x="376" y="164" on="1"/>
        <pt x="376" y="-465" on="1"/>
        <pt x="186" y="-487" on="1"/>
        <pt x="186" y="1169" on="1"/>
        <pt x="327" y="1169" on="1"/>
        <pt x="360" y="991" on="1"/>
        <pt x="393" y="1031" on="0"/>
        <pt x="476" y="1103" on="0"/>
        <pt x="572" y="1158" on="0"/>
        <pt x="678" y="1190" on="0"/>
        <pt x="734" y="1190" on="1"/>
        <pt x="828" y="1190" on="0"/>
        <pt x="971" y="1135" on="0"/>
        <pt x="1075" y="1041" on="0"/>
        <pt x="1145" y="918" on="0"/>
        <pt x="1187" y="784" on="0"/>
        <pt x="1204" y="646" on="0"/>
        <pt x="1204" y="584" on="1"/>
        <pt x="1204" y="470" on="0"/>
        <pt x="1151" y="253" on="0"/>
        <pt x="1037" y="83" on="0"/>
        <pt x="859" y="-20" on="0"/>
      </contour>
      <contour>
        <pt x="1014" y="543" on="1"/>
        <pt x="1014" y="595" on="0"/>
        <pt x="1006" y="712" on="0"/>
        <pt x="984" y="824" on="0"/>
        <pt x="945" y="927" on="0"/>
        <pt x="883" y="1005" on="0"/>
        <pt x="795" y="1051" on="0"/>
        <pt x="735" y="1051" on="1"/>
        <pt x="674" y="1051" on="0"/>
        <pt x="556" y="1010" on="0"/>
        <pt x="457" y="956" on="0"/>
        <pt x="388" y="903" on="0"/>
        <pt x="376" y="890" on="1"/>
        <pt x="376" y="285" on="1"/>
        <pt x="383" y="277" on="0"/>
        <pt x="446" y="224" on="0"/>
        <pt x="541" y="165" on="0"/>
        <pt x="658" y="119" on="0"/>
        <pt x="718" y="119" on="1"/>
        <pt x="782" y="119" on="0"/>
        <pt x="891" y="184" on="0"/>
        <pt x="970" y="298" on="0"/>
        <pt x="1014" y="453" on="0"/>
      </contour>
    </TTGlyph>
    <TTGlyph name="paragraph" xMin="158" yMin="0" xMax="1138" yMax="1578">
      <contour>
        <pt x="1138" y="1578" on="1"/>
        <pt x="1138" y="0" on="1"/>
        <pt x="972" y="0" on="1"/>
        <pt x="972" y="1428" on="1"/>
        <pt x="817" y="1428" on="1"/>
        <pt x="817" y="0" on="1"/>
        <pt x="653" y="0" on="1"/>
        <pt x="653" y="905" on="1"/>
        <pt x="559" y="905" on="0"/>
        <pt x="381" y="937" on="0"/>
        <pt x="242" y="1016" on="0"/>
        <pt x="158" y="1149" on="0"/>
        <pt x="158" y="1250" on="1"/>
        <pt x="158" y="1321" on="0"/>
        <pt x="199" y="1425" on="0"/>
        <pt x="272" y="1497" on="0"/>
        <pt x="372" y="1542" on="0"/>
        <pt x="491" y="1568" on="0"/>
        <pt x="623" y="1577" on="0"/>
        <pt x="692" y="1578" on="1"/>
      </contour>
    </TTGlyph>
    <TTGlyph name="parenleft" xMin="176" yMin="-205" xMax="664" yMax="1595">
      <contour>
        <pt x="664" y="1493" on="1"/>
        <pt x="623" y="1457" on="0"/>
        <pt x="519" y="1321" on="0"/>
        <pt x="426" y="1121" on="0"/>
        <pt x="362" y="857" on="0"/>
        <pt x="362" y="694" on="1"/>
        <pt x="362" y="531" on="0"/>
        <pt x="421" y="266" on="0"/>
        <pt x="508" y="67" on="0"/>
        <pt x="608" y="-66" on="0"/>
        <pt x="648" y="-97" on="1"/>
        <pt x="565" y="-205" on="1"/>
        <pt x="540" y="-189" on="0"/>
        <pt x="463" y="-120" on="0"/>
        <pt x="376" y="-13" on="0"/>
        <pt x="290" y="133" on="0"/>
        <pt x="220" y="322" on="0"/>
        <pt x="176" y="556" on="0"/>
        <pt x="176" y="696" on="1"/>
        <pt x="176" y="824" on="0"/>
        <pt x="214" y="1045" on="0"/>
        <pt x="277" y="1229" on="0"/>
        <pt x="357" y="1378" on="0"/>
        <pt x="441" y="1492" on="0"/>
        <pt x="521" y="1572" on="0"/>
        <pt x="553" y="1595" on="1"/>
      </contour>
    </TTGlyph>
    <TTGlyph name="parenright" xMin="164" yMin="-205" xMax="653" yMax="1599">
      <contour>
        <pt x="466" y="694" on="1"/>
        <pt x="466" y="854" on="0"/>
        <pt x="409" y="1117" on="0"/>
        <pt x="323" y="1318" on="0"/>
        <pt x="223" y="1456" on="0"/>
        <pt x="181" y="1491" on="1"/>
        <pt x="264" y="1599" on="1"/>
        <pt x="277" y="1590" on="0"/>
        <pt x="346" y="1533" on="0"/>
        <pt x="432" y="1434" on="0"/>
        <pt x="525" y="1290" on="0"/>
        <pt x="603" y="1099" on="0"/>
        <pt x="653" y="857" on="0"/>
        <pt x="653" y="710" on="1"/>
        <pt x="653" y="572" on="0"/>
        <pt x="614" y="342" on="0"/>
        <pt x="550" y="154" on="0"/>
        <pt x="467" y="6" on="0"/>
        <pt x="381" y="-105" on="0"/>
        <pt x="297" y="-182" on="0"/>
        <pt x="264" y="-205" on="1"/>
        <pt x="164" y="-99" on="1"/>
        <pt x="206" y="-63" on="0"/>
        <pt x="310" y="75" on="0"/>
        <pt x="403" y="276" on="0"/>
        <pt x="466" y="536" on="0"/>
      </contour>
    </TTGlyph>
    <TTGlyph name="partialdiff" xMin="104" yMin="-25" xMax="961" yMax="1325">
      <contour>
        <pt x="756" y="621" on="1"/>
        <pt x="771" y="708" on="0"/>
        <pt x="786" y="871" on="0"/>
        <pt x="786" y="946" on="1"/>
        <pt x="786" y="1075" on="0"/>
        <pt x="713" y="1206" on="0"/>
        <pt x="641" y="1206" on="1"/>
        <pt x="586" y="1206" on="0"/>
        <pt x="442" y="1090" on="0"/>
        <pt x="406" y="1090" on="1"/>
        <pt x="370" y="1090" on="0"/>
        <pt x="322" y="1134" on="0"/>
        <pt x="322" y="1165" on="1"/>
        <pt x="322" y="1227" on="0"/>
        <pt x="466" y="1325" on="0"/>
        <pt x="567" y="1325" on="1"/>
        <pt x="747" y="1325" on="0"/>
        <pt x="961" y="1015" on="0"/>
        <pt x="961" y="752" on="1"/>
        <pt x="961" y="417" on="0"/>
        <pt x="672" y="-25" on="0"/>
        <pt x="459" y="-25" on="1"/>
        <pt x="307" y="-25" on="0"/>
        <pt x="104" y="191" on="0"/>
        <pt x="104" y="354" on="1"/>
        <pt x="104" y="552" on="0"/>
        <pt x="325" y="809" on="0"/>
        <pt x="487" y="809" on="1"/>
        <pt x="588" y="809" on="0"/>
        <pt x="718" y="718" on="0"/>
      </contour>
      <contour>
        <pt x="707" y="494" on="1"/>
        <pt x="707" y="610" on="0"/>
        <pt x="620" y="735" on="0"/>
        <pt x="541" y="735" on="1"/>
        <pt x="432" y="735" on="0"/>
        <pt x="291" y="477" on="0"/>
        <pt x="291" y="270" on="1"/>
        <pt x="291" y="154" on="0"/>
        <pt x="377" y="31" on="0"/>
        <pt x="457" y="31" on="1"/>
        <pt x="566" y="31" on="0"/>
        <pt x="707" y="291" on="0"/>
      </contour>
    </TTGlyph>
    <TTGlyph name="percent" xMin="113" yMin="-22" xMax="1666" yMax="1497">
      <contour>
        <pt x="1157" y="393" on="1"/>
        <pt x="1157" y="692" on="0"/>
        <pt x="1345" y="692" on="1"/>
        <pt x="1533" y="692" on="0"/>
        <pt x="1533" y="393" on="1"/>
        <pt x="1533" y="312" on="0"/>
        <pt x="1508" y="196" on="0"/>
        <pt x="1460" y="123" on="0"/>
        <pt x="1390" y="89" on="0"/>
        <pt x="1345" y="89" on="1"/>
        <pt x="1300" y="89" on="0"/>
        <pt x="1230" y="123" on="0"/>
        <pt x="1182" y="196" on="0"/>
        <pt x="1157" y="312" on="0"/>
      </contour>
      <contour>
        <pt x="1024" y="372" on="1"/>
        <pt x="1024" y="333" on="0"/>
        <pt x="1036" y="244" on="0"/>
        <pt x="1064" y="158" on="0"/>
        <pt x="1111" y="78" on="0"/>
        <pt x="1182" y="17" on="0"/>
        <pt x="1280" y="-20" on="0"/>
        <pt x="1345" y="-21" on="1"/>
        <pt x="1411" y="-21" on="0"/>
        <pt x="1510" y="17" on="0"/>
        <pt x="1581" y="81" on="0"/>
        <pt x="1628" y="162" on="0"/>
        <pt x="1655" y="250" on="0"/>
        <pt x="1666" y="336" on="0"/>
        <pt x="1666" y="372" on="1"/>
        <pt x="1666" y="481" on="0"/>
        <pt x="1622" y="641" on="0"/>
        <pt x="1539" y="746" on="0"/>
        <pt x="1420" y="796" on="0"/>
        <pt x="1345" y="796" on="1"/>
        <pt x="1270" y="796" on="0"/>
        <pt x="1151" y="746" on="0"/>
        <pt x="1068" y="641" on="0"/>
        <pt x="1024" y="481" on="0"/>
      </contour>
      <contour>
        <pt x="246" y="1092" on="1"/>
        <pt x="246" y="1391" on="0"/>
        <pt x="434" y="1391" on="1"/>
        <pt x="622" y="1391" on="0"/>
        <pt x="622" y="1092" on="1"/>
        <pt x="622" y="1011" on="0"/>
        <pt x="597" y="895" on="0"/>
        <pt x="549" y="822" on="0"/>
        <pt x="479" y="788" on="0"/>
        <pt x="434" y="788" on="1"/>
        <pt x="389" y="788" on="0"/>
        <pt x="319" y="822" on="0"/>
        <pt x="271" y="895" on="0"/>
        <pt x="246" y="1011" on="0"/>
      </contour>
      <contour>
        <pt x="113" y="1071" on="1"/>
        <pt x="113" y="1032" on="0"/>
        <pt x="125" y="943" on="0"/>
        <pt x="153" y="857" on="0"/>
        <pt x="200" y="777" on="0"/>
        <pt x="271" y="716" on="0"/>
        <pt x="369" y="679" on="0"/>
        <pt x="434" y="678" on="1"/>
        <pt x="500" y="678" on="0"/>
        <pt x="599" y="716" on="0"/>
        <pt x="670" y="780" on="0"/>
        <pt x="717" y="861" on="0"/>
        <pt x="744" y="949" on="0"/>
        <pt x="755" y="1035" on="0"/>
        <pt x="755" y="1071" on="1"/>
        <pt x="755" y="1180" on="0"/>
        <pt x="711" y="1340" on="0"/>
        <pt x="628" y="1445" on="0"/>
        <pt x="509" y="1495" on="0"/>
        <pt x="434" y="1495" on="1"/>
        <pt x="359" y="1495" on="0"/>
        <pt x="240" y="1445" on="0"/>
        <pt x="157" y="1340" on="0"/>
        <pt x="113" y="1180" on="0"/>
      </contour>
      <contour>
        <pt x="479" y="37" on="1"/>
        <pt x="1161" y="1497" on="1"/>
        <pt x="1290" y="1430" on="1"/>
        <pt x="609" y="-22" on="1"/>
      </contour>
    </TTGlyph>
    <TTGlyph name="period" xMin="215" yMin="-17" xMax="435" yMax="213">
      <contour>
        <pt x="327" y="213" on="1"/>
        <pt x="375" y="213" on="0"/>
        <pt x="435" y="146" on="0"/>
        <pt x="435" y="98" on="1"/>
        <pt x="435" y="50" on="0"/>
        <pt x="375" y="-17" on="0"/>
        <pt x="327" y="-17" on="1"/>
        <pt x="302" y="-17" on="0"/>
        <pt x="261" y="1" on="0"/>
        <pt x="231" y="33" on="0"/>
        <pt x="215" y="75" on="0"/>
        <pt x="215" y="98" on="1"/>
        <pt x="215" y="121" on="0"/>
        <pt x="231" y="163" on="0"/>
        <pt x="261" y="194" on="0"/>
        <pt x="302" y="213" on="0"/>
      </contour>
    </TTGlyph>
    <TTGlyph name="periodcentered" xMin="119" yMin="535" xMax="339" yMax="765">
      <contour>
        <pt x="231" y="765" on="1"/>
        <pt x="279" y="765" on="0"/>
        <pt x="339" y="698" on="0"/>
        <pt x="339" y="650" on="1"/>
        <pt x="339" y="602" on="0"/>
        <pt x="279" y="535" on="0"/>
        <pt x="231" y="535" on="1"/>
        <pt x="206" y="535" on="0"/>
        <pt x="165" y="553" on="0"/>
        <pt x="135" y="585" on="0"/>
        <pt x="119" y="627" on="0"/>
        <pt x="119" y="650" on="1"/>
        <pt x="119" y="673" on="0"/>
        <pt x="135" y="715" on="0"/>
        <pt x="165" y="746" on="0"/>
        <pt x="206" y="765" on="0"/>
      </contour>
    </TTGlyph>
    <TTGlyph name="periodcentered#1" xMin="119" yMin="535" xMax="339" yMax="765">
      <component glyphName="periodcentered" x="0" y="0" flags="0x204"/>
    </TTGlyph>
    <TTGlyph name="perthousand" xMin="7" yMin="-172" xMax="788" yMax="1731">
      <component glyphName="fraction" x="0" y="0" flags="0x204"/>
    </TTGlyph>
    <TTGlyph name="pi" xMin="-31" yMin="-16" xMax="1194" yMax="1071">
      <contour>
        <pt x="1159" y="913" on="1"/>
        <pt x="977" y="913" on="1"/>
        <pt x="872" y="426" on="1"/>
        <pt x="857" y="352" on="0"/>
        <pt x="842" y="260" on="0"/>
        <pt x="842" y="238" on="1"/>
        <pt x="842" y="180" on="0"/>
        <pt x="889" y="131" on="0"/>
        <pt x="944" y="131" on="1"/>
        <pt x="961" y="131" on="0"/>
        <pt x="1007" y="136" on="0"/>
        <pt x="1044" y="141" on="1"/>
        <pt x="1014" y="0" on="1"/>
        <pt x="984" y="-8" on="0"/>
        <pt x="929" y="-16" on="0"/>
        <pt x="903" y="-16" on="1"/>
        <pt x="785" y="-16" on="0"/>
        <pt x="664" y="86" on="0"/>
        <pt x="664" y="186" on="1"/>
        <pt x="664" y="232" on="0"/>
        <pt x="685" y="376" on="0"/>
        <pt x="719" y="537" on="1"/>
        <pt x="799" y="913" on="1"/>
        <pt x="473" y="913" on="1"/>
        <pt x="279" y="0" on="1"/>
        <pt x="98" y="0" on="1"/>
        <pt x="293" y="913" on="1"/>
        <pt x="252" y="913" on="1"/>
        <pt x="198" y="913" on="0"/>
        <pt x="138" y="849" on="0"/>
        <pt x="129" y="780" on="1"/>
        <pt x="-31" y="780" on="1"/>
        <pt x="-3" y="946" on="0"/>
        <pt x="140" y="1071" on="0"/>
        <pt x="305" y="1071" on="1"/>
        <pt x="1194" y="1071" on="1"/>
      </contour>
    </TTGlyph>
    <TTGlyph name="plus" xMin="217" yMin="174" xMax="985" yMax="995">
      <contour>
        <pt x="985" y="518" on="1"/>
        <pt x="671" y="518" on="1"/>
        <pt x="671" y="174" on="1"/>
        <pt x="530" y="174" on="1"/>
        <pt x="530" y="518" on="1"/>
        <pt x="217" y="518" on="1"/>
        <pt x="217" y="651" on="1"/>
        <pt x="530" y="651" on="1"/>
        <pt x="530" y="995" on="1"/>
        <pt x="671" y="995" on="1"/>
        <pt x="671" y="651" on="1"/>
        <pt x="985" y="651" on="1"/>
      </contour>
    </TTGlyph>
    <TTGlyph name="plusminus" xMin="84" yMin="-55" xMax="852" yMax="995">
      <contour>
        <pt x="852" y="518" on="1"/>
        <pt x="538" y="518" on="1"/>
        <pt x="538" y="174" on="1"/>
        <pt x="397" y="174" on="1"/>
        <pt x="397" y="518" on="1"/>
        <pt x="84" y="518" on="1"/>
        <pt x="84" y="651" on="1"/>
        <pt x="397" y="651" on="1"/>
        <pt x="397" y="995" on="1"/>
        <pt x="538" y="995" on="1"/>
        <pt x="538" y="651" on="1"/>
        <pt x="852" y="651" on="1"/>
      </contour>
      <contour>
        <pt x="819" y="-55" on="1"/>
        <pt x="118" y="-55" on="1"/>
        <pt x="118" y="88" on="1"/>
        <pt x="819" y="88" on="1"/>
      </contour>
    </TTGlyph>
    <TTGlyph name="product" xMin="156" yMin="-393" xMax="1393" yMax="1473">
      <contour>
        <pt x="156" y="1473" on="1"/>
        <pt x="1393" y="1473" on="1"/>
        <pt x="1393" y="-393" on="1"/>
        <pt x="1153" y="-393" on="1"/>
        <pt x="1153" y="1268" on="1"/>
        <pt x="395" y="1268" on="1"/>
        <pt x="395" y="-393" on="1"/>
        <pt x="156" y="-393" on="1"/>
      </contour>
    </TTGlyph>
    <TTGlyph name="q" xMin="113" yMin="-502" xMax="1130" yMax="1190">
      <contour>
        <pt x="574" y="1190" on="1"/>
        <pt x="631" y="1190" on="0"/>
        <pt x="743" y="1154" on="0"/>
        <pt x="843" y="1094" on="0"/>
        <pt x="928" y="1015" on="0"/>
        <pt x="957" y="971" on="1"/>
        <pt x="991" y="1169" on="1"/>
        <pt x="1130" y="1169" on="1"/>
        <pt x="1130" y="-479" on="1"/>
        <pt x="940" y="-502" on="1"/>
        <pt x="940" y="164" on="1"/>
        <pt x="910" y="126" on="0"/>
        <pt x="831" y="59" on="0"/>
        <pt x="739" y="9" on="0"/>
        <pt x="638" y="-20" on="0"/>
        <pt x="584" y="-20" on="1"/>
        <pt x="457" y="-20" on="0"/>
        <pt x="278" y="84" on="0"/>
        <pt x="165" y="254" on="0"/>
        <pt x="113" y="471" on="0"/>
        <pt x="113" y="584" on="1"/>
        <pt x="113" y="701" on="0"/>
        <pt x="163" y="919" on="0"/>
        <pt x="274" y="1088" on="0"/>
        <pt x="449" y="1190" on="0"/>
      </contour>
      <contour>
        <pt x="303" y="584" on="1"/>
        <pt x="303" y="483" on="0"/>
        <pt x="329" y="336" on="0"/>
        <pt x="373" y="233" on="0"/>
        <pt x="430" y="168" on="0"/>
        <pt x="492" y="132" on="0"/>
        <pt x="556" y="119" on="0"/>
        <pt x="584" y="119" on="1"/>
        <pt x="637" y="119" on="0"/>
        <pt x="746" y="150" on="0"/>
        <pt x="842" y="195" on="0"/>
        <pt x="919" y="247" on="0"/>
        <pt x="940" y="268" on="1"/>
        <pt x="940" y="891" on="1"/>
        <pt x="906" y="925" on="0"/>
        <pt x="813" y="984" on="0"/>
        <pt x="712" y="1027" on="0"/>
        <pt x="614" y="1051" on="0"/>
        <pt x="574" y="1051" on="1"/>
        <pt x="439" y="1051" on="0"/>
        <pt x="303" y="817" on="0"/>
      </contour>
    </TTGlyph>
    <TTGlyph name="question" xMin="149" yMin="-40" xMax="1039" yMax="1579">
      <contour>
        <pt x="505" y="675" on="1"/>
        <pt x="505" y="292" on="1"/>
        <pt x="325" y="292" on="1"/>
        <pt x="325" y="777" on="1"/>
        <pt x="458" y="822" on="0"/>
        <pt x="653" y="909" on="0"/>
        <pt x="781" y="1006" on="0"/>
        <pt x="845" y="1122" on="0"/>
        <pt x="848" y="1197" on="1"/>
        <pt x="848" y="1258" on="0"/>
        <pt x="812" y="1342" on="0"/>
        <pt x="736" y="1394" on="0"/>
        <pt x="619" y="1418" on="0"/>
        <pt x="537" y="1418" on="1"/>
        <pt x="465" y="1418" on="0"/>
        <pt x="345" y="1392" on="0"/>
        <pt x="258" y="1361" on="0"/>
        <pt x="209" y="1333" on="0"/>
        <pt x="209" y="1332" on="1"/>
        <pt x="150" y="1475" on="1"/>
        <pt x="149" y="1475" on="0"/>
        <pt x="212" y="1508" on="0"/>
        <pt x="323" y="1547" on="0"/>
        <pt x="472" y="1579" on="0"/>
        <pt x="556" y="1579" on="1"/>
        <pt x="659" y="1579" on="0"/>
        <pt x="835" y="1540" on="0"/>
        <pt x="965" y="1453" on="0"/>
        <pt x="1039" y="1315" on="0"/>
        <pt x="1039" y="1216" on="1"/>
        <pt x="1039" y="1116" on="0"/>
        <pt x="974" y="965" on="0"/>
        <pt x="868" y="851" on="0"/>
        <pt x="734" y="768" on="0"/>
        <pt x="664" y="737" on="1"/>
        <pt x="584" y="704" on="1"/>
        <pt x="567" y="697" on="0"/>
        <pt x="528" y="683" on="0"/>
      </contour>
      <contour>
        <pt x="406" y="-40" on="1"/>
        <pt x="384" y="-40" on="0"/>
        <pt x="346" y="-23" on="0"/>
        <pt x="318" y="7" on="0"/>
        <pt x="302" y="47" on="0"/>
        <pt x="302" y="70" on="1"/>
        <pt x="302" y="92" on="0"/>
        <pt x="321" y="128" on="0"/>
        <pt x="351" y="154" on="0"/>
        <pt x="390" y="169" on="0"/>
        <pt x="410" y="169" on="1"/>
        <pt x="429" y="169" on="0"/>
        <pt x="466" y="152" on="0"/>
        <pt x="494" y="124" on="0"/>
        <pt x="511" y="85" on="0"/>
        <pt x="511" y="64" on="1"/>
        <pt x="511" y="42" on="0"/>
        <pt x="494" y="4" on="0"/>
        <pt x="466" y="-24" on="0"/>
        <pt x="427" y="-40" on="0"/>
      </contour>
    </TTGlyph>
    <TTGlyph name="questiondown" xMin="143" yMin="-114" xMax="1032" yMax="1505">
      <contour>
        <pt x="677" y="790" on="1"/>
        <pt x="677" y="1173" on="1"/>
        <pt x="857" y="1173" on="1"/>
        <pt x="857" y="688" on="1"/>
        <pt x="725" y="642" on="0"/>
        <pt x="531" y="556" on="0"/>
        <pt x="402" y="459" on="0"/>
        <pt x="336" y="343" on="0"/>
        <pt x="334" y="268" on="1"/>
        <pt x="334" y="206" on="0"/>
        <pt x="370" y="122" on="0"/>
        <pt x="445" y="70" on="0"/>
        <pt x="563" y="47" on="0"/>
        <pt x="645" y="47" on="1"/>
        <pt x="716" y="47" on="0"/>
        <pt x="837" y="72" on="0"/>
        <pt x="924" y="104" on="0"/>
        <pt x="973" y="131" on="0"/>
        <pt x="973" y="133" on="1"/>
        <pt x="1032" y="-10" on="1"/>
        <pt x="1032" y="-9" on="0"/>
        <pt x="971" y="-42" on="0"/>
        <pt x="863" y="-81" on="0"/>
        <pt x="714" y="-114" on="0"/>
        <pt x="626" y="-114" on="1"/>
        <pt x="523" y="-114" on="0"/>
        <pt x="347" y="-75" on="0"/>
        <pt x="217" y="12" on="0"/>
        <pt x="143" y="150" on="0"/>
        <pt x="143" y="249" on="1"/>
        <pt x="143" y="337" on="0"/>
        <pt x="194" y="475" on="0"/>
        <pt x="279" y="584" on="0"/>
        <pt x="390" y="665" on="0"/>
        <pt x="509" y="727" on="0"/>
        <pt x="627" y="772" on="0"/>
      </contour>
      <contour>
        <pt x="776" y="1505" on="1"/>
        <pt x="798" y="1505" on="0"/>
        <pt x="836" y="1488" on="0"/>
        <pt x="864" y="1458" on="0"/>
        <pt x="880" y="1418" on="0"/>
        <pt x="880" y="1395" on="1"/>
        <pt x="880" y="1373" on="0"/>
        <pt x="861" y="1337" on="0"/>
        <pt x="831" y="1311" on="0"/>
        <pt x="792" y="1296" on="0"/>
        <pt x="772" y="1296" on="1"/>
        <pt x="751" y="1296" on="0"/>
        <pt x="715" y="1313" on="0"/>
        <pt x="687" y="1342" on="0"/>
        <pt x="671" y="1380" on="0"/>
        <pt x="671" y="1401" on="1"/>
        <pt x="671" y="1423" on="0"/>
        <pt x="688" y="1461" on="0"/>
        <pt x="716" y="1489" on="0"/>
        <pt x="755" y="1505" on="0"/>
      </contour>
    </TTGlyph>
    <TTGlyph name="quotedbl" xMin="132" yMin="1058" xMax="698" yMax="1579">
      <contour>
        <pt x="470" y="1508" on="1"/>
        <pt x="470" y="1579" on="1"/>
        <pt x="698" y="1579" on="1"/>
        <pt x="698" y="1508" on="1"/>
        <pt x="638" y="1058" on="1"/>
        <pt x="530" y="1058" on="1"/>
      </contour>
      <contour>
        <pt x="132" y="1508" on="1"/>
        <pt x="132" y="1579" on="1"/>
        <pt x="360" y="1579" on="1"/>
        <pt x="360" y="1508" on="1"/>
        <pt x="300" y="1058" on="1"/>
        <pt x="192" y="1058" on="1"/>
      </contour>
    </TTGlyph>
</ttFont>
